<?xml version="1.0" encoding="utf-8"?>
<!-- Generator: Adobe Illustrator 16.0.0, SVG Export Plug-In . SVG Version: 6.00 Build 0)  -->
<!DOCTYPE svg PUBLIC "-//W3C//DTD SVG 1.1//EN" "http://www.w3.org/Graphics/SVG/1.1/DTD/svg11.dtd">
<svg version="1.1"
	 id="svg2" xmlns:dc="http://purl.org/dc/elements/1.1/" xmlns:cc="http://creativecommons.org/ns#" xmlns:rdf="http://www.w3.org/1999/02/22-rdf-syntax-ns#" xmlns:svg="http://www.w3.org/2000/svg" xmlns:sodipodi="http://sodipodi.sourceforge.net/DTD/sodipodi-0.dtd" xmlns:inkscape="http://www.inkscape.org/namespaces/inkscape" sodipodi:docname="360ink.svg" inkscape:version="0.91pre3 r13670"
	 xmlns="http://www.w3.org/2000/svg" xmlns:xlink="http://www.w3.org/1999/xlink" x="0px" y="0px" width="32px" height="32px"
	 viewBox="0 0 32 32" enable-background="new 0 0 32 32" xml:space="preserve">
<sodipodi:namedview  inkscape:cy="18.148444" inkscape:cx="-0.89160113" inkscape:zoom="10.429825" showgrid="false" guidetolerance="10" gridtolerance="10" objecttolerance="10" borderopacity="1" pagecolor="#c8ffff" bordercolor="#666666" id="namedview6" inkscape:current-layer="svg2" inkscape:window-maximized="1" inkscape:window-y="-8" inkscape:window-x="-8" inkscape:window-height="837" inkscape:window-width="1600" inkscape:pageshadow="2" inkscape:pageopacity="0">
	</sodipodi:namedview>
<path id="path2996" inkscape:export-ydpi="160" inkscape:export-xdpi="160" inkscape:connector-curvature="0" fill="none" d="M0,0"
	/>
<path id="path3111" inkscape:export-ydpi="160.30792" inkscape:export-xdpi="160.30792" inkscape:connector-curvature="0" fill="#FFFFFF" d="
	M13.407,30.414c-0.803-0.182-0.898-0.273-0.803-0.78c0.106-0.565,0.254-0.653,0.783-0.465c1.009,0.359,2.061,0.052,2.061-0.604
	c0-0.18-0.031-0.408-0.069-0.508c-0.103-0.268-0.641-0.508-1.14-0.508c-0.529,0-0.717-0.193-0.669-0.69
	c0.034-0.356,0.058-0.372,0.594-0.431c0.71-0.076,1.039-0.26,1.132-0.633c0.059-0.234,0.012-0.348-0.228-0.555
	c-0.352-0.302-0.833-0.334-1.497-0.1c-0.527,0.186-0.63,0.116-0.746-0.502c-0.065-0.35-0.041-0.412,0.204-0.523
	c0.475-0.217,1.643-0.382,2.125-0.301c1.657,0.275,2.256,1.679,1.168,2.734l-0.431,0.418l0.384,0.227
	c0.211,0.125,0.472,0.362,0.582,0.527c0.283,0.433,0.258,1.254-0.054,1.758C16.295,30.301,14.771,30.721,13.407,30.414z
	 M19.971,30.46c-0.766-0.187-1.296-0.608-1.689-1.347c-0.164-0.308-0.209-0.633-0.209-1.508c0-0.996,0.033-1.186,0.311-1.75
	c0.588-1.197,1.65-1.877,3.074-1.969l0.816-0.053l-0.034,0.54l-0.034,0.54l-0.677,0.122c-0.776,0.14-1.323,0.427-1.649,0.864
	c-0.273,0.365-0.184,0.506,0.209,0.326c0.4-0.182,1.452-0.16,1.837,0.038c0.546,0.282,0.927,0.89,0.982,1.566
	c0.077,0.923-0.05,1.356-0.556,1.905C21.725,30.416,20.863,30.678,19.971,30.46z M21.114,29.202
	c0.077-0.063,0.196-0.305,0.266-0.535c0.183-0.611-0.03-1.188-0.526-1.425c-0.352-0.168-0.409-0.168-0.773,0.006
	c-0.623,0.299-0.758,1.033-0.314,1.73C20.049,29.427,20.712,29.536,21.114,29.202L21.114,29.202z M25.387,30.438
	c-1.061-0.313-1.67-1.305-1.758-2.863c-0.135-2.368,0.756-3.747,2.43-3.758c1.26-0.01,2.088,0.857,2.346,2.453
	c0.283,1.75-0.288,3.471-1.332,4.011C26.654,30.496,25.844,30.572,25.387,30.438z M26.666,28.889
	c0.196-0.334,0.229-0.582,0.229-1.73c0-1.15-0.032-1.395-0.229-1.73c-0.189-0.323-0.294-0.392-0.603-0.392
	c-0.512,0-0.758,0.37-0.891,1.341c-0.105,0.762-0.014,2.108,0.164,2.42C25.725,29.475,26.3,29.516,26.666,28.889z M9.808,29.912
	c-2.213-0.764-3.875-1.813-5.591-3.528c-2.155-2.155-3.37-4.399-4.025-7.44c-0.285-1.318-0.285-4.253,0-5.571
	c0.655-3.04,1.87-5.285,4.025-7.44c2.155-2.155,4.4-3.37,7.439-4.025c1.318-0.284,4.254-0.284,5.572,0
	c3.04,0.656,5.285,1.87,7.439,4.025c1.315,1.315,2.128,2.438,2.852,3.944c0.243,0.507,0.494,0.921,0.557,0.921
	s0.445-0.251,0.851-0.559c0.709-0.536,0.937-0.654,0.919-0.475c-0.037,0.388-2.088,6.115-2.188,6.115
	c-0.116,0-1.054-1.067-3.755-4.275c-0.428-0.509-0.751-0.953-0.717-0.986c0.033-0.034,0.548,0.072,1.143,0.234
	c0.596,0.162,1.109,0.269,1.141,0.237c0.227-0.226-1.023-2.209-2.133-3.387c-0.791-0.837-2.316-1.983-3.309-2.486
	c-0.838-0.424-2.351-0.943-3.295-1.131c-0.434-0.086-1.453-0.155-2.29-0.155c-1.678,0-2.61,0.149-4.021,0.643
	C9.148,5.018,8.432,5.393,7.265,6.225C5.209,7.69,3.708,9.703,2.856,12.138c-0.494,1.411-0.642,2.342-0.642,4.02
	c0,0.837,0.069,1.856,0.155,2.29c0.832,4.188,3.718,7.633,7.686,9.17l1.045,0.404l-0.032,1.074c-0.025,0.854-0.066,1.08-0.199,1.1
	C10.777,30.21,10.3,30.082,9.808,29.912z M29.764,26.206c-0.729-0.444-0.863-1.429-0.287-2.114c0.871-1.035,2.611-0.467,2.611,0.852
	c0,0.914-0.568,1.489-1.469,1.488C30.329,26.432,29.984,26.34,29.764,26.206z M31.133,25.514c0.268-0.381,0.218-0.816-0.123-1.086
	c-0.492-0.387-1.044-0.072-1.044,0.594C29.966,25.701,30.764,26.039,31.133,25.514z M13.507,20.508
	c-0.707-0.178-1.712-0.772-2.201-1.303c-0.251-0.271-0.615-0.83-0.81-1.24c-0.319-0.675-0.354-0.848-0.354-1.807
	c0-0.959,0.034-1.132,0.354-1.807c0.492-1.038,1.125-1.685,2.142-2.188c0.796-0.394,0.904-0.417,1.911-0.417
	c0.966,0,1.137,0.034,1.813,0.354c1.039,0.492,1.686,1.125,2.188,2.142c0.395,0.797,0.417,0.903,0.417,1.916
	c0,1.014-0.022,1.12-0.417,1.917c-0.755,1.527-2.096,2.423-3.743,2.502C14.33,20.598,13.745,20.568,13.507,20.508z"/>
<circle fill="none" cx="16" cy="16" r="16"/>
</svg>
