<?xml version="1.0" encoding="utf-8"?>
<!-- Generator: Adobe Illustrator 16.0.0, SVG Export Plug-In . SVG Version: 6.00 Build 0)  -->
<!DOCTYPE svg PUBLIC "-//W3C//DTD SVG 1.1//EN" "http://www.w3.org/Graphics/SVG/1.1/DTD/svg11.dtd">
<svg version="1.1" id="Calque_1" xmlns="http://www.w3.org/2000/svg" xmlns:xlink="http://www.w3.org/1999/xlink" x="0px" y="0px"
	 width="250px" height="250px" viewBox="0 0 250 250" enable-background="new 0 0 250 250" xml:space="preserve">
<g id="XMLID_1_">
	<g>
	</g>
	<g>
		<path fill="none" stroke="#484B60" stroke-width="12" stroke-miterlimit="10" d="M132.118,218.181
			c-4.632,5.157-7.402,8.236-7.402,8.236L22.471,111.538c0,0-12.56-13.42-12.092-37.126c0.468-23.706,13.42-38.371,18.1-42.423
			c4.679-4.053,21.675-18.877,43.827-18.409c22.152,0.468,36.808,9.518,44.922,14.824c7.899,5.157,8.002,5.231,8.002,5.231
			l12.896-8.666c0,0,45.24-31.043,82.048,6.86c36.809,37.903,10.81,73.41,9.05,76.901
			C227.821,111.519,155.73,191.883,132.118,218.181z"/>
		<polyline fill="none" stroke="#484B60" stroke-width="12" stroke-miterlimit="10" points="125.23,33.635 145.539,78.314 
			128.15,103.938 146.671,138.332 111.333,171.995 130.995,217.329 		"/>
	</g>
</g>
</svg>
