<?xml version="1.0" encoding="UTF-8" standalone="no"?>
<!-- Generated by IcoMoon.io -->

<svg
   xmlns:dc="http://purl.org/dc/elements/1.1/"
   xmlns:cc="http://creativecommons.org/ns#"
   xmlns:rdf="http://www.w3.org/1999/02/22-rdf-syntax-ns#"
   xmlns:svg="http://www.w3.org/2000/svg"
   xmlns="http://www.w3.org/2000/svg"
   xmlns:sodipodi="http://sodipodi.sourceforge.net/DTD/sodipodi-0.dtd"
   xmlns:inkscape="http://www.inkscape.org/namespaces/inkscape"
   version="1.1"
   width="32"
   height="32"
   viewBox="0 0 32 32"
   id="svg2"
   inkscape:version="0.91pre3 r13670"
   sodipodi:docname="heart-full.svg">
  <metadata
     id="metadata10">
    <rdf:RDF>
      <cc:Work
         rdf:about="">
        <dc:format>image/svg+xml</dc:format>
        <dc:type
           rdf:resource="http://purl.org/dc/dcmitype/StillImage" />
        <dc:title></dc:title>
      </cc:Work>
    </rdf:RDF>
  </metadata>
  <defs
     id="defs8" />
  <sodipodi:namedview
     pagecolor="#ffffff"
     bordercolor="#666666"
     borderopacity="1"
     objecttolerance="10"
     gridtolerance="10"
     guidetolerance="10"
     inkscape:pageopacity="0"
     inkscape:pageshadow="2"
     inkscape:window-width="1600"
     inkscape:window-height="837"
     id="namedview6"
     showgrid="false"
     inkscape:zoom="14.75"
     inkscape:cx="11.832827"
     inkscape:cy="12.970563"
     inkscape:window-x="-8"
     inkscape:window-y="-8"
     inkscape:window-maximized="1"
     inkscape:current-layer="svg2" />
  <path
     fill="#ffffff"
     d="M29.193 5.265c-3.629-3.596-9.432-3.671-13.191-0.288-3.76-3.383-9.561-3.308-13.192 0.288-3.741 3.704-3.741 9.709 0 13.415 1.069 1.059 11.053 10.941 11.053 10.941 1.183 1.172 3.096 1.172 4.278 0 0 0 10.932-10.822 11.053-10.941 3.742-3.706 3.742-9.711-0.001-13.415zM27.768 17.268l-11.053 10.941c-0.393 0.391-1.034 0.391-1.425 0l-11.053-10.941c-2.95-2.92-2.95-7.671 0-10.591 2.844-2.815 7.416-2.914 10.409-0.222l1.356 1.22 1.355-1.22c2.994-2.692 7.566-2.594 10.41 0.222 2.95 2.919 2.95 7.67 0.001 10.591zM9.253 7.501c0.277 0 0.5 0.224 0.5 0.5s-0.224 0.5-0.5 0.5h-0.001c-1.794 0-3.249 1.455-3.249 3.249v0.001c0 0.276-0.224 0.5-0.5 0.5s-0.5-0.224-0.5-0.5v0c0-2.346 1.901-4.247 4.246-4.249 0.002 0 0.002-0.001 0.004-0.001z"
     id="path4" />
  <path
     style="fill:#ffffff;fill-opacity:1"
     id="path4138"
     d="m 12.147733,10.928733 c -0.04939,0.760418 0.145778,1.501735 0.345066,2.22791 0.220787,0.664186 0.10456,0.338362 0.347733,0.97781 0,0 -1.680448,0.933707 -1.680448,0.933707 l 0,0 c -0.241454,-0.651348 -0.123878,-0.32009 -0.352049,-0.994015 -0.210645,-0.730097 -0.438599,-1.468076 -0.447294,-2.234894 0,0 1.786992,-0.910518 1.786992,-0.910518 z"
     inkscape:connector-curvature="0" />
  <path
     style="fill:#ffffff;fill-opacity:1"
     id="path4140"
     d="M 7.7435285,6.1219068 C 7.371393,6.0607404 6.9945489,6.0368558 6.6181731,6.0211426 6.317847,6.0067905 6.06171,5.9948604 5.7692757,6.0667456 5.7313636,6.0746036 5.6919913,6.0772683 5.6555394,6.0903197 5.5906509,6.1135527 5.4103883,6.2162092 5.4701301,6.1818404 8.2904391,4.5593456 7.5398213,4.9848084 6.9535961,5.3484306 6.8096511,5.4812189 6.6351362,5.5715283 6.4845831,5.6957197 6.3343721,5.8125988 6.1918437,5.9416137 6.0607376,6.0798243 5.9122751,6.2028453 5.8225548,6.3765391 5.701938,6.5241405 5.5886937,6.6816555 5.4403181,6.8076618 5.3333279,6.9695742 5.2261633,7.1335075 5.0968833,7.2793337 4.9718976,7.4292842 4.8271732,7.5685642 4.72076,7.7423345 4.6114401,7.9097428 4.4725607,8.190229 4.4027746,8.5031041 4.346534,8.8096764 4.2887689,9.1932129 4.281415,9.5817163 4.2777118,9.9688109 4.2424394,10.5184 4.3915714,11.048511 4.5446489,11.569923 c 0.2316856,0.682538 0.5753213,1.314242 0.976068,1.91046 0.3580503,0.508257 0.7911199,0.958934 1.2587974,1.36663 0.4327208,0.406901 0.8966404,0.775703 1.3738931,1.127978 0.4325201,0.24347 0.8691179,0.489356 1.3276808,0.681187 0.1781693,0.09525 0.09183,0.05121 0.2586204,0.132886 0,0 -1.675816,1.100321 -1.675816,1.100321 l 0,0 c -0.1604093,-0.08578 -0.078651,-0.04232 -0.2453,-0.130329 C 7.3650335,17.537358 6.9236004,17.288031 6.4902487,17.029588 6.0059114,16.677692 5.5514255,16.290568 5.1115093,15.884254 4.6327407,15.462015 4.1897193,15.000173 3.8306501,14.469798 3.4293285,13.852356 3.0732612,13.206717 2.8253748,12.510763 2.6585979,11.97881 2.4856292,11.435285 2.5012716,10.871181 c 0.006,-0.395235 0.00823,-0.791741 0.055401,-1.1847265 C 2.6008433,9.3594702 2.6830904,9.0428736 2.7765575,8.7269965 2.871616,8.5395922 2.9971525,8.3727059 3.1118293,8.1988496 3.2589585,8.0801432 3.3787318,7.9203665 3.4847255,7.7657675 3.6106736,7.6196721 3.6928127,7.4394506 3.8541243,7.3220877 3.9637508,7.1581337 4.0982142,7.0130677 4.1973735,6.8413126 4.3498363,6.7230028 4.470653,6.5676359 4.6140865,6.4390085 4.775293,6.3309489 4.9129933,6.192763 5.0877554,6.1038491 5.1654873,6.01695 5.1384992,6.0331573 5.2386848,5.9755225 6.0136372,5.5297081 6.5597184,5.00115 7.3714337,4.8561275 c 0.287453,-0.039396 0.5784238,-0.009 0.8672167,6.977e-4 0.3832653,0.024534 0.7653213,0.062123 1.1466834,0.1074735 0,0 -1.6418053,1.1576081 -1.6418053,1.1576081 z"
     inkscape:connector-curvature="0" />
  <path
     style="fill:#ffffff;fill-opacity:1"
     id="path4142"
     d="M 7.2215543,17.316173 C 7.1245246,16.69496 7.0402445,16.071597 6.9675712,15.447033 6.8993133,14.832794 6.8668229,14.21535 6.8521251,13.597738 6.8178477,13.093216 6.905296,12.603021 7.04848,12.122143 c 0.1832381,-0.537872 0.3902106,-1.067424 0.5673966,-1.607404 0.07073,-0.258657 0.1353561,-0.5183386 0.210134,-0.7759394 0,0 1.8114295,-0.8615787 1.8114295,-0.8615787 l 0,0 C 9.5656327,9.1435157 9.4674822,9.4009908 9.4100989,9.6715016 9.2306795,10.211372 9.0143146,10.738166 8.8351986,11.278205 c -0.1478377,0.461022 -0.2485615,0.931484 -0.2243384,1.419283 0.00826,0.614711 0.022561,1.230025 0.088595,1.84179 0.070159,0.608032 0.1509483,1.218663 0.2852995,1.815784 0,0 -1.7632007,0.961111 -1.7632007,0.961111 z"
     inkscape:connector-curvature="0" />
  <path
     style="fill:#ffffff;fill-opacity:1"
     id="path4144"
     d="M 9.7869918,7.9701638 C 8.9539336,8.5198237 8.4088136,9.3763223 7.8657989,10.190845 7.1168607,11.355812 6.5430035,12.612798 6.1466847,13.937448 6.0442996,14.357934 5.9351141,14.785622 5.9139344,15.22034 c -0.00189,0.0387 0.032325,0.142628 0.00403,0.116158 -0.041115,-0.03847 -0.034495,-0.107197 -0.051742,-0.160795 -0.5386631,0.268213 -1.0273843,0.679578 -1.6159892,0.80464 -0.1751583,0.03722 0.1332689,-0.332582 0.1913941,-0.501954 0.3712977,-1.081933 0.6265029,-2.200444 0.8764701,-3.315059 0.046781,-0.227 0.094354,-0.453839 0.1403445,-0.681001 0.015799,-0.07803 0.1358998,-0.691765 0.167104,-0.840199 0.011243,-0.05348 -0.013438,-0.138033 0.036693,-0.1598 1.9537227,-0.8483048 1.8589223,-1.2192409 1.7311647,-0.170181 -0.0794,0.620949 -0.1385588,1.244005 -0.1602804,1.869771 -0.011166,0.321665 -0.053473,0.688464 0.068393,0.994285 0.143347,-0.75193 0.035676,0.02357 -1.5583197,0.684782 -0.088588,0.03675 0.1104632,-0.157184 0.1577291,-0.240636 0.1477004,-0.260777 0.2444479,-0.543586 0.3420336,-0.825393 0.2642846,-0.797146 0.1914113,-0.632223 1.8782188,-0.935675 0.1218411,-0.02192 -0.061227,0.239911 -0.093371,0.359462 -0.089514,0.332917 -0.182437,0.66491 -0.2725417,0.997669 -0.1184075,0.44168 -0.2175903,0.888042 -0.3151639,1.334651 -0.023481,0.107474 -0.107404,0.327625 -0.072424,0.448875 -0.6053679,0.22239 -1.1791622,0.56601 -1.8161035,0.667168 -0.1302814,0.02069 0.04715,-0.259589 0.068954,-0.389689 0.032323,-0.192862 0.063323,-0.385949 0.093424,-0.57917 C 5.8314624,13.943955 5.9401065,13.188662 6.0421044,12.43214 6.1528092,11.556231 6.2436805,10.677459 6.2864384,9.7954581 6.2683299,9.5387467 6.3440511,9.2914027 6.3692966,9.0392615 8.3243204,7.9505323 8.2148887,7.688304 8.217676,8.8443094 8.2292886,9.1188727 8.2148627,9.3875641 8.162311,9.6569046 8.0874574,10.12923 7.8199497,10.357179 7.4667138,10.659274 6.679171,11.256177 5.8629142,11.818748 5.1394396,12.494409 4.9838133,12.50746 5.0091578,12.71431 4.9033094,12.775937 4.6659242,12.914148 5.2384656,12.3931 4.9023405,12.542683 c -1.1694778,0.520444 -2.0431448,1.306756 -1.2290618,0.604425 0.6289651,-0.614181 1.0612531,-1.374097 1.4472528,-2.153856 0.094614,-0.192713 0.1828669,-0.389078 0.2557438,-0.591159 0.00854,-0.02367 -4.99e-4,-0.08181 0.022683,-0.07201 0.032107,0.01357 0.00564,0.111189 0.037712,0.09753 C 6.0268187,10.176307 6.5879273,9.8616386 7.1635558,9.5786507 6.8318879,10.336715 6.5699496,11.124263 6.2920873,11.903385 6.0795042,12.437897 5.9798441,13.025552 5.7109655,13.53737 5.0958619,13.838388 4.5096068,14.207422 3.8656547,14.440423 3.7959858,14.465632 3.7989558,14.307926 3.7710787,14.239281 3.6428401,13.923507 3.599425,13.577096 3.5471389,13.243004 c -0.060494,-0.402196 -0.087301,-0.808052 -0.099158,-1.214241 -0.01796,-0.256065 0.03738,-0.507294 0.094569,-0.755091 0.0561,-0.203995 0.149273,-0.392691 0.2320311,-0.58626 C 3.864984,10.506497 3.9615354,10.328524 4.0451193,10.14429 4.1422896,9.9677717 4.2182688,9.7819336 4.3355672,9.617138 4.4872764,9.4008108 4.6550792,9.1955673 4.8232649,8.9918259 4.9624838,8.8231989 5.1048171,8.6557481 5.2617137,8.5032195 5.4078535,8.3379007 5.5731283,8.1928975 5.7425255,8.051949 6.3875377,7.5742094 7.1176694,7.2404298 7.8170574,6.8403863 7.9319668,6.7746592 8.0314926,6.718329 8.1568378,6.6734939 c 0.040242,-0.00985 0.081837,-0.015265 0.1207267,-0.029549 0.083698,-0.043341 0.110566,-0.061232 0.199927,-0.091715 0.1109369,-0.037843 0.2218463,-0.052767 0.3319732,-0.094434 0.2530294,-0.087051 0.520066,-0.1093807 0.7852886,-0.124073 0.2314714,-0.072576 0.4671367,-0.1340401 0.7097437,-0.1024749 0.569645,0.1503518 0.956314,0.6180457 1.321224,1.0491381 0.637594,0.840179 0.974883,1.8547449 1.296223,2.8467289 0.317125,1.017961 0.510955,2.061311 0.6213,3.119913 0.07213,0.708941 0.05713,1.421973 0.132554,2.130287 0.06485,0.914162 0.276424,1.803348 0.533853,2.679708 0.289917,0.955429 0.687557,1.864985 1.211463,2.713856 0.257685,0.393317 0.525555,0.794482 0.976906,0.971574 0.05178,0.0016 0.104784,0.01602 0.155335,0.0047 0.07621,-0.01706 0.285011,-0.126656 0.217116,-0.08806 -0.441041,0.250707 -0.856973,0.56418 -1.338043,0.725247 -0.224439,0.07514 0.37026,-0.295843 0.541987,-0.45872 0.690445,-0.65486 0.988844,-1.05234 1.636882,-1.811429 2.258568,-2.770844 4.132064,-5.818274 5.83343,-8.953835 0.178558,-0.356641 0.360649,-0.711535 0.535673,-1.069923 0.229382,-0.4696963 0.424147,-0.9068591 0.646607,-1.3740672 0.04793,-0.1006535 0.0533,-0.2404289 0.147394,-0.300212 2.01805,-1.2821544 1.925444,-1.4949917 1.63841,-0.3696534 -1.39946,2.6888526 -2.906975,5.3187856 -4.302182,8.0100016 -0.384202,0.789677 -0.809847,1.567145 -1.104234,2.397523 -0.06506,0.183516 -0.157066,0.457376 -0.141302,0.669502 0.0034,0.0463 0.03426,0.08631 0.0514,0.12946 0.155473,-0.01737 0.152034,-0.0048 0.322711,-0.104602 0.100982,-0.05905 0.395224,-0.248779 0.290025,-0.197612 -0.437231,0.212662 -0.832909,0.513937 -1.288653,0.683327 -0.168433,0.0626 0.272945,-0.233881 0.405583,-0.355108 0.141707,-0.129516 0.278185,-0.264639 0.417278,-0.396959 0.723926,-0.700117 1.4146,-1.432184 2.081423,-2.186478 0.320394,-0.381619 0.628077,-0.772875 0.964351,-1.140854 0.174862,-0.178071 0.334977,-0.371057 0.476643,-0.576448 0.0515,-0.08998 0.10845,-0.175909 0.159441,-0.266173 0,0 1.829642,-0.834355 1.829642,-0.834355 l 0,0 c -0.03877,0.102017 -0.07826,0.200619 -0.154083,0.282151 -0.112184,0.23754 -0.297352,0.431156 -0.466792,0.629677 -0.374173,0.348496 -0.68029,0.761183 -1.011134,1.149532 -0.685635,0.756981 -1.385352,1.500104 -2.114704,2.21548 -1.105593,1.08554 -0.964985,0.908602 -2.818217,2.024747 -0.343558,0.206914 -0.514304,0.28283 -0.838364,0.03853 -0.02354,-0.07225 -0.06539,-0.140945 -0.07062,-0.216755 -0.01685,-0.244476 0.09801,-0.545231 0.183663,-0.755661 0.350663,-0.861446 0.839913,-1.660151 1.261787,-2.486013 1.420973,-2.605106 2.916413,-5.180704 4.107628,-7.9018315 0.542855,-0.7360418 0.36047,-0.5651966 1.907388,-1.2371918 0.115794,-0.050302 -0.144343,0.2074776 -0.208199,0.3163859 -0.482757,0.8233656 -0.869543,1.7001175 -1.348278,2.5257344 -1.758095,3.099662 -3.628513,6.14006 -5.797917,8.972772 -0.660225,0.829084 -0.813135,1.063018 -1.488792,1.777776 -0.152577,0.161407 -0.290217,0.34461 -0.476119,0.466151 -0.658507,0.430529 -1.346483,0.816188 -2.043472,1.181144 -0.08275,0.04333 -0.184733,0.03752 -0.278089,0.03447 -0.06551,-0.0021 -0.126809,-0.03319 -0.190213,-0.04979 -0.451186,-0.246128 -0.735334,-0.664072 -0.99362,-1.098736 -0.503798,-0.877709 -0.903674,-1.803495 -1.210327,-2.768734 -0.270705,-0.879153 -0.498338,-1.770706 -0.588032,-2.688935 -0.09359,-0.71309 -0.05234,-1.431274 -0.108993,-2.147738 C 11.738565,13.090872 11.562947,12.054381 11.25364,11.044408 10.937258,10.07776 10.597193,9.0922003 9.9534439,8.2879354 9.612827,7.898173 9.231002,7.4479157 8.6775295,7.4064824 8.442046,7.4283711 8.2172979,7.5014741 7.9822344,7.5244994 7.7232704,7.5505742 7.4680714,7.5964868 7.2233076,7.6882817 7.0035876,7.7490674 6.794346,7.8367095 6.5817912,7.918148 6.5285774,7.9450281 5.9581974,8.262592 6.2514865,8.0902977 9.0674272,6.436058 8.1824526,6.9332332 7.6069611,7.3123865 7.4258271,7.4292426 7.272396,7.5785369 7.1167042,7.7235748 6.9806242,7.8946717 6.8073699,8.0339057 6.6661765,8.2018051 6.5116901,8.4109759 6.3347786,8.6019998 6.1799107,8.811582 6.0723036,8.9791282 5.9446036,9.1290415 5.8822459,9.323451 5.7679827,9.4883653 5.7077173,9.6884151 5.6104196,9.8638054 5.4968769,10.029854 5.4368307,10.23243 5.3616918,10.417737 c -0.094305,0.211952 -0.1213867,0.471449 -0.1340955,0.700234 0.00268,0.401546 0.013888,0.803625 0.065393,1.202382 0.036823,0.255241 0.072533,0.510046 0.1517634,0.756554 0.019319,0.06011 0.044415,0.118215 0.068175,0.176708 0.0095,0.02338 0.053021,0.05555 0.031556,0.06881 -0.5550198,0.343041 -1.1355532,0.642973 -1.7033299,0.96446 0.031141,-0.0076 0.069048,-0.0019 0.093422,-0.02276 0.088718,-0.07576 0.1637634,-0.29355 0.1974943,-0.379619 0.1506076,-0.384298 0.2914707,-0.773151 0.4164176,-1.166528 0.2711284,-0.763998 0.5335281,-1.53058 0.7913482,-2.299051 0.6060753,-0.356058 1.1909175,-0.7510163 1.818226,-1.0681735 0.039536,-0.019989 0.055069,0.073842 0.061894,0.1176154 0.015601,0.1000701 -0.2811938,0.6168451 -0.311968,0.7184391 -0.4134061,0.778482 -0.8225421,1.563355 -1.4268831,2.217118 -0.6997642,0.731383 -0.4964009,0.56504 -2.1502892,1.386565 -0.1127384,0.056 -0.2769329,-0.105152 -0.2620262,-0.213745 0.00876,-0.06384 0.2587197,-0.336836 0.2608234,-0.339292 0.7214896,-0.6816 1.5354127,-1.253474 2.3281947,-1.84792 0.3470232,-0.281855 0.5800223,-0.418874 0.7026166,-0.853773 0.041186,-0.261284 0.102903,-0.513356 0.072733,-0.781698 C 6.4307374,8.5667456 6.1694832,9.2649939 8.2078538,8.1912005 8.0972387,8.3017571 8.0755899,8.7601076 8.0568328,8.908453 c -0.078238,0.9039944 -0.2183185,1.800923 -0.341697,2.699498 -0.1278497,0.933961 -0.2600323,1.867012 -0.3451535,2.806114 -0.011017,0.121541 0.070745,0.293612 -0.028215,0.365031 -0.5675696,0.409613 -1.2340782,0.660852 -1.8511173,0.991278 0.016205,0.008 0.035985,0.03702 0.048615,0.02408 0.048864,-0.05008 0.1403955,-0.39626 0.1411673,-0.399008 0.1259427,-0.448445 0.2265001,-0.903439 0.3470647,-1.353296 0.1090714,-0.43888 0.1394994,-0.551182 0.2361047,-0.97619 0.024589,-0.108177 -0.019342,-0.260551 0.07082,-0.325188 0.571779,-0.409905 1.2171358,-0.706371 1.8356782,-1.041572 0.086002,-0.04661 -0.4086106,0.391539 -0.1363408,0.259861 -0.3256612,0.874142 -1.0785216,3.068563 -2.4816651,2.172782 -0.081845,-0.365074 -0.038517,-0.723876 -0.017409,-1.096068 0.035194,-0.620573 0.08725,-1.239534 0.1254492,-1.859908 0.060441,-1.102396 -0.090904,-0.474882 1.8125907,-1.5362715 0.051491,-0.028711 -0.060666,0.1018692 -0.08113,0.1571585 -0.041591,0.1123754 -0.072509,0.228479 -0.1043518,0.343996 -0.091336,0.331344 -0.2291761,0.911111 -0.30468,1.221333 -0.2030604,0.862634 -0.4063195,1.725511 -0.6204636,2.585478 -0.059287,0.238087 -0.1217531,0.475371 -0.1833004,0.712884 -0.042432,0.163747 -0.00293,0.377704 -0.1286369,0.490891 -0.5425067,0.488477 -1.2005271,0.83092 -1.8007907,1.24638 -0.038835,-0.04947 -0.093618,-0.08984 -0.1165048,-0.14842 -0.024383,-0.06241 0.030041,-0.345262 0.03438,-0.372421 0.060357,-0.377795 0.1341768,-0.753171 0.2445146,-1.120147 0.4276683,-1.335103 0.9972534,-2.615216 1.7335625,-3.811197 0.5128535,-0.801578 1.0126893,-1.6463034 1.7713579,-2.2435666 0,0 1.87031,-0.7317996 1.87031,-0.7317996 z"
     inkscape:connector-curvature="0" />
  <path
     style="fill:#ffffff;fill-opacity:1"
     id="path4146"
     d="m 20.919052,5.8796432 c -0.341835,-0.00842 -0.683848,-0.00549 -1.025756,-0.00446 -0.298383,-0.0039 -0.544242,-0.014348 -0.834806,0.057158 -0.03794,0.0078 -0.07733,0.010422 -0.113821,0.023402 -0.06498,0.023112 -0.12494,0.058603 -0.185782,0.091086 -0.03238,0.017285 -0.125039,0.076868 -0.09315,0.058696 1.580431,-0.9006715 2.14022,-1.2645072 1.481176,-0.8399363 -0.267964,0.1770696 -0.531122,0.3610844 -0.790732,0.5501339 -0.209414,0.1432641 -0.405166,0.3037023 -0.601302,0.4640263 -0.139858,0.1458029 -0.295687,0.2680133 -0.45552,0.389754 -0.611771,0.4586292 -1.267952,0.7183332 -1.957437,1.1663036 -0.528857,0.3436079 1.091302,-0.6325401 1.63892,-0.9453843 0.203279,-0.1161297 -0.138217,0.09001 -0.1621,0.1044862 -0.157985,0.1081779 -0.292391,0.2435579 -0.435646,0.3692552 -0.137601,0.1332284 -0.267157,0.2748718 -0.407752,0.4049921 -0.158029,0.1422215 -0.282404,0.3117855 -0.412825,0.4782118 -0.667891,1.02043 0.42721,0.1167845 -2.061538,1.3609425 -0.01466,-0.043997 -0.039,-0.085885 -0.04397,-0.1319924 -0.02412,-0.2236908 0.262026,-0.7664439 0.350729,-0.9813467 0.138572,-0.3153874 0.277785,-0.6361345 0.495603,-0.9058654 0.603088,-0.597012 1.381533,-0.8458523 2.117464,-1.3296617 0.526965,-0.3464333 -1.092561,0.6301958 -1.638841,0.9452937 0.636085,-0.4276833 0.564506,-0.3825973 1.90059,-1.0853681 0.557757,-0.2933765 -2.181533,1.2628642 -1.641938,0.9372869 0.595746,-0.3594577 1.203644,-0.6984772 1.810437,-1.0389552 0.339,-0.1902165 -0.123402,0.1248786 0.180244,-0.089749 0.03005,-0.014836 0.05911,-0.031853 0.09014,-0.044508 0.255385,-0.1041588 -0.04429,0.043884 0.180996,-0.090142 0.02886,-0.017172 0.119341,-0.061573 0.09028,-0.04474 -1.727292,1.0004956 -2.152132,1.3071598 -1.561188,0.8860503 0.603133,-0.348216 1.206122,-0.69668 1.809398,-1.044648 0.06618,-0.038171 0.272162,-0.1386036 0.206159,-0.1001327 -0.538475,0.313857 -2.150049,1.2610719 -1.623395,0.9277607 1.437406,-0.9097111 1.187589,-0.8065484 1.925747,-1.0923975 -4.295222,2.4618767 0.121269,-0.076471 0.183525,-0.1119562 0.546516,-0.3115013 -1.088466,0.6309768 -1.635498,0.9415695 -0.02933,0.016655 0.05277,-0.042429 0.08188,-0.059462 0.601492,-0.3518996 1.214493,-0.6843093 1.809494,-1.0470772 0.537883,-0.3279435 -1.09206,0.6283823 -1.63809,0.9425734 0.655398,-0.451411 1.358931,-0.7780074 2.046853,-1.2150142 0.53226,-0.3381221 -1.09137,0.6320156 -1.638972,0.9446807 -0.02883,0.01646 0.05494,-0.037283 0.0824,-0.055925 4.911665,-2.8029502 0.119495,-0.060174 0.176418,-0.095162 0.592878,-0.3644078 1.202991,-0.7000937 1.809382,-1.041543 0.0936,-0.052704 0.201557,-0.053801 0.297877,-0.1066845 0.201988,-0.070676 0.377298,-0.1761163 0.588812,-0.2216994 0.02992,-0.016172 0.05984,-0.032343 0.08977,-0.048514 0,0 -1.579467,1.2451658 -1.579467,1.2451658 l 0,0 c -0.03399,0.010308 -0.06799,0.020616 -0.101983,0.030924 -0.194316,0.074106 -0.379717,0.1691592 -0.575019,0.2414959 -0.08597,0.027919 -0.115817,0.034377 -0.197412,0.073788 -0.03041,0.014687 -0.118095,0.06554 -0.08889,0.048594 0.544433,-0.3158571 2.190003,-1.2414662 1.634589,-0.9453452 -0.26853,0.1431673 -4.300338,2.481234 -0.177146,0.093102 -0.676333,0.3694951 -0.477615,0.2598278 -1.885994,1.1010874 -0.540815,0.3230419 1.086859,-0.6372539 1.631655,-0.9535357 0.139707,-0.081107 -0.35919,0.2675251 -0.238862,0.1714456 -6.009489,3.507605 1.114491,-0.655352 -0.256894,0.1564768 -0.599371,0.3548141 -1.229026,0.662333 -1.800028,1.0612014 -0.05885,0.041112 4.723719,-2.7352781 -0.190398,0.1006691 -0.890565,0.4969014 3.974288,-2.2168262 1.520195,-0.8818275 -0.615063,0.3345874 -1.213558,0.698774 -1.821073,1.0468786 -0.06689,0.038329 -0.270155,0.1486428 -0.203613,0.1097077 0.54346,-0.3179904 1.088302,-0.6336138 1.632453,-0.9504207 -0.728591,0.462941 -1.470155,0.904634 -2.239829,1.2915515 -0.06189,0.026502 -0.240259,0.1212894 -0.182023,0.087511 0.544622,-0.3158931 2.194345,-1.2348657 1.635581,-0.9447196 -0.472464,0.245333 -4.119932,2.3827885 -0.177217,0.090635 0.02798,-0.016267 -0.05727,0.030166 -0.08591,0.04525 -0.600018,0.3512325 -1.197998,0.7059699 -1.800054,1.0536976 -0.545477,0.3150496 1.08606,-0.6385042 1.630314,-0.9556614 0.02801,-0.016322 -0.05634,0.032631 -0.08148,0.053096 -0.18626,0.1516223 0.04425,8.458e-4 -0.162412,0.1276244 -0.02974,0.022847 -0.05477,0.051244 -0.08215,0.076866 -0.28144,0.1970021 -0.396366,0.5483702 -0.556001,0.8393035 -0.08831,0.2194182 -0.183835,0.4361966 -0.266185,0.6579558 -0.02748,0.074012 -0.02923,0.1679117 -0.089,0.2194924 -0.0087,0.0075 -0.02202,-0.00652 -0.03303,-0.00979 -2.318528,1.2797473 -1.918248,1.4512488 -1.497105,0.5136917 0.115332,-0.1766016 0.240244,-0.3612908 0.400051,-0.4993993 0.118437,-0.1506569 0.270302,-0.2745246 0.406542,-0.4078487 0.119884,-0.1507188 0.275088,-0.277562 0.424581,-0.3965775 0.106976,-0.1057562 0.03017,-0.042979 0.157252,-0.1172321 0.600368,-0.3507835 1.201933,-0.6995569 1.799541,-1.0550209 0.541626,-0.3221647 -1.086805,0.6383234 -1.631588,0.9551206 -0.05595,0.032538 0.228531,-0.1385218 0.149587,-0.1238107 0.174562,-0.098915 0.327583,-0.2176889 0.471238,-0.356666 0.171891,-0.192091 0.39208,-0.3417864 0.601875,-0.4895032 0.253217,-0.2002713 0.522178,-0.3771061 0.785642,-0.5626391 0.744071,-0.5000717 1.488466,-1.0940422 2.376672,-1.2721649 0.281075,-0.040292 0.565935,-0.014035 0.848998,-0.020059 0.346006,0.00105 0.692106,0.00382 1.038044,-0.00446 0,0 -1.628281,1.1830152 -1.628281,1.1830152 z"
     inkscape:connector-curvature="0" />
  <path
     style="fill:#ffffff;fill-opacity:1"
     id="path4148"
     d="m 19.311837,5.6664274 c -0.04513,0.028228 -0.08963,0.057496 -0.135401,0.084683 -0.132916,0.078956 -0.537506,0.3057656 -0.403597,0.2285061 2.690493,-1.5522964 1.617133,-0.9566194 1.042383,-0.5664725 -0.349315,0.233905 -0.654971,0.5093015 -0.865154,0.8751182 -0.160442,0.2784541 -0.236451,0.5800332 -0.273848,0.8959557 -0.01828,0.170559 -0.02103,0.3421055 -0.02472,0.5134077 0,0 -1.780637,0.9029369 -1.780637,0.9029369 l 0,0 c 0.003,-0.1758358 0.0059,-0.3517096 0.0154,-0.5273522 0.02972,-0.3354973 0.07704,-0.6656405 0.24517,-0.9644052 0.186001,-0.4045083 0.473634,-0.7189293 0.84182,-0.9702851 0.917235,-0.6594158 1.914772,-1.2097369 2.92706,-1.7061723 0,0 -1.588474,1.2340793 -1.588474,1.2340793 z"
     inkscape:connector-curvature="0" />
  <path
     style="fill:#ffffff;fill-opacity:1"
     id="path4150"
     d="m 19.35481,4.5343085 c 0.111172,0.5034115 0.219347,1.0069775 0.300506,1.5163447 0.03823,0.284698 0.02151,0.1458957 0.05075,0.4163363 0,0 -1.765652,0.9199971 -1.765652,0.9199971 l 0,0 c -0.01987,-0.2673596 -0.0079,-0.1300358 -0.0365,-0.4119177 -0.06589,-0.503744 -0.162592,-1.0010606 -0.312492,-1.4871569 0,0 1.763387,-0.9536035 1.763387,-0.9536035 z"
     inkscape:connector-curvature="0" />
  <path
     style="fill:#ffffff;fill-opacity:1"
     id="path4152"
     d="m 19.996568,3.7375721 c -0.218471,0.5384776 -0.443681,1.0746986 -0.669734,1.6103223 -0.249814,0.5401121 -0.508991,1.0750343 -0.741373,1.6229749 -0.105301,0.2539502 -0.19456,0.5137598 -0.298003,0.7684649 0,0 -1.814794,0.8357919 -1.814794,0.8357919 l 0,0 C 16.58428,8.316182 16.69423,8.0583255 16.793066,7.7940099 17.032698,7.2477333 17.27187,6.7015545 17.541011,6.1686805 c 0.225064,-0.5191609 0.445662,-1.0439453 0.634832,-1.5760279 0,0 1.820725,-0.8550805 1.820725,-0.8550805 z"
     inkscape:connector-curvature="0" />
  <path
     style="fill:#ffffff;fill-opacity:1"
     id="path4154"
     d="m 16.074161,6.4350451 c -0.07373,0.3743635 -0.09824,0.7562761 -0.117106,1.136688 -0.002,0.055606 -0.004,0.111212 -0.006,0.166818 0,0 -1.782897,0.8998136 -1.782897,0.8998136 l 0,0 c 0.0023,-0.056768 0.0047,-0.1135362 0.007,-0.1703042 0.02075,-0.3838438 0.05486,-0.7665012 0.09113,-1.1491522 0,0 1.80788,-0.8838632 1.80788,-0.8838632 z"
     inkscape:connector-curvature="0" />
  <path
     style="fill:#ffffff;fill-opacity:1"
     id="path4156"
     d="m 9.4905817,3.9115655 c 0.4532297,0.1104771 0.9151883,0.1753463 1.3622273,0.311321 0.319045,0.080219 0.619627,0.1995587 0.913258,0.3447178 0.206064,0.1317807 0.426501,0.2414404 0.629036,0.3776577 0.16886,0.1102724 0.333304,0.2245673 0.508246,0.326167 0.179345,0.086029 0.352643,0.182682 0.530015,0.2738558 0.03002,0.011085 0.06135,0.019103 0.09004,0.033255 0.210205,0.1036633 -0.01905,0.014169 0.180762,0.1018946 0.09656,0.042392 0.193164,0.060272 0.288971,0.1063758 0.201316,0.061945 0.394566,0.1448285 0.596808,0.2044747 0.188815,0.099018 0.387337,0.1666031 0.557201,0.2982496 0.161103,0.114628 0.312171,0.2492491 0.445481,0.395835 0.02232,0.019396 0.04464,0.038793 0.06696,0.058189 0,0 -1.711437,1.0597077 -1.711437,1.0597077 l 0,0 C 13.923186,7.7795598 13.898213,7.7558539 13.873241,7.732148 13.742777,7.5999008 13.60439,7.4732216 13.449278,7.3703074 13.284876,7.268213 13.10506,7.1952962 12.926921,7.1209835 12.724168,7.0485102 12.518353,6.9852996 12.319586,6.9024984 12.122817,6.8307882 11.935951,6.7434405 11.749913,6.6472499 11.572146,6.5503377 11.389242,6.4635056 11.213093,6.3634269 11.042205,6.2547213 10.873222,6.1442943 10.704421,6.0326819 10.500383,5.9106595 10.301283,5.7808475 10.090559,5.6703214 9.8102973,5.5294325 9.5129766,5.4345208 9.2130215,5.3442271 8.7676855,5.2187898 8.3110659,5.1375372 7.8536727,5.0700256 c 0,0 1.636909,-1.1584601 1.636909,-1.1584601 z"
     inkscape:connector-curvature="0" />
  <path
     style="fill:#ffffff;fill-opacity:1"
     id="path4158"
     d="m 13.267054,4.3109444 c 0.246178,0.3328202 0.495277,0.6632822 0.740836,0.9964448 0.121795,0.1938765 0.067,0.095893 0.165468,0.2933496 0,0 -1.740131,0.9872021 -1.740131,0.9872021 l 0,0 C 12.351411,6.4101787 12.397971,6.4993794 12.29191,6.3211987 12.055632,5.9847916 11.817145,5.647788 11.540667,5.3427739 c 0,0 1.726387,-1.0318295 1.726387,-1.0318295 z"
     inkscape:connector-curvature="0" />
  <path
     style="fill:#ffffff;fill-opacity:1"
     id="path4160"
     d="m 8.7778303,4.4934748 c 0.033135,0.1629002 0.100229,0.3154809 0.160339,0.4695363 0,0 -1.743606,0.972044 -1.743606,0.972044 l 0,0 C 7.1330841,5.7787407 7.0648908,5.6247359 7.0158604,5.4638685 c 0,0 1.7619699,-0.9703937 1.7619699,-0.9703937 z"
     inkscape:connector-curvature="0" />
  <path
     style="fill:#ffffff;fill-opacity:1"
     id="path4162"
     d="M 8.8580674,4.2965024 C 8.4199699,4.5756914 8.0428328,4.9414602 7.6408523,5.2698654 7.3222264,5.5150901 7.0102613,5.7679726 6.702112,6.0261485 c 0,0 -1.8359367,0.7392896 -1.8359367,0.7392896 l 0,0 C 5.1845134,6.5101109 5.4915344,6.2412799 5.8227709,6.0019969 6.2136965,5.6804171 6.5927842,5.3449226 6.9797398,5.0211522 c 0,0 1.8783276,-0.7246498 1.8783276,-0.7246498 z"
     inkscape:connector-curvature="0" />
  <path
     style="fill:#ffffff;fill-opacity:1"
     id="path4164"
     d="M 7.4953235,5.0660839 C 7.1586053,5.0319572 6.8405144,5.1014855 6.523952,5.2059292 5.8699771,5.4190336 4.7356117,6.1211399 7.699555,4.4816829 7.7676991,4.4439901 7.5702704,4.5685744 7.5069651,4.6139263 7.4385313,4.6629524 7.3719285,4.7144853 7.3044102,4.7647648 6.8860894,5.1052433 6.4703261,5.4493986 6.059606,5.7991304 5.794749,6.0172246 5.5640922,6.2716676 5.3268052,6.518275 5.1737315,6.6915885 5.032275,6.876791 4.9181271,7.0780796 4.8001481,7.2487692 4.7355794,7.4475717 4.6592158,7.6388257 4.5941275,7.8748337 4.5325887,8.1131542 4.4828876,8.353151 c -0.049099,0.2620912 -0.057341,0.5291017 -0.063196,0.7949454 0.00772,0.2457499 -0.046744,0.4866942 -0.100399,0.7249105 -0.07363,0.2425741 -0.197343,0.4657491 -0.3119571,0.6906561 -0.1259818,0.227571 -0.2180483,0.476301 -0.3806359,0.681324 0,0 -1.8732162,0.741823 -1.8732162,0.741823 l 0,0 c 0.2487125,-0.08522 0.3089928,-0.393474 0.426758,-0.602166 0.1180916,-0.211995 0.226194,-0.431411 0.3206698,-0.654306 0.088746,-0.205601 0.1141631,-0.454733 0.1313759,-0.675485 0.00368,-0.2753217 0.00857,-0.5515366 0.047903,-0.8245619 C 2.7216572,8.9806707 2.7965136,8.7406534 2.8383629,8.4915152 2.900248,8.2837903 2.9901518,8.0837936 3.0771791,7.8863993 3.2180815,7.6964495 3.3120964,7.4717887 3.477699,7.2971161 3.7017066,7.0247377 3.969565,6.7863821 4.2239388,6.5428975 4.6341437,6.1898861 5.0588577,5.854455 5.466102,5.4979812 6.2633482,4.8699163 7.125256,4.2601854 8.108391,3.983791 8.4410177,3.8969202 8.7806104,3.8785177 9.1236044,3.8830686 c 0,0 -1.6282809,1.1830153 -1.6282809,1.1830153 z"
     inkscape:connector-curvature="0" />
  <path
     style="fill:#ffffff;fill-opacity:1"
     id="path4166"
     d="m 3.5897883,7.9409619 c -0.1229009,0.32659 -0.1831375,0.670868 -0.2238328,1.0159952 -0.040484,0.2572718 -0.1069713,0.5083399 -0.139442,0.7670586 -0.00322,0.2428288 -0.053463,0.4771623 -0.1013528,0.7137283 -0.046394,0.246207 -0.054178,0.497128 -0.060265,0.746895 -0.00293,0.252313 -0.018436,0.503767 0.028212,0.752718 0.051617,0.22613 0.065273,0.456945 0.1247219,0.681141 0.047447,0.196481 0.135041,0.380762 0.2258706,0.560441 0.1001171,0.183458 0.1702111,0.378552 0.251572,0.570296 0.073827,0.200363 0.1746147,0.387512 0.2376964,0.591879 0.068372,0.193188 0.1602552,0.375752 0.2362144,0.565627 0.094928,0.167892 0.1570771,0.351634 0.2729981,0.507016 0.1092069,0.179399 0.2251814,0.355249 0.3272625,0.539264 0.1121863,0.17786 0.2409018,0.339619 0.3932048,0.484305 0.1754397,0.131592 0.3552026,0.260986 0.5118396,0.415158 0.1622424,0.106363 0.3139647,0.227189 0.472634,0.339199 0.1745954,0.09143 0.3403348,0.20776 0.4825066,0.34488 0.1617804,0.101885 0.3103135,0.221753 0.466461,0.332261 0.1627374,0.129034 0.2862427,0.288623 0.4004604,0.460783 0.1157288,0.149775 0.2392526,0.289363 0.3792999,0.416877 0.1662249,0.175238 0.3427911,0.334467 0.5417024,0.47208 0.1850911,0.09475 0.3633845,0.210278 0.5153299,0.352944 0.1511078,0.123926 0.2851116,0.265518 0.4325857,0.394347 0.1634251,0.191103 0.368729,0.338001 0.5562579,0.502878 0.1591732,0.162988 0.2934132,0.349209 0.4564442,0.508032 0.119506,0.160763 0.236846,0.323352 0.354576,0.485767 0.108308,0.171748 0.205048,0.34904 0.302611,0.527174 0.100438,0.15806 0.235344,0.28647 0.355879,0.42793 0.13938,0.120984 0.24493,0.277412 0.407388,0.369266 0.165225,0.10796 0.306865,0.24438 0.461458,0.365826 0.168824,0.09783 0.331403,0.213613 0.471602,0.350127 0.165127,0.139622 0.350754,0.250423 0.511702,0.394923 0.185533,0.134259 0.321778,0.32508 0.455007,0.508736 0.145702,0.147649 0.261871,0.315761 0.386092,0.480283 0.104953,0.155272 0.22181,0.307046 0.35904,0.43543 0.131256,0.137088 0.257764,0.281468 0.401145,0.406392 0.163632,0.102363 0.324002,0.216026 0.462739,0.35112 0.16149,0.101958 0.310181,0.221382 0.466329,0.331596 0.136574,0.143449 0.318342,0.224254 0.467106,0.353405 0.145988,0.124125 0.297181,0.236774 0.461444,0.336519 0.147862,0.135162 0.332611,0.21231 0.485436,0.341488 0.150198,0.135873 0.285338,0.231721 0.485537,0.274311 0.02849,-0.0046 0.05698,-0.0092 0.08547,-0.01375 0,0 -1.635031,1.173534 -1.635031,1.173534 l 0,0 c -0.03652,-0.0083 -0.07303,-0.01669 -0.10955,-0.02504 -0.204909,-0.07405 -0.365908,-0.196566 -0.530109,-0.337162 -0.155914,-0.112194 -0.326615,-0.202277 -0.474798,-0.325395 -0.164235,-0.111043 -0.323388,-0.226107 -0.47383,-0.355326 C 14.381649,27.718514 14.213052,27.623003 14.073779,27.488941 13.916198,27.369013 13.747837,27.264214 13.595241,27.138274 13.4486,27.011409 13.287379,26.904297 13.132785,26.787621 12.99376,26.654005 12.859175,26.5155 12.727555,26.374671 12.590177,26.231641 12.461633,26.078633 12.353132,25.912447 12.23222,25.745278 12.106479,25.584518 11.969166,25.42981 11.842539,25.257914 11.712026,25.087113 11.537148,24.960923 11.368383,24.822683 11.183022,24.706333 11.019573,24.561482 10.873686,24.435615 10.713439,24.329535 10.5543,24.221364 10.40933,24.098026 10.262194,23.978054 10.103709,23.872112 9.9424276,23.751279 9.8106657,23.598965 9.6677507,23.457582 9.5343884,23.308373 9.3970567,23.162611 9.2905709,22.991894 9.1971279,22.821535 9.1054331,22.651524 9.0006792,22.487841 8.886727,22.334233 8.7797439,22.175406 8.6614314,22.02574 8.5102026,21.863603 8.374747,21.687686 8.2199842,21.52864 8.0289648,21.366572 7.8302875,21.212595 7.6589252,21.028705 7.5097926,20.901003 7.3759025,20.75693 7.2230568,20.633449 7.0665163,20.504439 6.89309,20.400521 6.7205992,20.294474 6.5243834,20.143103 6.3434538,19.977888 6.1665598,19.8049 6.015148,19.666867 5.8840016,19.510853 5.7604371,19.347635 5.6569932,19.195551 5.546398,19.055346 5.3959879,18.94622 5.2388056,18.82628 5.0711145,18.72122 4.9181512,18.596243 4.7718334,18.472044 4.6108178,18.368866 4.4471175,18.269155 4.2867352,18.146784 4.1153546,18.039168 3.9621669,17.908035 3.7992078,17.760224 3.6218802,17.629859 3.451505,17.490874 3.2866576,17.331504 3.1507657,17.149088 3.0287304,16.955174 2.9284809,16.778745 2.8136638,16.610576 2.7090367,16.437059 2.5891815,16.264188 2.5115885,16.071091 2.4127548,15.886236 2.3371019,15.690011 2.2398942,15.503232 2.168937,15.304777 2.1132227,15.106166 2.0102025,14.928517 1.9417104,14.734467 1.8602398,14.547446 1.7965885,14.35385 1.695788,14.175161 1.5989715,13.983515 1.5045739,13.78673 1.4518778,13.577958 c -0.063217,-0.228837 -0.08395,-0.461123 -0.1302619,-0.693711 -0.055014,-0.262689 -0.052818,-0.524902 -0.044789,-0.792782 0.00347,-0.258459 0.00718,-0.517793 0.042521,-0.774287 0.038424,-0.235169 0.1191783,-0.460314 0.1098545,-0.701408 0.02352,-0.262303 0.070309,-0.519566 0.147219,-0.7719218 0.03738,-0.3538765 0.09716,-0.7045375 0.1926426,-1.0478058 0,0 1.8207249,-0.8550805 1.8207249,-0.8550805 z"
     inkscape:connector-curvature="0" />
  <path
     style="fill:#ffffff;fill-opacity:1"
     id="path4168"
     d="m 5.1360512,13.902868 c 0.4633353,0.43254 0.8407707,0.939779 1.2103858,1.45205 0.4050277,0.562921 0.8526928,1.094903 1.313144,1.613171 0.4669168,0.486001 1.030186,0.86265 1.6051976,1.207316 0.3651548,0.208042 0.7455174,0.385068 1.1291894,0.555333 0,0 -1.6245268,1.076258 -1.6245268,1.076258 l 0,0 C 8.3869096,19.623932 8.0054915,19.43833 7.6360746,19.229537 7.0411135,18.874498 6.4419163,18.50142 5.9694988,17.987157 5.519655,17.454075 5.0819193,16.909434 4.6711672,16.345674 4.3060855,15.846741 3.9272388,15.352079 3.4329213,14.972649 c 0,0 1.7031299,-1.069781 1.7031299,-1.069781 z"
     inkscape:connector-curvature="0" />
  <path
     style="fill:#ffffff;fill-opacity:1"
     id="path4170"
     d="M 6.6975694,5.7847106 C 6.3706568,6.4361628 6.1179963,7.1243302 5.8900129,7.8157759 5.6411001,8.5705087 5.4452821,9.3413319 5.2753136,10.117244 c -0.059996,0.480271 -0.2240817,0.986884 -0.130114,1.472715 0.057898,0.103133 0.020055,0.06299 0.1084572,0.125023 0,0 -1.7104811,1.056099 -1.7104811,1.056099 l 0,0 C 3.4141359,12.630464 3.4690223,12.709271 3.3806155,12.533215 3.2749343,12.014415 3.4494586,11.481712 3.5154307,10.96747 3.6817251,10.180379 3.8883985,9.4010536 4.1442317,8.6381711 4.3570841,7.9537469 4.6020774,7.2796152 4.8661318,6.6133107 c 0,0 1.8314376,-0.8286001 1.8314376,-0.8286001 z"
     inkscape:connector-curvature="0" />
  <path
     style="fill:#ffffff;fill-opacity:1"
     id="path4172"
     d="m 9.0576729,4.2101726 c 0.3231328,0.8506706 0.75713,1.6520318 1.1842471,2.4534239 0.227895,0.4357282 0.473563,0.8616972 0.712959,1.2911106 0,0 -1.6850105,0.9651254 -1.6850105,0.9651254 l 0,0 C 9.0472106,8.4812034 8.8165144,8.0469521 8.5881737,7.6112517 8.1585966,6.8110472 7.7224531,6.0144795 7.3108293,5.2047978 c 0,0 1.7468436,-0.9946252 1.7468436,-0.9946252 z"
     inkscape:connector-curvature="0" />
  <path
     style="fill:#ffffff;fill-opacity:1"
     id="path4174"
     d="m 7.3009519,5.5312834 c 0.3582224,0.4396483 0.7724693,0.83259 1.1641543,1.2427914 0.3575949,0.367692 0.7001807,0.7496146 1.0548932,1.1198304 0,0 -1.6945849,1.0285546 -1.6945849,1.0285546 l 0,0 C 7.4885161,8.5398784 7.1538151,8.1555812 6.7940818,7.7937372 6.3916797,7.3793283 5.9726179,6.9815383 5.5745651,6.5631128 c 0,0 1.7263868,-1.0318294 1.7263868,-1.0318294 z"
     inkscape:connector-curvature="0" />
  <path
     style="fill:#ffffff;fill-opacity:1"
     id="path4176"
     d="m 6.5004439,6.4962117 c 0.42419,0.5894847 0.8964947,1.1439639 1.3723854,1.6921281 0.263207,0.2768322 0.5157183,0.5611868 0.8144468,0.8001918 0,0 -1.6868756,1.0512464 -1.6868756,1.0512464 l 0,0 C 6.7146584,9.7769977 6.467925,9.4793859 6.2088587,9.1907352 5.7359647,8.6339574 5.26046,8.0794954 4.7803931,7.5289282 c 0,0 1.7200508,-1.0327165 1.7200508,-1.0327165 z"
     inkscape:connector-curvature="0" />
  <path
     style="fill:#ffffff;fill-opacity:1"
     id="path4178"
     d="m 10.817884,4.8644503 c 0.251529,0.4226015 0.586783,0.7845644 0.93825,1.1248758 0.317763,0.3109504 0.685644,0.564189 1.054414,0.8100951 0.328483,0.1873225 0.67802,0.3386051 1.031822,0.4711753 0.52267,0.2262945 1.071296,0.3834836 1.604152,0.5835898 0.319388,0.104047 0.619494,0.2552899 0.931157,0.3790008 0,0 -1.657088,1.1052973 -1.657088,1.1052973 l 0,0 C 14.422788,9.2042083 14.131464,9.0541867 13.821554,8.9484817 13.279709,8.7484037 12.71989,8.6017506 12.185514,8.3819533 11.82612,8.2340395 11.465698,8.0819267 11.13846,7.8698089 10.76075,7.6170011 10.390223,7.3509821 10.072658,7.0232628 9.7118928,6.6652883 9.37836,6.2830691 9.0760419,5.8740137 c 0,0 1.7418421,-1.0095634 1.7418421,-1.0095634 z"
     inkscape:connector-curvature="0" />
  <path
     style="fill:#ffffff;fill-opacity:1"
     id="path4180"
     d="m 10.00818,4.5557016 c 0.280204,0.257362 0.58329,0.48496 0.86228,0.7442376 0.153968,0.1571164 0.312148,0.3088872 0.475444,0.4561941 0,0 -1.6856017,1.0450439 -1.6856017,1.0450439 l 0,0 C 9.495627,6.6529846 9.3361382,6.5000561 9.1753429,6.3476876 8.8923176,6.0865899 8.5909109,5.8492378 8.2910654,5.607951 c 0,0 1.7171146,-1.0522494 1.7171146,-1.0522494 z"
     inkscape:connector-curvature="0" />
  <path
     style="fill:#ffffff;fill-opacity:1"
     id="path4182"
     d="m 21.386032,3.8830686 c 0.313399,0.015479 0.622444,0.080074 0.935291,0.1106482 0.240322,0.075728 0.484488,0.1242447 0.735066,0.1468553 0.256568,0.076685 0.520407,0.115054 0.786572,0.1363452 0.268861,0.016821 0.538396,0.016405 0.807665,0.01679 0.280535,-0.026177 0.548722,0.027785 0.823129,0.074032 0.266522,0.043021 0.536584,0.052327 0.805975,0.058248 0.247701,-0.00813 0.479833,0.076004 0.673567,0.2266637 0.1791,0.1081809 0.295747,0.273924 0.420909,0.4351604 0.11941,0.1599226 0.22799,0.3257373 0.331194,0.4969672 0.09367,0.180324 0.185937,0.3608096 0.280921,0.5405966 0.08493,0.1835803 0.176676,0.3638091 0.270867,0.5429717 0.08477,0.1834982 0.176755,0.3634722 0.271015,0.5424396 0.09502,0.198342 0.227319,0.3704753 0.357285,0.5458786 0.143239,0.1481836 0.263826,0.3227771 0.35628,0.5069855 0.107814,0.1623353 0.169756,0.3485536 0.28645,0.5051689 0.122126,0.1647798 0.169579,0.3675355 0.282205,0.5378275 0.107078,0.1820163 0.191068,0.3800099 0.265337,0.5779506 0.07658,0.2400604 0.08427,0.4929514 0.132475,0.7390344 0.05968,0.27106 0.0844,0.547282 0.09882,0.823871 0.0064,0.236108 -0.05962,0.45858 -0.143829,0.675735 -0.07547,0.189829 -0.172534,0.370253 -0.265167,0.552122 -0.07983,0.184425 -0.187461,0.355749 -0.319877,0.506686 -0.0918,0.113305 -0.04642,0.05609 -0.136115,0.171661 0,0 -1.840648,0.805162 -1.840648,0.805162 l 0,0 c 0.07691,-0.133456 0.03452,-0.07176 0.125741,-0.186074 0.113132,-0.154478 0.257756,-0.282091 0.343229,-0.457688 0.06853,-0.18991 0.175195,-0.364145 0.27116,-0.540714 0.0662,-0.203624 0.169269,-0.38957 0.183893,-0.608876 -0.01035,-0.266955 -0.0277,-0.534344 -0.08475,-0.796112 -0.04982,-0.236212 -0.06794,-0.474799 -0.123387,-0.709449 -0.06628,-0.185241 -0.146895,-0.368834 -0.244964,-0.53882 C 27.96536,10.150844 27.908356,9.9579091 27.795055,9.7921364 27.677651,9.6229416 27.601902,9.4330716 27.493354,9.2586278 27.407356,9.0834872 27.285948,8.9265793 27.155813,8.7820384 27.019286,8.5986553 26.888806,8.4127214 26.781862,8.2099963 26.687608,8.0309629 26.595369,7.8509908 26.510774,7.6674201 26.416681,7.4883541 26.324744,7.3083101 26.240099,7.1248113 26.146961,6.9484455 26.056517,6.7714484 25.964736,6.5945649 25.86463,6.4299634 25.760272,6.2701026 25.644119,6.1164869 25.533348,5.9691025 25.418242,5.8304661 25.256292,5.7347552 25.070457,5.6258111 24.869372,5.5919642 24.654516,5.5989738 c -0.275054,-0.011245 -0.54998,-0.030714 -0.8212,-0.080332 -0.267358,-0.04415 -0.53357,-0.058194 -0.804734,-0.04759 -0.273142,-0.00212 -0.546791,-0.00461 -0.818812,-0.03214 -0.266378,-0.031586 -0.526688,-0.090205 -0.790295,-0.137591 -0.247032,-0.034542 -0.485417,-0.1018038 -0.729735,-0.1493627 -0.309556,-0.038005 -0.618686,-0.103376 -0.931988,-0.085874 0,0 1.62828,-1.1830153 1.62828,-1.1830153 z"
     inkscape:connector-curvature="0" />
  <path
     style="fill:#ffffff;fill-opacity:1"
     id="path4184"
     d="m 30.193208,12.10035 c 0.04448,0.347389 0.07994,0.695599 0.102581,1.045082 0.02543,0.282498 0.02284,0.560328 -0.02928,0.838887 -0.0461,0.207867 -0.139914,0.400028 -0.232566,0.590161 -0.07763,0.196279 -0.206267,0.363418 -0.326374,0.534678 -0.117323,0.181142 -0.246224,0.355897 -0.393995,0.513401 -0.136895,0.163118 -0.289426,0.310227 -0.462835,0.434042 -0.162359,0.137272 -0.336743,0.255566 -0.51019,0.377321 -0.62206,0.44409 -1.28491,0.730078 -1.96431,1.163747 -0.531388,0.339191 1.091074,-0.631884 1.638509,-0.944517 0.200796,-0.114672 -0.13768,0.08928 -0.162606,0.10436 -0.160551,0.109938 -0.296661,0.248158 -0.442828,0.37523 -0.159532,0.107014 -0.318468,0.216531 -0.459681,0.347229 -0.14364,0.125542 -0.284344,0.256236 -0.414636,0.39587 -0.148303,0.123564 -0.306408,0.236372 -0.461967,0.351354 -0.07128,0.06567 -0.144739,0.126477 -0.21323,0.195104 0,0 -1.864741,0.758053 -1.864741,0.758053 l 0,0 c 0.07907,-0.06004 0.13089,-0.136933 0.215318,-0.189907 0.126807,-0.144169 0.294747,-0.260611 0.461641,-0.352162 0.151679,-0.118086 0.27245,-0.273344 0.410599,-0.406019 0.157404,-0.114423 0.286118,-0.263284 0.451741,-0.368213 0.18145,-0.08328 0.284852,-0.250539 0.449126,-0.358432 0.106544,-0.105381 0.03083,-0.04364 0.157654,-0.117663 0.600656,-0.350605 1.202743,-0.6988 1.800478,-1.054361 0.541193,-0.321928 -1.086322,0.637198 -1.630847,0.953456 -0.05729,0.03327 0.234298,-0.14199 0.154282,-0.125296 0.185832,-0.103327 0.353851,-0.226556 0.521096,-0.35641 0.105818,-0.09503 0.237062,-0.155962 0.337926,-0.257423 0.0238,-0.02394 0.03893,-0.05551 0.06257,-0.07961 0.02241,-0.02285 0.04979,-0.04021 0.07468,-0.06032 0.128806,-0.168447 0.289995,-0.309518 0.408493,-0.487525 0.09859,-0.179698 0.233838,-0.329241 0.337221,-0.504654 0.06903,-0.192131 0.178677,-0.363631 0.25291,-0.554338 0.05401,-0.266921 0.09755,-0.524496 0.06122,-0.799325 -0.01594,-0.341093 -0.03865,-0.683225 -0.105657,-1.018719 0,0 1.777706,-0.943084 1.777706,-0.943084 z"
     inkscape:connector-curvature="0" />
  <path
     style="fill:#ffffff;fill-opacity:1"
     id="path4186"
     d="m 17.836873,8.4689434 c -0.14622,0.822449 -0.110432,1.6643066 -0.104486,2.4957706 0.01626,1.307567 0.100156,2.613167 0.158203,3.919328 0.03147,0.797377 0.06024,1.594829 0.07122,2.392773 0.0055,0.542959 0.0043,1.085957 0.0038,1.628935 0.0017,0.326616 6.12e-4,0.166966 0.0033,0.478951 0,0 -1.767647,0.900509 -1.767647,0.900509 l 0,0 c 0.0031,-0.314662 0.0017,-0.153773 0.004,-0.482665 4.15e-4,-0.543711 0.0012,-1.087421 0.0031,-1.631129 0.0025,-0.805021 0.0073,-1.610189 -0.01488,-2.415015 -0.03533,-1.310329 -0.109718,-2.618839 -0.145428,-3.929061 -0.02852,-0.8245 -0.08519,-1.650332 -0.01906,-2.4745334 0,0 1.80788,-0.8838632 1.80788,-0.8838632 z"
     inkscape:connector-curvature="0" />
  <path
     style="fill:#ffffff;fill-opacity:1"
     id="path4188"
     d="m 22.139343,8.0208764 c -0.418373,1.405168 -0.661036,2.8519896 -0.911228,4.2939686 -0.16557,1.066106 -0.09136,0.550709 -0.224916,1.545858 0,0 -1.682041,0.826335 -1.682041,0.826335 l 0,0 c 0.161161,-1.009369 0.0768,-0.48754 0.253528,-1.565417 0.248706,-1.415723 0.488673,-2.832668 0.764926,-4.2433003 0,0 1.799731,-0.8574443 1.799731,-0.8574443 z"
     inkscape:connector-curvature="0" />
  <path
     style="fill:#ffffff;fill-opacity:1"
     id="path4190"
     d="m 29.235632,11.030281 c -0.01321,0.430958 -0.0138,0.862277 -0.01652,1.29342 -0.0048,0.524443 0.0016,1.048861 0.0034,1.57329 0.0025,0.356854 0.0061,0.713698 0.008,1.070556 0.0186,0.330471 -0.04148,0.656272 -0.07945,0.983142 -0.04928,0.268482 -0.099,0.540414 -0.185491,0.799907 -0.06299,0.218664 -0.160313,0.421215 -0.300945,0.59999 -0.124997,0.177249 -0.290419,0.307772 -0.460496,0.437179 -0.614906,0.457443 -1.26842,0.721723 -1.962342,1.166984 -0.530561,0.340438 1.091052,-0.631822 1.638431,-0.944503 -0.108605,0.0733 -0.05423,0.03869 -0.16294,0.104084 -0.158331,0.107612 -0.292738,0.242908 -0.435981,0.368519 -0.141411,0.137386 -0.274887,0.283076 -0.420793,0.415772 -0.17408,0.134645 -0.345152,0.273613 -0.520053,0.407274 -1.107641,0.726545 -4.032563,2.36946 -0.495207,0.330284 -0.652494,0.455382 -1.357294,0.778982 -2.04565,1.215388 -0.532556,0.337631 1.091415,-0.631884 1.639003,-0.944547 0.02884,-0.01647 -0.05502,0.03722 -0.08253,0.05583 -0.626043,0.434911 -1.288342,0.731368 -1.963039,1.159618 -0.532353,0.337899 1.091338,-0.6319 1.638901,-0.94455 0.194224,-0.110899 -0.134898,0.0876 -0.162597,0.104371 -0.158017,0.10832 -0.292293,0.243991 -0.435512,0.369876 -0.151307,0.15787 -0.283977,0.334435 -0.392822,0.523989 -0.112338,0.167508 -0.217792,0.338756 -0.328607,0.507088 -0.08692,0.178208 -0.194405,0.342559 -0.303523,0.507402 -0.09717,0.178466 -0.212237,0.347202 -0.351321,0.495412 -0.163467,0.142809 -0.334325,0.277939 -0.504565,0.412881 -0.162999,0.155399 -0.333324,0.301911 -0.503684,0.449339 -0.271279,0.241583 -0.577546,0.437689 -0.868796,0.653261 -0.229587,0.160432 -0.445624,0.337945 -0.660978,0.516474 -0.13934,0.148295 -0.320958,0.243131 -0.476756,0.371281 -3.481935,2.031241 -1.380589,0.801433 -0.164835,0.106911 0.02871,-0.0164 -0.05415,0.03798 -0.08195,0.05589 -0.07997,0.05153 -0.154179,0.107053 -0.231627,0.162448 -0.150518,0.122824 -0.282858,0.264947 -0.427107,0.394527 -0.158268,0.109035 -0.317309,0.218352 -0.458614,0.349087 -0.160611,0.122552 -0.332734,0.22321 -0.477682,0.365686 -0.09538,0.116025 -0.04771,0.05944 -0.142886,0.169848 0,0 -1.846294,0.793627 -1.846294,0.793627 l 0,0 c 0.08544,-0.125506 0.0382,-0.06745 0.141088,-0.174688 0.113674,-0.175622 0.26634,-0.318572 0.458726,-0.402266 0.157386,-0.114231 0.286257,-0.26277 0.451433,-0.368021 0.180565,-0.08362 0.281206,-0.249998 0.438024,-0.366019 0.08615,-0.09768 0.191355,-0.179297 0.303307,-0.244701 0.05613,-0.03279 4.472574,-2.621424 0.167604,-0.09971 0.167281,-0.110704 0.31328,-0.250125 0.489625,-0.348731 0.192442,-0.211612 0.437255,-0.375086 0.667133,-0.543255 0.281638,-0.222239 0.585336,-0.411502 0.865264,-0.635736 0.164162,-0.150393 0.335414,-0.292104 0.498612,-0.440266 0.14412,-0.161636 0.328811,-0.289858 0.506214,-0.411651 0.14866,-0.129459 0.268295,-0.271766 0.374512,-0.437508 0.08108,-0.186035 0.234269,-0.322457 0.299219,-0.516685 0.09927,-0.179097 0.214845,-0.344726 0.327204,-0.514496 0.13367,-0.178727 0.222335,-0.38988 0.376528,-0.555827 0.119908,-0.15087 0.275102,-0.27784 0.424466,-0.397247 0.106025,-0.105053 0.03127,-0.04414 0.157518,-0.117817 0.600641,-0.350542 1.202978,-0.698228 1.800488,-1.054081 0.541227,-0.322333 -1.086875,0.637191 -1.631633,0.953518 -0.05647,0.03279 0.230617,-0.139254 0.151941,-0.123669 0.680295,-0.370581 0.404156,-0.219017 1.886345,-1.100669 0.541422,-0.322055 -1.086948,0.637168 -1.631726,0.953513 -0.14011,0.08136 0.359785,-0.267213 0.237983,-0.170299 0.600151,-0.351473 1.202748,-0.698803 1.800454,-1.054418 0.541158,-0.321972 -1.086292,0.637223 -1.630808,0.953484 -0.02802,0.01627 0.05604,-0.03302 0.08118,-0.05345 0.08031,-0.06526 0.156864,-0.126255 0.241959,-0.186775 0.202438,-0.09184 0.338854,-0.269199 0.53348,-0.374555 0.151131,-0.126179 0.281811,-0.265005 0.425766,-0.396976 0.119852,-0.150723 0.275075,-0.277634 0.424739,-0.396407 0.108161,-0.106364 0.02968,-0.04231 0.158064,-0.117199 0.600761,-0.350431 1.201559,-0.700807 1.800642,-1.054097 0.542438,-0.319885 -1.086282,0.637386 -1.630704,0.953882 -0.05704,0.03316 0.233521,-0.140675 0.153713,-0.124715 0.18263,-0.102729 0.344192,-0.224363 0.488031,-0.376755 0.12918,-0.169815 0.28128,-0.323394 0.327361,-0.541588 0.09332,-0.249908 0.150945,-0.506356 0.218002,-0.765346 0.03565,-0.319499 0.09527,-0.637686 0.0839,-0.960025 0.0019,-0.359576 0.0055,-0.719138 0.008,-1.078709 0.0018,-0.52559 0.0083,-1.051169 0.0034,-1.576773 -0.0027,-0.425529 -0.0032,-0.851246 -0.01652,-1.276582 0,0 1.793298,-0.913731 1.793298,-0.913731 z"
     inkscape:connector-curvature="0" />
  <path
     style="fill:#ffffff;fill-opacity:1"
     id="path4192"
     d="m 16.213112,28.1234 c 0.202622,-0.390555 0.376604,-0.797525 0.513735,-1.215792 0.08802,-0.26944 0.187701,-0.53397 0.297862,-0.794903 0.07264,-0.190588 0.178694,-0.365879 0.313071,-0.51886 0.07714,-0.09802 0.04025,-0.04593 0.109869,-0.156828 0,0 1.847591,-0.79882 1.847591,-0.79882 l 0,0 c -0.08312,0.09699 -0.04684,0.04253 -0.106082,0.165192 -0.114489,0.155245 -0.261894,0.282296 -0.342276,0.463287 -0.0936,0.269606 -0.231446,0.521963 -0.322334,0.79375 -0.132111,0.426291 -0.325355,0.826516 -0.470853,1.247201 0,0 -1.840583,0.815773 -1.840583,0.815773 z"
     inkscape:connector-curvature="0" />
  <path
     style="fill:#ffffff;fill-opacity:1"
     id="path4194"
     d="m 17.569044,26.903061 c 0.164937,-0.268154 0.318981,-0.541611 0.459348,-0.823364 0.104628,-0.236964 0.209702,-0.471519 0.289827,-0.717957 0.130112,-0.361973 0.280673,-0.714079 0.445986,-1.061189 0.112275,-0.215634 0.05617,-0.112088 0.16771,-0.31097 0,0 1.824246,-0.813582 1.824246,-0.813582 l 0,0 c -0.114833,0.199013 -0.05449,0.09852 -0.181457,0.301208 -0.161471,0.339287 -0.32457,0.675855 -0.439299,1.034355 -0.04465,0.11873 -0.06945,0.241911 -0.117042,0.359471 -0.1389,0.343118 0.03517,-0.111877 -0.116931,0.234071 -0.02089,0.04751 -0.03513,0.09767 -0.0527,0.146508 -0.130271,0.288019 -0.289375,0.559159 -0.439104,0.835676 0,0 -1.840583,0.815773 -1.840583,0.815773 z"
     inkscape:connector-curvature="0" />
  <path
     style="fill:#ffffff;fill-opacity:1"
     id="path4196"
     d="m 17.408436,27.478194 c 0.02699,-0.385501 0.09791,-0.758844 0.223951,-1.123635 0.292526,-0.748703 0.758343,-1.403607 1.224273,-2.05165 0.08747,-0.12273 0.174934,-0.24546 0.262401,-0.36819 0,0 1.774908,-0.769067 1.774908,-0.769067 l 0,0 c -0.09014,0.124162 -0.180269,0.248323 -0.270404,0.372485 -0.456003,0.623105 -0.903434,1.254647 -1.191282,1.976505 -0.128564,0.340866 -0.212766,0.68412 -0.230549,1.049821 0,0 -1.793298,0.913731 -1.793298,0.913731 z"
     inkscape:connector-curvature="0" />
  <path
     style="fill:#ffffff;fill-opacity:1"
     id="path4198"
     d="m 18.797865,25.25462 c 0.277496,-0.573912 0.692652,-1.057849 1.134381,-1.510441 0.549825,-0.492263 1.119392,-0.961431 1.667988,-1.455279 0.411007,-0.365671 0.817366,-0.734904 1.194593,-1.135688 0.276947,-0.288557 0.515932,-0.608017 0.744629,-0.935029 0,0 1.803022,-0.786683 1.803022,-0.786683 l 0,0 c -0.222102,0.334341 -0.45219,0.66393 -0.727473,0.957661 -0.368127,0.418696 -0.777933,0.794101 -1.198802,1.158834 -0.549484,0.493211 -1.110666,0.972564 -1.675636,1.447893 -0.436291,0.419743 -0.850738,0.871561 -1.119083,1.420727 0,0 -1.823619,0.838005 -1.823619,0.838005 z"
     inkscape:connector-curvature="0" />
  <path
     style="fill:#ffffff;fill-opacity:1"
     id="path4200"
     d="m 23.026567,20.233226 c 0.654955,-0.381343 1.264453,-0.823518 1.827385,-1.329985 0.518139,-0.476623 1.016492,-0.977493 1.429733,-1.548697 0.25949,-0.356711 0.419761,-0.767034 0.572916,-1.176833 0,0 1.800089,-0.837911 1.800089,-0.837911 l 0,0 c -0.156642,0.423727 -0.318312,0.851696 -0.569146,1.230167 -0.404008,0.598667 -0.91094,1.111886 -1.442076,1.599721 -0.535121,0.505275 -1.11021,0.961849 -1.748591,1.331738 0,0 -1.87031,0.7318 -1.87031,0.7318 z"
     inkscape:connector-curvature="0" />
  <path
     style="fill:#ffffff;fill-opacity:1"
     id="path4202"
     d="m 22.890974,21.453565 c 0.461983,-0.329031 0.865213,-0.735442 1.226111,-1.171091 0.344168,-0.447014 0.588264,-0.954645 0.796154,-1.475913 0.13193,-0.360369 0.230521,-0.729928 0.326139,-1.100879 0.01289,-0.0417 0.02578,-0.0834 0.03867,-0.125095 0,0 1.814571,-0.853647 1.814571,-0.853647 l 0,0 c -0.01416,0.04127 -0.02833,0.08254 -0.04249,0.123812 -0.134811,0.365847 -0.193146,0.761199 -0.343918,1.123627 -0.199898,0.539571 -0.448999,1.06117 -0.779799,1.533993 -0.340039,0.448909 -0.744152,0.840295 -1.165126,1.213393 0,0 -1.87031,0.7318 -1.87031,0.7318 z"
     inkscape:connector-curvature="0" />
  <path
     style="fill:#ffffff;fill-opacity:1"
     id="path4204"
     d="m 23.690196,20.241856 c 0.435104,-0.34045 0.839389,-0.716958 1.210619,-1.125635 0.357883,-0.414119 0.645663,-0.878518 0.906881,-1.357279 0,0 1.817927,-0.80953 1.817927,-0.80953 l 0,0 c -0.290167,0.477454 -0.552254,0.974022 -0.915739,1.403842 -0.351707,0.413067 -0.741314,0.786456 -1.153142,1.139542 0,0 -1.866546,0.74906 -1.866546,0.74906 z"
     inkscape:connector-curvature="0" />
  <path
     style="fill:#ffffff;fill-opacity:1"
     id="path4206"
     d="m 23.948145,20.523852 c 0.300252,-0.278792 0.604502,-0.550767 0.891235,-0.843821 0.322989,-0.329642 0.64513,-0.657627 0.910675,-1.036134 0.154725,-0.23988 0.08181,-0.121121 0.219468,-0.355833 0,0 1.816715,-0.810825 1.816715,-0.810825 l 0,0 c -0.135422,0.248256 -0.0627,0.124276 -0.218985,0.371466 -0.251323,0.397122 -0.561432,0.739607 -0.896281,1.068525 -0.2761,0.291819 -0.562129,0.569827 -0.862244,0.835943 0,0 -1.860583,0.770679 -1.860583,0.770679 z"
     inkscape:connector-curvature="0" />
  <path
     style="fill:#ffffff;fill-opacity:1"
     id="path4208"
     d="m 22.321027,21.337411 c 0.499946,-0.48437 0.945715,-1.022479 1.390889,-1.556776 0.423645,-0.537839 0.780807,-1.125656 1.064353,-1.748328 0.152751,-0.285829 0.247699,-0.59446 0.364174,-0.894939 0.08511,-0.232618 0.1256,-0.477279 0.197274,-0.714342 0.158958,-0.457344 0.325293,-0.911649 0.500689,-1.362958 0.229423,-0.545501 0.45082,-1.093184 0.659898,-1.646662 0.132229,-0.27809 0.188927,-0.580414 0.280266,-0.871787 0.06442,-0.213243 0.102943,-0.431471 0.166567,-0.645075 0.06708,-0.231195 0.0796,-0.472249 0.08918,-0.711297 0,0 1.789539,-0.904787 1.789539,-0.904787 l 0,0 c -0.0057,0.251451 -0.0118,0.504728 -0.06386,0.75176 -0.05531,0.219473 -0.129003,0.42992 -0.164191,0.654653 -0.101518,0.298365 -0.161502,0.60877 -0.298056,0.895582 -0.237201,0.543832 -0.432555,1.106275 -0.673293,1.649215 -0.170599,0.441942 -0.326501,0.888749 -0.476891,1.337574 -0.07811,0.238688 -0.124634,0.481095 -0.185006,0.723881 -0.122597,0.309457 -0.222736,0.627922 -0.390997,0.918138 -0.285577,0.641245 -0.64906,1.24542 -1.06892,1.808014 -0.431461,0.522893 -0.870716,1.041134 -1.32103,1.547456 0,0 -1.860582,0.770678 -1.860582,0.770678 z"
     inkscape:connector-curvature="0" />
  <path
     style="fill:#ffffff;fill-opacity:1"
     id="path4210"
     d="m 24.924789,17.776566 c 0.460661,-0.546758 0.870873,-1.127113 1.231014,-1.7443 0.276038,-0.533345 0.527118,-1.081163 0.676844,-1.664064 0.05579,-0.210436 0.02755,-0.109726 0.08405,-0.302311 0,0 1.810334,-0.855111 1.810334,-0.855111 l 0,0 c -0.06259,0.19309 -0.02926,0.09361 -0.1004,0.2983 -0.149849,0.608778 -0.42258,1.171517 -0.697888,1.732408 -0.339215,0.61249 -0.721844,1.195746 -1.165917,1.737926 0,0 -1.838039,0.797152 -1.838039,0.797152 z"
     inkscape:connector-curvature="0" />
  <path
     style="fill:#ffffff;fill-opacity:1"
     id="path4212"
     d="m 26.357588,12.969719 c 0.0126,-0.344936 0.0084,-0.690253 0.0068,-1.035348 0.0034,-0.291272 -0.01282,-0.583148 0.006,-0.873978 0.04371,-0.234286 0.08594,-0.467582 0.107043,-0.705177 0.03272,-0.262043 0.0053,-0.5115004 -0.09566,-0.7547839 C 26.258394,9.2976991 26.031905,9.0642372 25.821455,8.8219659 25.650122,8.6667654 25.45509,8.535227 25.252499,8.4232017 24.892945,8.2710877 24.525847,8.1389814 24.16376,7.9935507 23.908825,7.9092654 24.036546,7.947495 23.780682,7.8785772 c 0,0 1.642296,-1.1240094 1.642296,-1.1240094 l 0,0 c 0.262104,0.080764 0.130884,0.037385 0.393574,0.1303979 0.37255,0.1436532 0.746517,0.2844654 1.111729,0.4462007 0.222139,0.1242966 0.436352,0.2685556 0.609476,0.4571983 0.219409,0.2600746 0.443333,0.5200222 0.588951,0.8311826 0.119887,0.2673202 0.177066,0.5440776 0.145039,0.8380353 -0.01439,0.2409016 -0.03736,0.4816631 -0.101195,0.7153504 -0.05986,0.278629 -0.0063,0.571472 -0.02643,0.854602 -0.0016,0.342795 -0.006,0.685824 0.0068,1.028453 0,0 -1.793298,0.913731 -1.793298,0.913731 z"
     inkscape:connector-curvature="0" />
  <path
     style="fill:#ffffff;fill-opacity:1"
     id="path4214"
     d="m 26.637703,11.46326 c 0.106244,-0.370589 0.178586,-0.747931 0.225583,-1.130228 0.01849,-0.159264 0.02633,-0.319371 0.03384,-0.4794195 0,0 1.786408,-0.9000419 1.786408,-0.9000419 l 0,0 c -0.0073,0.165476 -0.01488,0.3310098 -0.03326,0.4957305 -0.04478,0.3803068 -0.106505,0.7596249 -0.204694,1.1300959 0,0 -1.80788,0.883863 -1.80788,0.883863 z"
     inkscape:connector-curvature="0" />
  <path
     style="fill:#ffffff;fill-opacity:1"
     id="path4216"
     d="M 25.662848,8.930254 C 25.558661,8.5988638 25.414709,8.2833681 25.288933,7.9603661 25.236125,7.7272436 25.103951,7.5306343 25.00165,7.3193898 24.944008,7.1139712 24.812541,6.9618964 24.653602,6.8262181 24.484665,6.7126488 24.3087,6.6150882 24.128059,6.5211697 23.943921,6.424829 23.769002,6.3454222 23.561729,6.3116115 23.33798,6.2722347 23.124068,6.2008 22.896354,6.1729199 c -0.255065,-0.024264 -0.511599,-0.0245 -0.767573,-0.025763 -0.270914,-4.643e-4 -0.541829,3.445e-4 -0.812743,7.318e-4 -0.271404,3.614e-4 -0.542808,4.292e-4 -0.814212,4.751e-4 -0.227753,0.068221 -0.461195,0.1017471 -0.697514,0.1201842 -0.134237,0.071019 -0.29174,0.069549 -0.432786,0.1128381 -0.06681,0.020505 -0.127441,0.057611 -0.19275,0.082485 -0.223866,0.03023 -0.409482,0.1506254 -0.612253,0.2393224 -0.72828,0.4188032 1.100077,-0.6326579 1.485248,-0.8519288 0.04903,-0.027909 -0.09684,0.057958 -0.143953,0.088991 -0.177833,0.1171442 -0.341295,0.2532075 -0.507259,0.386165 -0.326079,0.2678732 -0.643655,0.5471003 -0.93818,0.8495175 -0.185516,0.2011989 -0.376164,0.3981743 -0.545619,0.6132964 -0.09194,0.1295145 -0.04579,0.066909 -0.138169,0.1880163 0,0 -1.84242,0.8005736 -1.84242,0.8005736 l 0,0 c 0.08562,-0.1315322 0.03856,-0.06929 0.141012,-0.1868546 0.146758,-0.2434446 0.352332,-0.4408354 0.547758,-0.6447776 0.280748,-0.3233676 0.611946,-0.5987411 0.934488,-0.8791975 0.78614,-0.6489965 1.605429,-1.2298643 2.579114,-1.6129912 0.201731,-0.097583 0.41179,-0.161186 0.625097,-0.2276582 0.210411,-0.071802 0.433289,-0.1177124 0.652038,-0.1541951 0.236638,-0.030874 0.468582,-0.096112 0.707639,-0.1019279 0.271346,-8.34e-5 0.542692,-2.221e-4 0.814037,-6.529e-4 0.271425,-4.087e-4 0.542858,-0.00139 0.814277,8.411e-4 0.262693,0.00362 0.52647,0.00739 0.786756,0.046872 0.226865,0.040707 0.44559,0.1127138 0.673465,0.1483244 0.213536,0.056464 0.404951,0.1545865 0.60049,0.2555611 0.189081,0.1069508 0.382124,0.206675 0.550033,0.3467782 0.166501,0.1596532 0.326708,0.3307531 0.388671,0.5595146 0.102418,0.2177643 0.238569,0.4204553 0.286365,0.6612938 0.11856,0.3275217 0.251765,0.6505515 0.387407,0.9711059 0,0 -1.76197,0.9703937 -1.76197,0.9703937 z"
     inkscape:connector-curvature="0" />
  <path
     style="fill:#ffffff;fill-opacity:1"
     id="path4218"
     d="m 8.1208783,7.8441949 c 0.333936,0.084417 0.6779636,0.1257304 1.0047428,0.2394174 0.1373982,0.047801 0.4504804,0.1892285 0.5800585,0.246384 0.8199144,0.4029934 1.4848084,1.0085795 2.1046024,1.6672078 0.771645,0.8635799 1.424795,1.8215049 2.151679,2.7217779 0.502445,0.635525 1.0278,1.252444 1.578442,1.846619 0,0 -1.688222,1.021866 -1.688222,1.021866 l 0,0 C 13.321448,14.974888 12.824935,14.334408 12.32231,13.698806 11.608528,12.79559 10.950663,11.846936 10.173537,10.995696 9.5537328,10.36396 8.8909122,9.7810459 8.0718116,9.419308 7.5590228,9.208404 7.0349096,9.049733 6.479073,9.0018029 c 0,0 1.6418053,-1.157608 1.6418053,-1.157608 z"
     inkscape:connector-curvature="0" />
  <path
     style="fill:#ffffff;fill-opacity:1"
     id="path4220"
     d="m 10.593202,7.3790093 c 0.895185,0.5333477 1.727117,1.1578942 2.557437,1.7850254 1.139116,0.8400183 2.187625,1.7880113 3.244498,2.7263243 0.440023,0.41295 0.890608,0.81435 1.340989,1.215889 0,0 -1.632385,1.009535 -1.632385,1.009535 l 0,0 C 15.67006,13.70277 15.235285,13.290919 14.798437,12.881253 13.750798,11.940084 12.691415,11.011739 11.560247,10.170632 10.717989,9.5514119 9.8706308,8.9266386 8.9205441,8.4795585 c 0,0 1.6726579,-1.1005492 1.6726579,-1.1005492 z"
     inkscape:connector-curvature="0" />
  <path
     style="fill:#ffffff;fill-opacity:1"
     id="path4222"
     d="m 12.453494,8.5143342 c 0.617622,0.9039428 1.48125,1.6031688 2.308122,2.3066718 0.820987,0.686883 1.539475,1.478693 2.246796,2.278363 0.07521,0.08489 0.15041,0.169782 0.225615,0.254674 0,0 -1.678965,1.011072 -1.678965,1.011072 l 0,0 c -0.07184,-0.08689 -0.143677,-0.173778 -0.215515,-0.260667 -0.672081,-0.810396 -1.371825,-1.600544 -2.170925,-2.2898 -0.844105,-0.721582 -1.710541,-1.428322 -2.441515,-2.2684843 0,0 1.726387,-1.0318295 1.726387,-1.0318295 z"
     inkscape:connector-curvature="0" />
  <path
     style="fill:#ffffff;fill-opacity:1"
     id="path4224"
     d="m 13.804791,11.064176 c 0.641149,0.754597 1.316069,1.478507 2.003346,2.19101 0.401273,0.427431 0.831062,0.826088 1.260942,1.224121 0,0 -1.636392,1.007716 -1.636392,1.007716 l 0,0 c -0.416029,-0.411664 -0.832669,-0.822899 -1.233148,-1.249876 -0.693586,-0.716528 -1.384519,-1.438643 -2.111863,-2.120721 0,0 1.717115,-1.05225 1.717115,-1.05225 z"
     inkscape:connector-curvature="0" />
  <path
     style="fill:#ffffff;fill-opacity:1"
     id="path4226"
     d="m 13.293196,8.0607748 c 0.765023,0.3586601 1.545124,0.6864783 2.313443,1.0394278 0.748406,0.3394863 1.495396,0.7053296 2.155039,1.1999364 0.449921,0.395535 0.853572,0.840539 1.274587,1.266254 0.314989,0.318607 0.603563,0.66026 0.898327,0.997205 0.310141,0.331654 0.652645,0.630234 0.973912,0.950321 0.192846,0.178491 0.379935,0.364639 0.555208,0.560731 0.377678,0.374061 0.799964,0.697489 1.215232,1.027808 0.107966,0.07511 0.264585,0.208603 0.409056,0.233445 0.03605,0.0062 0.139072,-0.04208 0.106967,-0.02454 -0.559657,0.305723 -1.091419,0.679413 -1.693027,0.890958 -0.08836,0.03107 -0.02841,-0.186364 -0.06023,-0.274456 -0.06344,-0.17566 -0.149557,-0.342285 -0.224336,-0.513428 -0.670018,-1.281023 -1.458287,-2.500705 -2.406057,-3.59332 C 18.525023,11.527832 18.223185,11.21942 17.83,11.0733 c -0.03408,-0.01267 -0.301724,-0.08247 -0.335727,-0.09145 -0.358784,-0.04084 -0.708914,-0.129205 -1.065648,-0.182981 -0.269661,-0.03597 -0.542051,-0.03905 -0.813628,-0.04149 -0.307817,-0.02334 -0.607703,0.03507 -0.912295,0.06706 -0.353665,0.06671 -0.682938,0.02496 -1.021418,-0.07802 -0.429925,-0.253804 -0.889958,-0.444374 -1.361205,-0.60715 C 11.763331,9.9503682 11.142221,9.903112 10.65086,9.5608517 10.409351,9.3191394 10.319404,9.0783345 10.454481,8.7584091 c 0.09485,-0.1290195 0.204367,-0.2582634 0.345409,-0.3397825 1.118477,-0.646456 1.308784,-1.2497404 2.190312,-0.9879936 0.491627,0.2881438 0.920394,0.6768513 1.347075,1.0524317 0.260021,0.2241244 0.523151,0.44515 0.778122,0.6753143 0.215825,0.2021153 0.45215,0.3801297 0.679477,0.5690887 0.242916,0.213121 0.487133,0.4308663 0.765559,0.5964703 0.315568,0.185849 0.619389,0.394713 0.906449,0.621937 0.191631,0.15076 0.381826,0.299136 0.59005,0.42657 0.235952,0.183453 0.474501,0.357426 0.725924,0.519429 0.287118,0.165694 0.606528,0.262863 0.929726,0.328272 0.326552,0.05881 0.658553,0.06953 0.989464,0.07437 0.0457,-0.0082 0.09141,-0.0163 0.137115,-0.02445 0,0 -1.608296,1.192725 -1.608296,1.192725 l 0,0 c -0.05038,0.0013 -0.100765,0.0026 -0.151147,0.0039 -0.336949,-0.01292 -0.674315,-0.03747 -1.004365,-0.11078 -0.340748,-0.08203 -0.674969,-0.192009 -0.970776,-0.38531 -0.253285,-0.16205 -0.492335,-0.341911 -0.740025,-0.51174 C 16.160199,12.318797 15.965612,12.168926 15.775682,12.009942 15.492464,11.788022 15.195266,11.58382 14.882993,11.404715 14.604568,11.222261 14.350022,11.007887 14.098284,10.790536 13.866127,10.603593 13.636377,10.413853 13.416046,10.213007 13.15992,9.9868523 12.905435,9.7596035 12.656786,9.5252992 12.264276,9.1653034 11.858426,8.7663328 11.35315,8.5774476 c -0.04793,-0.00124 -0.09631,-0.010362 -0.143805,-0.00373 -0.04209,0.00588 -0.157205,0.062653 -0.120831,0.040676 0.520389,-0.3144084 1.051655,-0.6104718 1.575295,-0.9194342 0.158904,-0.093758 -0.525281,0.2753586 -0.372391,0.2590816 -0.206104,0.1861604 -0.143702,0.3493959 0.04119,0.5320921 0.476916,0.3142455 1.073951,0.3665294 1.60183,0.5605594 0.47638,0.1653969 0.944581,0.350449 1.399316,0.567418 0.319834,0.08337 0.639729,0.073799 0.965691,0.021536 0.312416,-0.04034 0.62346,-0.074706 0.939219,-0.053858 0.277168,0.0066 0.555021,0.018236 0.828408,0.068164 0.35806,0.067215 0.714569,0.1420651 1.073254,0.2051661 0.547964,0.1706774 0.957477,0.5332444 1.312182,0.9816024 0.90143,1.146032 1.672645,2.385744 2.424229,3.633593 0.09462,0.170336 0.196532,0.336819 0.283858,0.511006 0.05652,0.112735 0.239253,0.262506 0.147076,0.348569 -1.276238,1.191587 -1.408924,1.508316 -2.288866,0.815376 C 20.59389,15.803529 20.148118,15.48579 19.747863,15.11489 19.571557,14.924186 19.389021,14.739176 19.205534,14.555489 18.88981,14.227101 18.558522,13.913947 18.23706,13.591176 17.936957,13.264411 17.659941,12.917933 17.359627,12.59124 c -0.410572,-0.42482 -0.821433,-0.851624 -1.271442,-1.235301 -0.630353,-0.496498 -1.340823,-0.877426 -2.074622,-1.1985 -0.79363,-0.3521806 -1.598628,-0.6748112 -2.40172,-1.0037119 0,0 1.681356,-1.0929504 1.681356,-1.0929504 z"
     inkscape:connector-curvature="0" />
  <path
     style="fill:#ffffff;fill-opacity:1"
     id="path4228"
     d="m 16.129446,7.7945778 c 0.807826,0.5648007 1.672749,1.0369364 2.539895,1.5023407 0,0 -1.601652,1.0454195 -1.601652,1.0454195 l 0,0 C 16.19114,9.8540522 15.315915,9.3633796 14.438067,8.8775494 c 0,0 1.691379,-1.0829716 1.691379,-1.0829716 z"
     inkscape:connector-curvature="0" />
  <path
     style="fill:#ffffff;fill-opacity:1"
     id="path4230"
     d="m 16.793995,6.9253771 c 0.661095,0.3329948 1.325681,0.6598335 1.972327,1.0201735 0.774891,0.4848784 1.515801,1.0216536 2.265853,1.5435929 0.494801,0.3610662 0.99309,0.7188195 1.474802,1.0972225 0,0 -1.675134,1.05025 -1.675134,1.05025 l 0,0 C 20.37123,11.247849 19.893712,10.878206 19.404416,10.526276 18.661232,10.003965 17.913328,9.4866994 17.14467,9.0025898 16.495514,8.6439367 15.828005,8.3065628 15.12945,8.0547543 c 0,0 1.664545,-1.1293772 1.664545,-1.1293772 z"
     inkscape:connector-curvature="0" />
  <path
     style="fill:#ffffff;fill-opacity:1"
     id="path4232"
     d="m 18.033318,8.7125143 c 0.861349,0.3697287 1.726218,0.7315067 2.589505,1.0968932 0.41324,0.1769795 0.82432,0.3583745 1.239417,0.5309475 0,0 -1.622024,1.079807 -1.622024,1.079807 l 0,0 c -0.403852,-0.183119 -0.806132,-0.369709 -1.212263,-0.547768 -0.876234,-0.378984 -1.75686,-0.749061 -2.664709,-1.0469146 0,0 1.670074,-1.1129651 1.670074,-1.1129651 z"
     inkscape:connector-curvature="0" />
  <path
     style="fill:#ffffff;fill-opacity:1"
     id="path4234"
     d="m 19.228519,6.4540066 c 0.386356,0.4444472 0.834476,0.828791 1.271189,1.2220055 0.444079,0.4138301 0.907298,0.8065972 1.381589,1.1852346 0.321534,0.2680117 0.66336,0.5111083 1.019993,0.7298636 0,0 -1.66794,1.0729567 -1.66794,1.0729567 l 0,0 C 20.879482,10.430718 20.531028,10.187509 20.210377,9.9094375 19.739113,9.5225285 19.275084,9.1262182 18.829328,8.7100118 18.392993,8.30546 17.9496,7.9087389 17.511404,7.5062561 c 0,0 1.717115,-1.0522495 1.717115,-1.0522495 z"
     inkscape:connector-curvature="0" />
  <path
     style="fill:#ffffff;fill-opacity:1"
     id="path4236"
     d="m 19.956667,5.7243989 c 0.818086,0.2992615 1.569184,0.7296976 2.281408,1.2257653 0.677593,0.5130481 1.281721,1.1105974 1.882463,1.7087528 0,0 -1.683867,1.0268691 -1.683867,1.0268691 l 0,0 C 21.876239,9.0718 21.292277,8.4764361 20.617965,7.9848455 19.90011,7.5034098 19.143151,7.0719759 18.301382,6.8474931 c 0,0 1.655285,-1.1230942 1.655285,-1.1230942 z"
     inkscape:connector-curvature="0" />
  <path
     style="fill:#ffffff;fill-opacity:1"
     id="path4238"
     d="m 21.259976,5.5400161 c 0.611263,0.1762816 1.15605,0.521872 1.689379,0.8586455 0.419043,0.2787937 0.845654,0.5579411 1.212507,0.9054093 0.01046,0.00991 0.426552,0.4395527 0.444888,0.458477 0.182597,0.1798076 0.349224,0.3739389 0.526831,0.5584786 0,0 -1.697352,1.0310112 -1.697352,1.0310112 l 0,0 C 23.26787,9.1625716 23.107514,8.9660296 22.927977,8.7867423 22.443006,8.2781418 21.927893,7.8091491 21.316538,7.4521153 20.785565,7.1312871 20.236414,6.7917056 19.612621,6.6958123 c 0,0 1.647355,-1.1557962 1.647355,-1.1557962 z"
     inkscape:connector-curvature="0" />
  <path
     style="fill:#ffffff;fill-opacity:1"
     id="path4240"
     d="m 23.419931,5.5101873 c 0.420533,-0.00205 0.816187,0.1589924 1.187839,0.3404528 0.366042,0.1932344 0.731061,0.4135143 1.006324,0.7269079 0.164928,0.163384 0.285729,0.3585901 0.416032,0.547871 0,0 -1.735645,1.0180241 -1.735645,1.0180241 l 0,0 C 24.172927,7.959146 24.052916,7.7746171 23.901156,7.6122481 23.643348,7.3197924 23.301327,7.1145715 22.95377,6.9450857 22.584957,6.7803639 22.201117,6.6597007 21.79165,6.6932025 c 0,0 1.628281,-1.1830152 1.628281,-1.1830152 z"
     inkscape:connector-curvature="0" />
  <path
     style="fill:#ffffff;fill-opacity:1"
     id="path4242"
     d="m 22.090063,5.3867876 c 0.610878,0.6947467 1.277861,1.3363386 1.938553,1.9827863 0.448406,0.4574194 0.238328,0.2332137 0.632594,0.6704001 0,0 -1.663851,1.0036645 -1.663851,1.0036645 l 0,0 c -0.36814,-0.440186 -0.169926,-0.2145716 -0.597892,-0.6739753 -0.662342,-0.6562053 -1.333515,-1.304807 -2.022252,-1.933241 0,0 1.712848,-1.0496346 1.712848,-1.0496346 z"
     inkscape:connector-curvature="0" />
  <path
     style="fill:#ffffff;fill-opacity:1"
     id="path4244"
     d="m 8.9542133,9.416707 c 0.6641882,0.53022 1.3862787,0.979749 2.0920727,1.451155 0.415817,0.281728 0.847584,0.538418 1.268919,0.810931 0,0 -1.678318,1.074083 -1.678318,1.074083 l 0,0 c -0.405342,-0.28166 -0.8085574,-0.566002 -1.2147271,-0.84655 -0.7051915,-0.482281 -1.4271493,-0.94082 -2.1493032,-1.396669 0,0 1.6813566,-1.09295 1.6813566,-1.09295 z"
     inkscape:connector-curvature="0" />
  <path
     style="fill:#ffffff;fill-opacity:1"
     id="path4246"
     d="m 8.9660831,11.040026 c 0.5940163,0.302021 1.1859989,0.60804 1.7651559,0.937824 0.460378,0.274864 0.926165,0.544789 1.369898,0.846028 0,0 -1.676628,1.070054 -1.676628,1.070054 l 0,0 C 9.9916323,13.59178 9.5391629,13.317356 9.0862366,13.0466 8.5067398,12.710473 7.9140908,12.394722 7.2934255,12.140575 c 0,0 1.6726576,-1.100549 1.6726576,-1.100549 z"
     inkscape:connector-curvature="0" />
  <path
     style="fill:#ffffff;fill-opacity:1"
     id="path4248"
     d="m 9.2081361,12.377564 c 0.6239532,0.291962 1.2317049,0.616583 1.8521969,0.916132 0.590441,0.269564 1.150506,0.597502 1.71342,0.918655 0.05764,0.03858 0.115283,0.07716 0.172924,0.115736 0,0 -1.67686,1.071694 -1.67686,1.071694 l 0,0 c -0.05316,-0.03664 -0.106309,-0.07327 -0.159464,-0.109907 -0.543257,-0.33434 -1.094369,-0.656839 -1.6743374,-0.92458 -0.6297254,-0.30654 -1.2500026,-0.637576 -1.9071474,-0.882831 0,0 1.6792679,-1.104899 1.6792679,-1.104899 z"
     inkscape:connector-curvature="0" />
  <path
     style="fill:#ffffff;fill-opacity:1"
     id="path4250"
     d="m 8.7939948,13.705038 c 0.5552406,0.197414 1.109362,0.399998 1.6733222,0.571614 0.343602,0.128161 0.695535,0.230089 1.016691,0.409778 0.226965,0.144967 0.446952,0.29954 0.656689,0.468958 0.113431,0.07025 0.212042,0.158967 0.320427,0.236353 0,0 -1.694798,1.073422 -1.694798,1.073422 l 0,0 C 10.659831,16.383605 10.55594,16.298572 10.44504,16.222937 10.239075,16.066816 10.030935,15.91223 9.8059628,15.784239 9.4940307,15.626724 9.1663812,15.507249 8.8397332,15.383997 8.2717374,15.194168 7.7091197,14.987354 7.1294501,14.834415 c 0,0 1.6645447,-1.129377 1.6645447,-1.129377 z"
     inkscape:connector-curvature="0" />
  <path
     style="fill:#ffffff;fill-opacity:1"
     id="path4252"
     d="m 9.5012618,15.001288 c 0.5491182,0.441702 1.1431322,0.820351 1.7687232,1.143213 0.417269,0.206289 0.869239,0.320688 1.306953,0.470741 0.144198,0.04346 0.285692,0.07975 0.424822,0.137397 0,0 -1.664172,1.11843 -1.664172,1.11843 l 0,0 C 11.200565,17.823356 11.06137,17.783421 10.924363,17.735596 10.483603,17.58928 10.044895,17.43225 9.6329415,17.215177 9.0053624,16.867741 8.4097807,16.469697 7.810554,16.076159 c 0,0 1.6907078,-1.074871 1.6907078,-1.074871 z"
     inkscape:connector-curvature="0" />
  <path
     style="fill:#ffffff;fill-opacity:1"
     id="path4254"
     d="m 11.399567,15.136882 c 0.484435,0.357236 1.036049,0.611008 1.575808,0.872431 0,0 -1.634221,1.074974 -1.634221,1.074974 l 0,0 c -0.547506,-0.284191 -1.103287,-0.554743 -1.6322949,-0.872535 0,0 1.6907079,-1.07487 1.6907079,-1.07487 z"
     inkscape:connector-curvature="0" />
  <path
     style="fill:#ffffff;fill-opacity:1"
     id="path4256"
     d="m 9.2087069,14.200347 c 0.5532226,0.588936 1.2124821,1.060743 1.8615221,1.536369 0.115296,0.07835 0.230592,0.156701 0.345888,0.235052 0,0 -1.6385966,1.043545 -1.6385966,1.043545 l 0,0 C 9.6647347,16.933434 9.5519489,16.851554 9.4391632,16.769674 8.7809081,16.276475 8.1143867,15.793411 7.4958589,15.249982 c 0,0 1.712848,-1.049635 1.712848,-1.049635 z"
     inkscape:connector-curvature="0" />
  <path
     style="fill:#ffffff;fill-opacity:1"
     id="path4258"
     d="m 9.2197587,16.170141 c 0.740964,0.38652 1.4807023,0.775356 2.2237893,1.157841 1.026858,0.574345 2.105443,1.044243 3.173783,1.534074 0.572909,0.263951 1.15467,0.508398 1.735635,0.754071 0,0 -1.629861,1.082353 -1.629861,1.082353 l 0,0 C 14.161477,20.432257 13.596426,20.174208 13.032678,19.912543 11.959753,19.422436 10.878385,18.949009 9.844536,18.378728 9.0868355,17.99979 8.3348008,17.602576 7.5496842,17.283107 c 0,0 1.6700745,-1.112966 1.6700745,-1.112966 z"
     inkscape:connector-curvature="0" />
  <path
     style="fill:#ffffff;fill-opacity:1"
     id="path4260"
     d="m 10.835255,15.631802 c 1.39313,0.672426 2.879539,1.132633 4.348967,1.606008 0.296258,0.08959 0.592517,0.179177 0.888775,0.268765 0,0 -1.515162,1.031606 -1.515162,1.031606 l 0,0 c -0.28913,-0.09507 -0.578261,-0.190148 -0.867391,-0.285222 -1.514183,-0.496531 -3.039692,-0.963341 -4.5344572,-1.516259 0,0 1.6792682,-1.104898 1.6792682,-1.104898 z"
     inkscape:connector-curvature="0" />
  <path
     style="fill:#ffffff;fill-opacity:1"
     id="path4262"
     d="m 12.661149,16.16241 c 1.612865,0.596568 3.281437,0.989839 4.964741,1.325335 0,0 -1.502993,1.044732 -1.502993,1.044732 l 0,0 c -1.009109,-0.226998 -2.019788,-0.451694 -3.022276,-0.706763 -0.835281,-0.212527 -0.872581,-0.24679 -1.635265,-0.434815 -0.148453,-0.0366 -0.298431,-0.06671 -0.447647,-0.100061 0,0 1.64344,-1.128428 1.64344,-1.128428 z"
     inkscape:connector-curvature="0" />
  <path
     style="fill:#ffffff;fill-opacity:1"
     id="path4264"
     d="m 14.229167,15.139386 c 1.226353,0.150191 2.457342,0.255258 3.688994,0.349957 0,0 -1.451708,1.038838 -1.451708,1.038838 l 0,0 c -1.285325,-0.08669 -2.571549,-0.184316 -3.859841,-0.20994 0,0 1.622555,-1.178855 1.622555,-1.178855 z"
     inkscape:connector-curvature="0" />
  <path
     style="fill:#ffffff;fill-opacity:1"
     id="path4266"
     d="m 13.583785,14.809145 c 1.255326,0.41675 2.544266,0.727608 3.82944,1.037503 0,0 -1.467298,1.014737 -1.467298,1.014737 l 0,0 c -1.338607,-0.311861 -2.680749,-0.609979 -4.017426,-0.929146 0,0 1.655284,-1.123094 1.655284,-1.123094 z"
     inkscape:connector-curvature="0" />
  <path
     style="fill:#ffffff;fill-opacity:1"
     id="path4268"
     d="m 14.772459,15.329501 c 1.149022,0.392487 2.307041,0.755334 3.473668,1.091775 0.921139,0.241214 0.475528,0.130582 1.33625,0.334238 0,0 -1.561079,1.076201 -1.561079,1.076201 l 0,0 c -0.839758,-0.225979 -0.403176,-0.106217 -1.309447,-0.360378 -1.195513,-0.34636 -2.384832,-0.719438 -3.596223,-1.007147 0,0 1.656831,-1.134689 1.656831,-1.134689 z"
     inkscape:connector-curvature="0" />
  <path
     style="fill:#ffffff;fill-opacity:1"
     id="path4270"
     d="m 14.722431,14.805194 c 1.217685,0.322991 2.458068,0.551222 3.696177,0.779713 0,0 -1.519071,1.060142 -1.519071,1.060142 l 0,0 c -1.266846,-0.253946 -2.536285,-0.49416 -3.810437,-0.70886 0,0 1.633331,-1.130995 1.633331,-1.130995 z"
     inkscape:connector-curvature="0" />
  <path
     style="fill:#ffffff;fill-opacity:1"
     id="path4272"
     d="m 16.64027,14.45934 c 0.876626,0.03375 1.731623,0.27125 2.581458,0.471265 0.675223,0.17568 1.339374,0.38687 2.001741,0.604926 0,0 -1.612265,1.091014 -1.612265,1.091014 l 0,0 c -0.639856,-0.233971 -1.284283,-0.455472 -1.946942,-0.617505 -0.870122,-0.197032 -1.753334,-0.408837 -2.652273,-0.366685 0,0 1.628281,-1.183015 1.628281,-1.183015 z"
     inkscape:connector-curvature="0" />
  <path
     style="fill:#ffffff;fill-opacity:1"
     id="path4274"
     d="m 18.058362,15.622704 c 0.658589,0.246571 1.326629,0.461265 2.001171,0.659377 0,0 -1.563453,1.068932 -1.563453,1.068932 l 0,0 c -0.696536,-0.205327 -1.389398,-0.425126 -2.093003,-0.605215 0,0 1.655285,-1.123094 1.655285,-1.123094 z"
     inkscape:connector-curvature="0" />
  <path
     style="fill:#ffffff;fill-opacity:1"
     id="path4276"
     d="m 19.370266,15.738936 c 0.426625,0.143377 0.873471,0.20737 1.306632,0.32348 0.226902,0.06212 0.116394,0.03358 0.331382,0.08619 0,0 -1.646627,1.133108 -1.646627,1.133108 l 0,0 c -0.211244,-0.05891 -0.103312,-0.02846 -0.323772,-0.09144 -0.442516,-0.112892 -0.890676,-0.204206 -1.33216,-0.321956 0,0 1.664545,-1.129378 1.664545,-1.129378 z"
     inkscape:connector-curvature="0" />
  <path
     style="fill:#ffffff;fill-opacity:1"
     id="path4278"
     d="m 18.711284,13.59387 c 0.578011,0.289563 1.140815,0.607247 1.71167,0.910842 0,0 -1.61699,1.057907 -1.61699,1.057907 l 0,0 c -0.576431,-0.307849 -1.15144,-0.62637 -1.764754,-0.855784 0,0 1.670074,-1.112965 1.670074,-1.112965 z"
     inkscape:connector-curvature="0" />
  <path
     style="fill:#ffffff;fill-opacity:1"
     id="path4280"
     d="m 18.314821,12.831797 c 0.463215,0.366191 0.946483,0.710671 1.461806,1.000029 0,0 -1.661136,1.075931 -1.661136,1.075931 l 0,0 c -0.507727,-0.317629 -0.986135,-0.679616 -1.491378,-1.00109 0,0 1.690708,-1.07487 1.690708,-1.07487 z"
     inkscape:connector-curvature="0" />
  <path
     style="fill:#ffffff;fill-opacity:1"
     id="path4282"
     d="m 22.857654,9.1132336 c 0.325538,-0.067059 0.626689,-0.2051501 0.949806,-0.2816805 0.04884,-0.00852 0.09864,-0.012712 0.146523,-0.025573 0.08033,-0.021576 0.154984,-0.06101 0.234714,-0.084706 0.129868,-0.038596 0.261318,-0.049587 0.395487,-0.063503 0.195752,-0.00909 0.385184,-0.065057 0.577671,-0.099661 0,0 -1.597662,1.2064163 -1.597662,1.2064163 l 0,0 c -0.193587,0.037459 -0.387017,0.074655 -0.583618,0.093039 -0.258359,0.046487 -0.503527,0.1391222 -0.760751,0.1916016 -0.318479,0.09401 -0.631545,0.206078 -0.950644,0.298146 0,0 1.588474,-1.2340794 1.588474,-1.2340794 z"
     inkscape:connector-curvature="0" />
  <path
     style="fill:#ffffff;fill-opacity:1"
     id="path4284"
     d="m 25.190765,7.9830944 c 0.232479,0.3918229 0.463138,0.7847488 0.689992,1.1798391 0.215488,0.3736846 0.463789,0.7281129 0.724801,1.0712335 0.241548,0.287704 0.520394,0.532197 0.807756,0.77064 0.03232,0.03438 0.06464,0.06877 0.09697,0.103152 0,0 -1.712721,1.043305 -1.712721,1.043305 l 0,0 c -0.02745,-0.02865 -0.0549,-0.05731 -0.08235,-0.08596 -0.293207,-0.251552 -0.56414,-0.524911 -0.818577,-0.816118 -0.264096,-0.351668 -0.5201,-0.711485 -0.731048,-1.098119 -0.220496,-0.3967835 -0.452709,-0.7887343 -0.716658,-1.1584052 0,0 1.741842,-1.0095634 1.741842,-1.0095634 z"
     inkscape:connector-curvature="0" />
  <path
     style="fill:#ffffff;fill-opacity:1"
     id="path4286"
     d="m 26.028483,8.2822758 c 0.284299,0.4659483 0.610804,0.9042098 0.919519,1.3538519 0.192921,0.2421745 0.373685,0.4919003 0.558016,0.7398273 0.07738,0.116156 0.164898,0.220082 0.233647,0.342193 0,0 -1.74384,1.004117 -1.74384,1.004117 l 0,0 c -0.0645,-0.115018 -0.151306,-0.212266 -0.219997,-0.324661 -0.176519,-0.254936 -0.355716,-0.507288 -0.53585,-0.760129 -0.297428,-0.455559 -0.609417,-0.9022165 -0.936777,-1.3367486 0,0 1.725282,-1.0184506 1.725282,-1.0184506 z"
     inkscape:connector-curvature="0" />
  <path
     style="fill:#ffffff;fill-opacity:1"
     id="path4288"
     d="m 22.072121,8.932247 c 0.295289,0.5364421 0.696281,1.0063449 1.06315,1.49437 0.351314,0.475549 0.701303,0.950471 1.085959,1.399862 0.305213,0.365136 0.579355,0.754102 0.878643,1.123921 0.239909,0.288323 0.500052,0.55881 0.741706,0.84539 0.155056,0.163979 0.30585,0.329463 0.474946,0.479205 0.177744,0.12577 0.356392,0.254974 0.51183,0.408207 0.07962,0.05834 0.142254,0.132809 0.217499,0.196351 0,0 -1.709589,1.061995 -1.709589,1.061995 l 0,0 c -0.07341,-0.06769 -0.143676,-0.138619 -0.220351,-0.202696 -0.160339,-0.145049 -0.334915,-0.272698 -0.506776,-0.403586 -0.175453,-0.156163 -0.327607,-0.334382 -0.483317,-0.509792 -0.237344,-0.290795 -0.491761,-0.56665 -0.730499,-0.856302 -0.293888,-0.371607 -0.566877,-0.759181 -0.869429,-1.124034 -0.37738,-0.458695 -0.728173,-0.93714 -1.074412,-1.419585 -0.370138,-0.4975 -0.765084,-0.97614 -1.121202,-1.4837427 0,0 1.741842,-1.0095633 1.741842,-1.0095633 z"
     inkscape:connector-curvature="0" />
  <path
     style="fill:#ffffff;fill-opacity:1"
     id="path4290"
     d="m 23.320719,9.0407554 c 0.38007,0.4059899 0.808325,0.7625984 1.221925,1.1331096 0.329114,0.322072 0.686106,0.612741 1.008135,0.941906 0.189132,0.20786 0.353673,0.439065 0.552683,0.63755 0.12157,0.162106 0.240312,0.326558 0.35945,0.49077 0.117128,0.185578 0.254561,0.355068 0.387476,0.529014 0.128284,0.147194 0.273557,0.277927 0.403024,0.423795 0.09331,0.08708 0.185959,0.175387 0.27116,0.270614 0,0 -1.720546,1.044905 -1.720546,1.044905 l 0,0 c -0.08859,-0.09251 -0.180684,-0.181548 -0.271645,-0.271704 -0.13738,-0.14587 -0.281073,-0.285663 -0.410072,-0.439333 -0.134884,-0.174407 -0.265844,-0.350839 -0.391527,-0.531886 -0.115856,-0.156154 -0.224547,-0.317418 -0.34384,-0.470425 -0.187646,-0.207248 -0.352622,-0.433623 -0.535112,-0.645421 -0.316125,-0.326981 -0.666258,-0.617351 -0.985628,-0.941317 -0.408907,-0.376452 -0.82951,-0.740362 -1.246527,-1.107845 0,0 1.701044,-1.0637326 1.701044,-1.0637326 z"
     inkscape:connector-curvature="0" />
  <path
     style="fill:#ffffff;fill-opacity:1"
     id="path4292"
     d="m 25.202466,9.4879353 c 0.245929,0.4412147 0.524483,0.8641007 0.829397,1.2667787 0.181455,0.283144 0.423519,0.515569 0.641712,0.76794 0.171848,0.178806 0.351206,0.34925 0.544472,0.504519 0,0 -1.688988,1.056839 -1.688988,1.056839 l 0,0 c -0.196179,-0.167366 -0.385109,-0.342811 -0.566811,-0.525896 -0.230529,-0.249485 -0.45205,-0.50503 -0.634114,-0.793635 -0.298831,-0.411757 -0.568098,-0.843644 -0.858473,-1.261175 0,0 1.732805,-1.0153707 1.732805,-1.0153707 z"
     inkscape:connector-curvature="0" />
  <path
     style="fill:#ffffff;fill-opacity:1"
     id="path4294"
     d="m 21.267054,10.548233 c 0.315434,0.432587 0.700182,0.80455 1.078633,1.180188 0.246948,0.246626 0.530362,0.454538 0.768942,0.709097 0.290772,0.332848 0.589853,0.65814 0.895259,0.977587 0.325578,0.354263 0.69502,0.662817 1.05281,0.983249 0.381408,0.340077 0.752663,0.692017 1.140097,1.025289 0.110386,0.11077 0.229442,0.209709 0.338885,0.32128 0,0 -1.710993,1.045191 -1.710993,1.045191 l 0,0 c -0.104119,-0.108146 -0.214246,-0.20967 -0.318488,-0.317739 -0.37299,-0.348089 -0.744197,-0.697762 -1.131339,-1.030356 -0.362263,-0.322979 -0.736763,-0.633426 -1.061077,-0.996189 -0.306466,-0.319219 -0.609135,-0.641853 -0.909561,-0.966771 -0.247355,-0.242766 -0.516745,-0.462652 -0.751389,-0.718925 -0.374996,-0.391203 -0.754922,-0.777658 -1.118166,-1.180072 0,0 1.726387,-1.031829 1.726387,-1.031829 z"
     inkscape:connector-curvature="0" />
  <path
     style="fill:#ffffff;fill-opacity:1"
     id="path4296"
     d="m 9.8249468,17.045024 c 0.8303142,0.451365 1.6734852,0.877988 2.5165952,1.304831 0.644621,0.339414 1.287451,0.681091 1.898551,1.078187 0.507349,0.335529 1.020431,0.668776 1.491887,1.054136 0.388384,0.333765 0.805528,0.630088 1.212152,0.940727 0.333586,0.266831 0.684715,0.511728 1.042254,0.74501 0.242567,0.186371 0.522025,0.309973 0.796233,0.440886 0.222607,0.09259 0.445089,0.20339 0.643563,0.341386 0.182156,0.115237 0.352813,0.254969 0.501079,0.411812 0.09117,0.07759 0.04299,0.04408 0.143956,0.101371 0,0 -1.694312,1.085775 -1.694312,1.085775 l 0,0 c -0.118055,-0.08719 -0.06274,-0.04119 -0.16651,-0.137314 -0.144878,-0.141153 -0.301413,-0.271788 -0.474629,-0.376974 -0.201352,-0.121723 -0.412359,-0.227929 -0.626985,-0.324169 -0.276615,-0.142902 -0.560347,-0.274638 -0.808063,-0.466395 -0.346853,-0.248694 -0.693728,-0.497697 -1.02394,-0.768523 -0.41066,-0.311791 -0.836964,-0.602987 -1.227254,-0.941062 -0.457483,-0.386089 -0.95126,-0.727892 -1.457365,-1.046963 -0.608048,-0.381719 -1.235933,-0.729721 -1.862334,-1.080264 -0.84684,-0.44436 -1.6987065,-0.882012 -2.5708289,-1.274823 0,0 1.6659507,-1.087634 1.6659507,-1.087634 z"
     inkscape:connector-curvature="0" />
  <path
     style="fill:#ffffff;fill-opacity:1"
     id="path4298"
     d="m 13.807606,16.993353 c 0.507936,0.356857 0.996975,0.739028 1.506325,1.093948 0.580302,0.409365 1.154172,0.828392 1.742951,1.225558 0.536945,0.353212 1.074305,0.704205 1.638344,1.01292 0.457212,0.290855 0.9387,0.538687 1.414338,0.796884 0.298152,0.175455 0.616556,0.328105 0.943088,0.444351 0.207469,0.10361 0.418786,0.189136 0.616265,0.311934 0.214048,0.08177 0.402968,0.202985 0.595376,0.324473 0.121212,0.05588 0.06142,0.02218 0.178262,0.103054 0,0 -1.692782,1.087274 -1.692782,1.087274 l 0,0 c -0.111668,-0.06633 -0.05255,-0.03179 -0.177533,-0.103308 -0.187562,-0.123479 -0.388846,-0.216999 -0.589053,-0.317672 -0.194065,-0.104995 -0.394173,-0.196356 -0.593982,-0.289782 -0.323557,-0.13842 -0.643472,-0.291173 -0.94376,-0.474925 -0.470027,-0.26307 -0.9363,-0.532452 -1.399958,-0.806618 -0.564126,-0.315256 -1.094736,-0.682034 -1.635087,-1.035866 -0.588847,-0.398997 -1.166624,-0.813481 -1.744097,-1.228705 -0.509559,-0.35906 -1.002006,-0.748214 -1.549004,-1.049859 0,0 1.690307,-1.093661 1.690307,-1.093661 z"
     inkscape:connector-curvature="0" />
  <path
     style="fill:#ffffff;fill-opacity:1"
     id="path4300"
     d="m 17.620971,17.421696 c 0.597619,0.429094 1.226897,0.813975 1.858673,1.190538 0.60112,0.351471 1.220518,0.669908 1.820374,1.02356 0.411567,0.245474 0.826141,0.492373 1.271762,0.671296 0.257507,0.08132 0.507437,0.181789 0.752967,0.292673 0.130627,0.04275 0.242678,0.11899 0.372341,0.166032 0,0 -1.672302,1.117774 -1.672302,1.117774 l 0,0 c -0.125463,-0.05739 -0.24665,-0.123603 -0.375732,-0.173053 -0.240076,-0.111534 -0.490999,-0.198381 -0.735595,-0.29941 -0.438559,-0.204474 -0.85461,-0.453775 -1.268275,-0.703979 -0.592292,-0.357401 -1.202305,-0.683942 -1.794845,-1.040951 -0.639641,-0.3882 -1.275559,-0.782512 -1.920747,-1.161508 0,0 1.691379,-1.082972 1.691379,-1.082972 z"
     inkscape:connector-curvature="0" />
  <path
     style="fill:#ffffff;fill-opacity:1"
     id="path4302"
     d="m 19.24809,16.472544 c 0.603763,0.379885 1.224857,0.736974 1.855904,1.07038 0.461281,0.231804 0.887656,0.528156 1.34484,0.765958 0.291549,0.175879 0.605567,0.298258 0.88821,0.489294 0.233188,0.132141 0.479557,0.253274 0.733983,0.340047 0.191752,0.08822 0.374282,0.19883 0.572754,0.271218 0.166722,0.05191 0.320001,0.126343 0.49267,0.163177 0,0 -1.655487,1.139445 -1.655487,1.139445 l 0,0 c -0.17343,-0.05272 -0.338302,-0.126352 -0.509617,-0.185377 -0.189814,-0.08757 -0.375441,-0.184087 -0.566757,-0.2686 -0.257777,-0.109165 -0.514636,-0.2272 -0.749706,-0.379926 -0.282075,-0.175155 -0.590218,-0.301721 -0.869264,-0.482765 -0.44444,-0.250122 -0.868842,-0.535 -1.312316,-0.787175 -0.637346,-0.353804 -1.272879,-0.710605 -1.916593,-1.052705 0,0 1.691379,-1.082971 1.691379,-1.082971 z"
     inkscape:connector-curvature="0" />
  <path
     style="fill:#ffffff;fill-opacity:1"
     id="path4304"
     d="m 20.458085,14.987614 c 0.513149,0.473952 1.105505,0.842652 1.69022,1.219331 0.632718,0.406597 1.26571,0.813425 1.913971,1.195057 0.407445,0.197034 0.792825,0.442093 1.207039,0.624462 0.170934,0.05541 0.08569,0.02432 0.255575,0.09367 0,0 -1.664908,1.115308 -1.664908,1.115308 l 0,0 c -0.171354,-0.06725 -0.08458,-0.03173 -0.260215,-0.106847 -0.400268,-0.20869 -0.785202,-0.446982 -1.182241,-0.66189 -0.642715,-0.38904 -1.273371,-0.798128 -1.900916,-1.210983 -0.598889,-0.382885 -1.194501,-0.769117 -1.761655,-1.198324 0,0 1.70313,-1.069781 1.70313,-1.069781 z"
     inkscape:connector-curvature="0" />
  <path
     style="fill:#ffffff;fill-opacity:1"
     id="path4306"
     d="m 23.185126,14.871264 c 0.458772,0.412503 0.955213,0.77897 1.452277,1.143223 0.400592,0.275691 0.791841,0.564445 1.192676,0.839436 0.189225,0.102474 0.361942,0.231232 0.552057,0.332223 0,0 -1.682125,1.094947 -1.682125,1.094947 l 0,0 c -0.189242,-0.112249 -0.371412,-0.235046 -0.554673,-0.356712 -0.386498,-0.290251 -0.774393,-0.578557 -1.168564,-0.858483 -0.49872,-0.375494 -0.990573,-0.760061 -1.492692,-1.130901 0,0 1.701044,-1.063733 1.701044,-1.063733 z"
     inkscape:connector-curvature="0" />
  <path
     style="fill:#ffffff;fill-opacity:1"
     id="path4308"
     d="m 22.236708,17.526074 c 0.508601,0.279661 1.058303,0.46836 1.598037,0.676987 0.292971,0.09865 0.575439,0.224559 0.852839,0.359234 0.188253,0.07819 0.365989,0.178486 0.547312,0.271973 0.03193,0.02035 0.06386,0.04069 0.09579,0.06104 0,0 -1.687349,1.092266 -1.687349,1.092266 l 0,0 c -0.03071,-0.01705 -0.06141,-0.0341 -0.09212,-0.05115 -0.177298,-0.09632 -0.360027,-0.182759 -0.54224,-0.269247 -0.266013,-0.135728 -0.54276,-0.251085 -0.81957,-0.362598 -0.53884,-0.227055 -1.083911,-0.43869 -1.622777,-0.665542 0,0 1.670075,-1.112965 1.670075,-1.112965 z"
     inkscape:connector-curvature="0" />
  <path
     style="fill:#ffffff;fill-opacity:1"
     id="path4310"
     d="m 15.770894,17.272178 c 0.754779,0.344189 1.530493,0.648237 2.310448,0.931128 0.67725,0.26309 1.361865,0.506617 2.040271,0.766655 0.455607,0.171381 0.914546,0.333373 1.363855,0.520187 0.23615,0.08385 0.457189,0.210498 0.672573,0.338116 0.279804,0.175115 0.583841,0.285461 0.889503,0.404614 0.324113,0.08268 0.634238,0.210977 0.961313,0.28219 0.04329,0.0067 0.08658,0.01338 0.129866,0.02007 0,0 -1.643331,1.147669 -1.643331,1.147669 l 0,0 c -0.04523,-0.01004 -0.09046,-0.02008 -0.135697,-0.03012 -0.325436,-0.09125 -0.642181,-0.211987 -0.966078,-0.30841 -0.316142,-0.119439 -0.624817,-0.250723 -0.917024,-0.422132 -0.214321,-0.11576 -0.427025,-0.236649 -0.655141,-0.323805 -0.43413,-0.195011 -0.88063,-0.361785 -1.322688,-0.537761 -0.675896,-0.259107 -1.36046,-0.494995 -2.029575,-0.771781 -0.785553,-0.301534 -1.563257,-0.623609 -2.356376,-0.905798 0,0 1.658081,-1.110822 1.658081,-1.110822 z"
     inkscape:connector-curvature="0" />
  <path
     style="fill:#ffffff;fill-opacity:1"
     id="path4312"
     d="m 17.253869,18.518817 c 0.697616,0.441891 1.420919,0.845379 2.159313,1.214892 0.499338,0.261674 1.033438,0.451055 1.525229,0.727436 0.223565,0.130897 0.468244,0.226632 0.687624,0.363135 0.196234,0.108095 0.393358,0.217438 0.564648,0.362903 0.0275,0.01985 0.0566,0.03765 0.0825,0.05954 0.08782,0.07425 0.06471,0.07723 0.155046,0.138091 0.08023,0.05405 0.174565,0.07891 0.258733,0.127444 0.118876,0.05552 0.05814,0.03133 0.182168,0.07263 0,0 -1.669485,1.121105 -1.669485,1.121105 l 0,0 c -0.13515,-0.05898 -0.06967,-0.02788 -0.196621,-0.0929 -0.191521,-0.09473 -0.356264,-0.214122 -0.515112,-0.356905 -0.172312,-0.129356 -0.360715,-0.232665 -0.54891,-0.336856 -0.225538,-0.120039 -0.448802,-0.243994 -0.670131,-0.371722 -0.481269,-0.273258 -0.996759,-0.478822 -1.480268,-0.74799 -0.738059,-0.392824 -1.463648,-0.809154 -2.208147,-1.190146 0,0 1.673418,-1.09066 1.673418,-1.09066 z"
     inkscape:connector-curvature="0" />
  <path
     style="fill:#ffffff;fill-opacity:1"
     id="path4314"
     d="m 15.148744,19.476289 c 0.538492,0.0046 1.044902,0.224686 1.536712,0.42131 0.795257,0.321526 1.58335,0.662852 2.355091,1.037555 0.449909,0.240415 0.920424,0.455311 1.3329,0.75851 0.187042,0.132143 0.363915,0.284339 0.517047,0.454973 0.125867,0.136156 0.267659,0.246438 0.42501,0.344269 0.09056,0.09785 0.212585,0.146488 0.318282,0.22324 0,0 -1.696127,1.083484 -1.696127,1.083484 l 0,0 c -0.109193,-0.06906 -0.21854,-0.136984 -0.3171,-0.221172 -0.162933,-0.1147 -0.318099,-0.234644 -0.450472,-0.384855 -0.149487,-0.156112 -0.310373,-0.302633 -0.485089,-0.430087 -0.397595,-0.294203 -0.83816,-0.524704 -1.274845,-0.754437 -0.761704,-0.382448 -1.542987,-0.726316 -2.342013,-1.023503 -0.499667,-0.178205 -1.007725,-0.366143 -1.547677,-0.326272 0,0 1.628281,-1.183015 1.628281,-1.183015 z"
     inkscape:connector-curvature="0" />
  <path
     style="fill:#ffffff;fill-opacity:1"
     id="path4316"
     d="m 9.7724482,18.391119 c 0.6144018,0.493258 1.2232398,0.993792 1.8386348,1.48593 0.64662,0.500158 1.271453,1.026322 1.901362,1.546953 0.563418,0.516213 1.172267,0.968856 1.802216,1.399295 0.54092,0.336915 1.061002,0.700794 1.567062,1.08758 0.327092,0.220816 0.638703,0.463549 0.941054,0.717022 0.271725,0.271443 0.603,0.469376 0.899039,0.711053 0.145277,0.106137 0.07195,0.05943 0.218872,0.141859 0,0 -1.68539,1.086979 -1.68539,1.086979 l 0,0 C 17.100676,26.463437 17.176687,26.519079 17.027541,26.400488 16.73184,26.15758 16.413802,25.942797 16.128147,25.687436 15.828755,25.438661 15.53011,25.189089 15.2125,24.963577 14.714791,24.57669 14.198374,24.21769 13.671489,23.871582 13.041526,23.431667 12.42285,22.980983 11.856749,22.459086 11.235,21.934027 10.611605,21.411537 9.9755516,20.903718 9.3592924,20.40473 8.7417284,19.907044 8.0817404,19.465989 c 0,0 1.6907078,-1.07487 1.6907078,-1.07487 z"
     inkscape:connector-curvature="0" />
  <path
     style="fill:#ffffff;fill-opacity:1"
     id="path4318"
     d="m 12.348719,19.204678 c 0.681043,0.473454 1.403167,0.887695 2.127749,1.290677 0.665763,0.347412 1.316281,0.721598 1.950862,1.122876 0.563565,0.349893 1.136217,0.68138 1.66784,1.079341 0.431116,0.355046 0.867145,0.704498 1.318059,1.034013 0.203743,0.168978 0.380923,0.371396 0.542795,0.580448 0.112058,0.16976 0.206531,0.348355 0.303032,0.527244 0.06995,0.0928 0.03447,0.04327 0.10571,0.149119 0,0 -1.735858,1.018851 -1.735858,1.018851 l 0,0 c -0.07326,-0.107475 -0.03482,-0.05184 -0.115482,-0.166774 -0.0913,-0.168989 -0.179738,-0.338152 -0.285579,-0.498655 -0.152012,-0.194095 -0.307584,-0.389697 -0.497361,-0.548337 -0.432653,-0.347179 -0.860379,-0.700457 -1.295629,-1.0445 -0.530286,-0.389351 -1.096158,-0.721251 -1.653008,-1.070634 -0.631781,-0.392475 -1.272239,-0.770939 -1.92413,-1.129192 -0.735853,-0.418691 -1.467426,-0.844848 -2.199707,-1.269606 0,0 1.690707,-1.074871 1.690707,-1.074871 z"
     inkscape:connector-curvature="0" />
  <path
     style="fill:#ffffff;fill-opacity:1"
     id="path4320"
     d="m 11.252922,20.837366 c 0.61221,0.529856 1.279135,0.989672 1.906846,1.499874 0.696832,0.567708 1.4469,1.059769 2.203411,1.542605 0.574254,0.332728 1.122309,0.715698 1.712194,1.020822 0.232616,0.116098 0.428611,0.288553 0.651725,0.419136 0.1807,0.118548 0.333276,0.2704 0.500088,0.405871 0.11346,0.120513 0.239191,0.227618 0.349483,0.351163 0,0 -1.72061,1.044741 -1.72061,1.044741 l 0,0 c -0.108621,-0.11353 -0.223414,-0.220728 -0.335861,-0.330413 -0.154106,-0.135617 -0.3084,-0.270927 -0.481279,-0.38285 -0.211627,-0.13865 -0.411386,-0.294568 -0.630696,-0.421642 -0.564944,-0.339326 -1.099949,-0.727936 -1.667964,-1.062959 -0.76375,-0.485936 -1.525142,-0.978272 -2.223497,-1.556797 -0.631469,-0.518488 -1.295684,-0.997492 -1.9648835,-1.465818 0,0 1.7010435,-1.063733 1.7010435,-1.063733 z"
     inkscape:connector-curvature="0" />
  <path
     style="fill:#ffffff;fill-opacity:1"
     id="path4322"
     d="m 14.500444,23.987737 c 0.307739,0.451717 0.701418,0.835968 1.103286,1.202989 0.297738,0.269117 0.63342,0.487638 0.953529,0.726613 0.212145,0.164213 0.44582,0.29112 0.670545,0.434609 0.205917,0.08702 0.38781,0.209298 0.573819,0.330667 0.0268,0.02477 0.05361,0.04954 0.08041,0.0743 0,0 -1.708696,1.063586 -1.708696,1.063586 l 0,0 c -0.02214,-0.01778 -0.04429,-0.03555 -0.06643,-0.05333 -0.180486,-0.123978 -0.374821,-0.220445 -0.565073,-0.328 -0.232777,-0.140064 -0.459331,-0.287564 -0.67637,-0.451572 -0.322168,-0.241854 -0.640222,-0.487069 -0.936245,-0.761495 -0.406503,-0.379118 -0.797749,-0.773733 -1.148823,-1.205658 0,0 1.720051,-1.032717 1.720051,-1.032717 z"
     inkscape:connector-curvature="0" />
  <path
     style="fill:#ffffff;fill-opacity:1"
     id="path4324"
     d="m 16.932978,16.066452 c 0.05495,0.0049 0.217129,0.09469 0.258608,0.08243 0.0427,-0.01263 0.140209,-0.107988 0.100319,-0.0882 -0.651221,0.322987 -0.93159,0.58754 -0.585804,0.281103 0.155276,-0.145509 0.289165,-0.311257 0.42756,-0.472313 0.03583,-0.04415 0.07488,-0.08536 0.111933,-0.128449 0,0 0.929151,-0.384535 0.929151,-0.384535 l 0,0 c -0.04439,0.03742 -0.07534,0.0828 -0.119553,0.120647 -0.135948,0.172928 -0.291305,0.331794 -0.441984,0.491809 -0.368301,0.371928 -0.184039,0.205363 -1.092382,0.707046 -0.0451,0.02491 -0.09933,0.03276 -0.15084,0.03372 -0.07747,0.0014 -0.185413,-0.07291 -0.267847,-0.07389 0,0 0.830839,-0.569356 0.830839,-0.569356 z"
     inkscape:connector-curvature="0" />
  <path
     style="fill:#ffffff;fill-opacity:1"
     id="path4326"
     d="m 18.509701,13.346225 c 0.502678,0.637506 1.022545,1.260835 1.552679,1.875646 0.509488,0.577989 1.025103,1.150696 1.47848,1.774456 0,0 -0.815233,0.479686 -0.815233,0.479686 l 0,0 c -0.421582,-0.63889 -0.913622,-1.225479 -1.424736,-1.794536 -0.540317,-0.6107 -1.066707,-1.236924 -1.64548,-1.811742 0,0 0.85429,-0.52351 0.85429,-0.52351 z"
     inkscape:connector-curvature="0" />
  <path
     style="fill:#ffffff;fill-opacity:1"
     id="path4328"
     d="m 19.463062,15.638167 c 0.33869,0.705953 0.813307,1.336119 1.291816,1.951944 0,0 -0.803678,0.476943 -0.803678,0.476943 l 0,0 c -0.460916,-0.636907 -0.918186,-1.277081 -1.350845,-1.933588 0,0 0.862707,-0.495299 0.862707,-0.495299 z"
     inkscape:connector-curvature="0" />
  <path
     style="fill:#ffffff;fill-opacity:1"
     id="path4330"
     d="m 8.2022369,16.56978 c 0.3333563,0.616312 0.785033,1.152887 1.2393469,1.681701 0.1823911,0.200804 0.3662796,0.39984 0.5570308,0.592688 0,0 -0.8296473,0.504301 -0.8296473,0.504301 l 0,0 C 8.990996,19.145031 8.8187493,18.936897 8.6428697,18.731638 8.1933291,18.187995 7.7453746,17.643122 7.3364866,17.067719 c 0,0 0.8657503,-0.497939 0.8657503,-0.497939 z"
     inkscape:connector-curvature="0" />
</svg>
