<?xml version="1.0" encoding="UTF-8" standalone="no"?>
<!-- Created with Inkscape (http://www.inkscape.org/) -->

<svg
   xmlns:dc="http://purl.org/dc/elements/1.1/"
   xmlns:cc="http://creativecommons.org/ns#"
   xmlns:rdf="http://www.w3.org/1999/02/22-rdf-syntax-ns#"
   xmlns:svg="http://www.w3.org/2000/svg"
   xmlns="http://www.w3.org/2000/svg"
   xmlns:sodipodi="http://sodipodi.sourceforge.net/DTD/sodipodi-0.dtd"
   xmlns:inkscape="http://www.inkscape.org/namespaces/inkscape"
   id="svg2"
   version="1.1"
   inkscape:version="0.48.4 r9939"
   width="1813.5125"
   height="520.525"
   xml:space="preserve"
   sodipodi:docname="porrentruy-logo.svg"><metadata
     id="metadata8"><rdf:RDF><cc:Work
         rdf:about=""><dc:format>image/svg+xml</dc:format><dc:type
           rdf:resource="http://purl.org/dc/dcmitype/StillImage" /><dc:title></dc:title></cc:Work></rdf:RDF></metadata><defs
     id="defs6" /><sodipodi:namedview
     pagecolor="#ffffff"
     bordercolor="#666666"
     borderopacity="1"
     objecttolerance="10"
     gridtolerance="10"
     guidetolerance="10"
     inkscape:pageopacity="0"
     inkscape:pageshadow="2"
     inkscape:window-width="1080"
     inkscape:window-height="1896"
     id="namedview4"
     showgrid="false"
     inkscape:zoom="0.23766035"
     inkscape:cx="721.94599"
     inkscape:cy="428.56993"
     inkscape:window-x="0"
     inkscape:window-y="24"
     inkscape:window-maximized="1"
     inkscape:current-layer="g12" /><g
     id="g10"
     inkscape:groupmode="layer"
     inkscape:label="ink_ext_XXXXXX"
     transform="matrix(1.25,0,0,-1.25,0,520.525)"><g
       id="g12"
       transform="scale(0.1,0.1)"><path
         d="m 3395.48,3832.63 c 0,183.16 -148.52,331.6 -331.68,331.6 l -2732.14,0 C 148.477,4164.23 0,4015.79 0,3832.63 L 0,1735.86 c 0,-15.32 1.11328,-30.43 3.14453,-45.3 C 1.11328,1675.54 0,1660.25 0,1644.68 L 0,331.602 C 0,148.43 148.477,0 331.66,0 l 202.07,0 c 183.086,0 331.583,148.43 331.583,331.602 l 0,1335.528 c 0,28.18 -153.809,55.95 -160.723,82.71 2.558,3.83 155.547,84.26 157.949,88.16 0,0 517.831,755.02 832.121,1260.04 C 2008.99,2593.02 2526.77,1838 2526.77,1838 c 2.42,-3.8 156.64,-84.33 159.29,-88.12 -7.07,-27.34 -162.3,-55.88 -162.1,-85.22 l 8,-1335.519 C 2533.21,146.93 2681.34,0 2863.53,0 l 200.27,0 c 183.16,0 331.68,148.43 331.68,331.602 l 0,815.958 c 0,11.77 -0.78,23.34 -1.95,34.8 1.13,11.07 1.95,22.15 1.95,33.36 l 0,2616.91"
         style="fill:#fafafa;fill-opacity:1;fill-rule:nonzero;stroke:none"
         id="path14" /><path
         d="m 2542.82,1749.88 c -11.13,0 -20.11,-8.97 -20.11,-20.08 l 0,-277.75 c 0,-11.1 8.98,-20.12 20.11,-20.12 l 143.24,0 c 11.02,0 20.04,9.02 20.04,20.12 l 0,277.75 c 0,11.11 -9.02,20.08 -20.04,20.08 l -143.24,0"
         style="fill:#656263;fill-opacity:1;fill-rule:nonzero;stroke:none"
         id="path16" /><path
         d="m 1981.1,1746.29 c -11.13,0 -20.15,-9.01 -20.15,-20.1 l 0,-277.89 c 0,-11.12 9.02,-20.12 20.15,-20.12 l 167.11,0 c 11.17,0 20.08,9 20.08,20.12 l 0,277.89 c 0,11.09 -8.91,20.1 -20.08,20.1 l -167.11,0"
         style="fill:#b2db18;fill-opacity:1;fill-rule:nonzero;stroke:none"
         id="path18" /><path
         d="m 704.59,1749.84 c -11.094,0 -20.117,-9 -20.117,-20.08 l 0,-277.75 c 0,-11.11 9.023,-20.08 20.117,-20.08 l 143.32,0 c 11.016,0 20.039,8.97 20.039,20.08 l 0,277.75 c 0,11.08 -9.023,20.08 -20.039,20.08 l -143.32,0"
         style="fill:#9c9a9b;fill-opacity:1;fill-rule:nonzero;stroke:none"
         id="path20" /><path
         d="m 1264.47,1746.29 c -11.11,0 -20.13,-9.01 -20.13,-20.1 l 0,-277.89 c 0,-11.12 9.02,-20.12 20.13,-20.12 l 167.25,0 c 11.03,0 20.06,9 20.06,20.12 l 0,277.89 c 0,11.09 -9.03,20.1 -20.06,20.1 l -167.25,0"
         style="fill:#33bdf2;fill-opacity:1;fill-rule:nonzero;stroke:none"
         id="path22" /><path
         d="m 4586.2,2187.02 c -9.79,-0.49 -21.84,-2.69 -35.73,-6.61 -14.07,-3.97 -25.57,-8.8 -34.75,-14.49 -12.97,-7.96 -23.3,-18.18 -31.08,-30.72 -7.7,-12.54 -15.28,-27.26 -22.99,-44.34 -25.45,-60.26 -63.5,-154.23 -114.28,-281.77 -50.83,-127.67 -103.26,-260.54 -157.09,-398.98 l -47.23,0 c -54.56,146.63 -107.29,288.13 -158.01,424.24 -50.84,136.18 -85.34,228.06 -103.45,275.77 -4.71,11.88 -10.82,22.15 -18.35,31.02 -7.58,8.92 -17.62,17.38 -30.1,25.33 -10.4,6.49 -21.65,11.32 -34.13,14.49 -12.73,3.25 -24.22,5.2 -34.75,6.06 l 0,40.32 332.42,0 0,-40.32 c -28.38,-1.59 -52.42,-4.4 -71.94,-8.62 -19.52,-4.11 -29.12,-11.5 -29.12,-22.16 0,-4.2 0.68,-9.1 2.33,-14.79 1.41,-5.63 2.81,-10.23 3.79,-13.64 14.07,-37.14 36.7,-97.89 68.39,-182.18 31.57,-84.36 76.41,-204.45 134.71,-360.14 28.93,70.41 62.09,153.62 99.96,249.59 37.62,95.87 62.76,161.81 75.91,197.54 12.48,34.67 19.76,58.6 21.84,71.88 2.21,13.26 3.12,23.98 3.12,32.35 0,8.82 -3.73,16.11 -11.56,22.04 -7.71,5.8 -18.05,10.82 -30.95,14.97 -12.48,3.81 -25.45,6.61 -38.17,8.51 -12.86,1.96 -26.06,3.43 -39.22,4.65 l 0,40.32 300.43,0 0,-40.32"
         style="fill:#444142;fill-opacity:1;fill-rule:nonzero;stroke:none"
         id="path24" /><path
         d="m 4846.06,2209.36 c 0,-21.67 -7.1,-40.52 -21.16,-56.59 -14.32,-16.1 -31.94,-24.17 -52.67,-24.17 -19.52,0 -36.16,7.71 -50.59,23 -14.08,15.42 -21.35,32.85 -21.35,52.61 0,20.8 7.27,38.97 21.35,54.39 14.43,15.65 31.07,23.36 50.59,23.36 21.59,0 39.27,-7.28 53.16,-21.83 13.82,-14.63 20.67,-31.51 20.67,-50.77 z m 71.45,-788.85 -272.71,0 0,37.56 c 8.93,0.79 17.87,1.53 27.28,2.27 9.18,0.85 17.38,2.25 24.23,4.52 10.52,3.37 18.53,9.42 23.73,17.93 4.9,8.5 7.47,19.57 7.47,33.33 l 0,346.44 c 0,12.05 -2.57,23.12 -7.95,33.15 -5.39,10.1 -12.91,18.53 -22.76,25.38 -7.1,4.54 -17.49,8.45 -30.83,11.57 -13.47,3.24 -25.88,5.2 -37.2,5.94 l 0,37.68 198.27,12.24 7.71,-8.03 0,-457.46 c 0,-13.39 2.62,-24.33 7.77,-33.09 5.14,-8.68 13.21,-15.11 23.97,-19.39 8.45,-3.37 16.52,-6.12 24.47,-8.2 7.96,-2.14 16.95,-3.49 26.55,-4.28 l 0,-37.56"
         style="fill:#444142;fill-opacity:1;fill-rule:nonzero;stroke:none"
         id="path26" /><path
         d="m 5304.07,1420.51 -274.61,0 0,37.56 c 8.69,0.79 18.11,1.58 28.02,2.63 9.79,0.86 17.99,2.26 24.65,4.16 10.59,3.37 18.6,9.42 23.92,17.93 5.51,8.5 8.08,19.7 8.08,33.33 l 0,649.8 c 0,13.64 -3.06,26.48 -8.75,38.35 -5.81,12.05 -13.64,21.41 -23.07,28.27 -6.84,4.52 -19.2,8.62 -37.31,12.47 -18.35,3.8 -32.72,6.11 -43.74,6.86 l 0,37.55 212.09,12.3 7.95,-8.5 0,-770.19 c 0,-13.39 2.33,-24.33 7.35,-32.85 4.89,-8.44 12.66,-15.11 23.73,-19.63 8.2,-3.79 16.21,-6.61 24.35,-8.44 8.07,-2.02 17.25,-3.25 27.34,-4.04 l 0,-37.56"
         style="fill:#444142;fill-opacity:1;fill-rule:nonzero;stroke:none"
         id="path28" /><path
         d="m 5691.12,1420.51 -274.66,0 0,37.56 c 8.74,0.79 18.1,1.58 28.01,2.63 9.85,0.86 18.11,2.26 24.71,4.16 10.53,3.37 18.53,9.42 23.92,17.93 5.44,8.5 8.01,19.7 8.01,33.33 l 0,649.8 c 0,13.64 -3.05,26.48 -8.68,38.35 -5.87,12.05 -13.64,21.41 -23.06,28.27 -6.79,4.52 -19.27,8.62 -37.38,12.47 -18.35,3.8 -32.67,6.11 -43.68,6.86 l 0,37.55 212.03,12.3 8.01,-8.5 0,-770.19 c 0,-13.39 2.32,-24.33 7.28,-32.85 4.89,-8.44 12.66,-15.11 23.74,-19.63 8.2,-3.79 16.27,-6.61 24.47,-8.44 7.95,-2.02 17.13,-3.25 27.28,-4.04 l 0,-37.56"
         style="fill:#444142;fill-opacity:1;fill-rule:nonzero;stroke:none"
         id="path30" /><path
         d="m 6174.52,1765.65 c 0,21.11 -1.65,43.99 -5.39,68.16 -3.54,24.21 -9.42,44.47 -17.43,60.8 -8.75,17.44 -20.68,31.57 -35.97,42.7 -15.29,10.89 -34.81,16.39 -58.79,16.39 -39.95,0 -73.35,-16.56 -99.71,-49.67 -26.56,-33.22 -40.86,-79.35 -43.19,-138.38 l 260.48,0 z m 126.99,-213.49 c -23.49,-44.84 -55.05,-80.39 -94.75,-107 -39.52,-26.49 -85.16,-39.76 -136.36,-39.76 -45.39,0 -85.16,7.96 -119.29,23.86 -34.01,15.9 -62.03,37.62 -84.11,64.9 -22.09,27.29 -38.6,59.1 -49.43,95.56 -11.08,36.33 -16.46,74.93 -16.46,115.43 0,36.41 5.87,72.13 17.44,107.24 11.74,35.06 28.69,66.62 51.2,94.76 21.66,26.85 48.45,48.57 80.69,65.02 32.24,16.59 68.21,24.85 108.15,24.85 41.17,0 76.17,-6.49 105.59,-19.4 29.42,-12.97 53.16,-30.65 71.45,-53.03 17.44,-21.3 30.34,-46.31 39.09,-75.31 8.44,-28.81 12.6,-60.19 12.6,-93.96 l 0,-37.63 -373.28,0 c 0,-36.82 3.48,-70.16 10.52,-100.08 7.34,-29.97 18.35,-56.28 33.65,-79.1 15.05,-21.96 34.32,-39.33 58.54,-51.93 23.98,-12.67 52.67,-19.15 86.07,-19.15 33.83,0 63.25,7.89 87.91,23.73 24.65,15.79 48.39,44.3 71.27,85.4 l 39.51,-24.4"
         style="fill:#444142;fill-opacity:1;fill-rule:nonzero;stroke:none"
         id="path32" /><path
         d="m 7161.81,1529.27 0,328.21 c -3.06,9.9 -8.02,20.6 -14.81,31.93 -7.03,11.38 -15.48,21.71 -25.88,31.32 -11,9.48 -23.97,17.31 -38.78,23.61 -14.8,6.31 -32.24,9.36 -52,9.36 -23,0 -43.92,-5.86 -63.25,-17.55 -19.27,-11.81 -36.15,-28.69 -51.21,-50.71 -14.13,-21.3 -25.2,-48.21 -33.39,-81.13 -8.26,-32.78 -12.24,-68.99 -12.24,-108.94 0,-31.75 3.06,-60.69 9.17,-86.68 6.12,-25.95 16.22,-50.17 30.78,-72.56 13.45,-21.16 30.34,-38.29 51.26,-51.21 20.68,-12.9 45.39,-19.33 74.15,-19.33 30.27,0 55.66,6.6 75.6,19.89 20.01,13.22 36.95,27.94 50.6,43.79 z m 205.97,-98.42 -196.37,-12.3 -8.44,7.89 0,51.2 -4.65,1.11 c -19.82,-22.02 -44.04,-40.07 -73.16,-54.14 -28.88,-13.95 -58.73,-21.11 -89.56,-21.11 -31.81,0 -62.52,7.16 -92.38,21.41 -29.91,14.2 -55.79,34.26 -77.63,60.19 -22.57,26.2 -40.19,57.76 -53.4,94.64 -12.91,36.77 -19.46,77.45 -19.46,121.93 0,40.68 6.98,79.27 20.86,115.74 14.13,36.45 33.4,68.39 58.06,95.8 23.37,25.39 51.51,45.75 85.15,60.99 33.65,15.04 67.73,22.82 102.78,22.82 26.05,0 51.93,-3.37 77.08,-10.04 25.21,-6.66 46.86,-15.12 65.15,-25.32 l 0,195.69 c 0,15.97 -2.57,30.52 -8.02,43.62 -5.38,13.03 -12.73,23.06 -22.27,29.97 -10.64,7.22 -24.96,12.48 -43.06,15.79 -17.86,3.05 -37.38,5.5 -58.3,7.04 l 0,35.65 230.2,12.3 8.68,-8.5 0,-756.6 c 0,-13.27 2.57,-24.53 7.52,-33.83 5.21,-9.3 12.66,-17.13 22.58,-23.55 7.03,-4.59 17.62,-7.41 31.26,-8.57 13.4,-1.09 26.12,-1.89 37.38,-2.32 l 0,-37.5"
         style="fill:#444142;fill-opacity:1;fill-rule:nonzero;stroke:none"
         id="path34" /><path
         d="m 7848.61,1765.65 c 0,21.11 -1.66,43.99 -5.45,68.16 -3.48,24.21 -9.35,44.47 -17.31,60.8 -8.74,17.44 -20.67,31.57 -36.04,42.7 -15.23,10.89 -34.8,16.39 -58.78,16.39 -39.95,0 -73.29,-16.56 -99.65,-49.67 -26.61,-33.22 -40.93,-79.35 -43.25,-138.38 l 260.48,0 z m 127,-213.49 c -23.5,-44.84 -55.06,-80.39 -94.82,-107 -39.46,-26.49 -85.04,-39.76 -136.3,-39.76 -45.4,0 -85.15,7.96 -119.29,23.86 -34.02,15.9 -62.04,37.62 -84.12,64.9 -22.09,27.29 -38.6,59.1 -49.36,95.56 -11.08,36.33 -16.51,74.93 -16.51,115.43 0,36.41 5.86,72.13 17.37,107.24 11.8,35.06 28.75,66.62 51.32,94.76 21.59,26.85 48.39,48.57 80.69,65.02 32.18,16.59 68.14,24.85 108.1,24.85 41.16,0 76.22,-6.49 105.64,-19.4 29.37,-12.97 53.1,-30.65 71.46,-53.03 17.36,-21.3 30.27,-46.31 39.02,-75.31 8.45,-28.81 12.66,-60.19 12.66,-93.96 l 0,-37.63 -373.34,0 c 0,-36.82 3.48,-70.16 10.51,-100.08 7.36,-29.97 18.36,-56.28 33.65,-79.1 15.05,-21.96 34.32,-39.33 58.55,-51.93 24.03,-12.67 52.67,-19.15 86.07,-19.15 33.89,0 63.26,7.89 87.97,23.73 24.65,15.79 48.39,44.3 71.2,85.4 l 39.53,-24.4"
         style="fill:#444142;fill-opacity:1;fill-rule:nonzero;stroke:none"
         id="path36" /><path
         d="m 8888.56,1891.98 c 12.97,18.05 21.65,36.82 25.63,56.28 4.23,19.32 6.31,36.82 6.31,52.31 0,21.47 -2.57,43.3 -7.71,65.57 -5.14,22.21 -13.83,41.6 -26.36,58.3 -13.4,17.73 -31.02,31.44 -52.61,41.17 -21.66,9.85 -48.69,14.8 -81.18,14.8 l -80.38,0 0,-354.56 58.29,0 c 41.17,0 74.58,6.24 100.14,18.9 25.7,12.66 44.91,28.32 57.87,47.23 z m 173.06,136.47 c 0,-42.02 -8.26,-79.27 -24.65,-111.64 -16.76,-32.43 -39.51,-59.22 -68.7,-80.38 -28.93,-21.22 -60.62,-36.82 -95.24,-46.67 -34.76,-9.79 -71.21,-14.74 -109.99,-14.74 l -90.78,0 0,-244.76 c 0,-13.21 2.07,-24.84 6.6,-34.87 4.46,-10.09 13.34,-17.81 26.97,-23.07 6.92,-2.74 19.09,-5.19 36.28,-7.46 17.37,-2.27 33.34,-3.6 47.71,-3.97 l 0,-40.38 -346.11,0 0,40.38 c 9.17,0.73 22.15,2.07 39.27,3.97 17.13,1.9 29.12,4.4 35.72,7.46 11.26,4.83 19.52,12.11 24.72,21.53 4.9,9.49 7.53,21.54 7.53,36.35 l 0,582.25 c 0,13.28 -1.9,25.27 -5.7,35.85 -3.73,10.59 -12.65,18.6 -26.79,23.85 -14.31,4.9 -28.63,8.44 -42.76,10.53 -14.14,2.14 -26.37,3.48 -36.71,4.34 l 0,40.32 369.19,0 c 75.25,0 136.18,-17.98 183.16,-54.27 46.8,-36.15 70.28,-84.29 70.28,-144.62"
         style="fill:#444142;fill-opacity:1;fill-rule:nonzero;stroke:none"
         id="path38" /><path
         d="m 9575.88,1705.4 c 0,28.44 -2.8,58.37 -8.8,90.11 -5.51,31.57 -14.33,58.35 -25.58,80.38 -12.22,23.49 -28.13,42.28 -48.2,56.59 -19.82,14.19 -43.92,21.22 -72.67,21.22 -29.37,0 -54.09,-7.09 -75,-21.58 -20.68,-14.39 -37.56,-34.14 -50.53,-59.11 -12.24,-22.99 -20.93,-49.43 -25.81,-79.03 -5.02,-29.55 -7.36,-58.06 -7.36,-85.83 0,-36.41 2.83,-69.92 8.7,-100.82 5.99,-30.89 15.53,-58.41 28.5,-82.7 12.97,-24.29 29.12,-43.26 48.82,-57.13 19.58,-13.76 43.8,-20.75 72.68,-20.75 47.83,0 85.63,22.94 113.41,68.82 27.78,45.76 41.84,109.02 41.84,189.83 z m 117.59,1.03 c 0,-39.32 -6.37,-78.04 -18.85,-116.16 -12.73,-38.11 -30.59,-70.42 -53.58,-96.9 -26.31,-30.41 -56.77,-52.86 -91.27,-67.72 -34.76,-14.75 -73.66,-22.15 -116.36,-22.15 -35.48,0 -69.62,6.73 -102.16,20.13 -32.18,13.46 -60.81,33.16 -86.02,58.86 -24.59,25.44 -44.4,56.38 -58.97,92.92 -14.68,36.52 -21.89,77.69 -21.89,123.14 0,87.54 25.44,159.1 76.7,214.78 51.02,55.74 117.95,83.69 200.79,83.69 78.78,0 143.63,-26.49 194.64,-79.29 51.27,-52.85 76.97,-123.33 76.97,-211.3"
         style="fill:#444142;fill-opacity:1;fill-rule:nonzero;stroke:none"
         id="path40" /><path
         d="m 10257.5,1909.17 c 0,-19.34 -4.8,-36.46 -14.2,-51.52 -9.3,-15.04 -23.9,-22.51 -43.7,-22.51 -21.2,0 -37.3,5.58 -48.7,16.52 -11,11.02 -16.6,23.01 -16.6,36.29 0,8.36 0.7,15.96 2.1,22.75 1.2,6.85 2.5,13.64 3.5,20.44 -17.6,0 -38.5,-7.23 -62.3,-21.61 -23.9,-14.25 -44.1,-34.74 -60.9,-61.23 l 0,-326.55 c 0,-13.27 2.6,-24.11 7.7,-32.42 4.9,-8.39 13.2,-14.5 24.1,-18.78 9.6,-3.79 21.7,-6.61 36.6,-8.44 14.9,-2.02 28,-3.25 38.8,-4.04 l 0,-37.56 -297.2,0 0,37.56 c 8.8,0.79 17.98,1.53 27.27,2.27 9.18,0.85 17.39,2.25 24.23,4.52 10.52,3.37 18.61,9.42 23.5,17.93 5.25,8.5 7.83,19.57 7.83,33.33 l 0,346.44 c 0,11.62 -2.58,23.18 -8.2,34.62 -5.5,11.31 -13.21,20.49 -22.88,27.23 -7.34,4.64 -15.78,7.88 -25.57,9.96 -9.91,2.14 -20.55,3.49 -31.81,4.23 l 0,37.68 187.53,12.24 8.1,-8.03 0,-79.27 2.9,0 c 23.4,30.71 49.6,54.01 78.5,70.09 28.7,15.73 55,23.75 78.8,23.75 23.9,0 43.1,-7.71 58.2,-23.32 14.8,-15.52 22.4,-36.39 22.4,-62.57"
         style="fill:#444142;fill-opacity:1;fill-rule:nonzero;stroke:none"
         id="path42" /><path
         d="m 10788.4,1909.17 c 0,-19.34 -4.8,-36.46 -14,-51.52 -9.5,-15.04 -24.1,-22.51 -43.9,-22.51 -21.1,0 -37.3,5.58 -48.6,16.52 -11.1,11.02 -16.7,23.01 -16.7,36.29 0,8.36 0.7,15.96 2,22.75 1.4,6.85 2.6,13.64 3.6,20.44 -17.6,0 -38.6,-7.23 -62.3,-21.61 -23.9,-14.25 -44.2,-34.74 -60.8,-61.23 l 0,-326.55 c 0,-13.27 2.6,-24.11 7.7,-32.42 4.9,-8.39 13.1,-14.5 24,-18.78 9.7,-3.79 21.5,-6.61 36.6,-8.44 14.8,-2.02 28,-3.25 38.9,-4.04 l 0,-37.56 -297.3,0 0,37.56 c 8.8,0.79 17.8,1.53 27.4,2.27 9,0.85 17.2,2.25 24.1,4.52 10.6,3.37 18.6,9.42 23.6,17.93 5.1,8.5 7.7,19.57 7.7,33.33 l 0,346.44 c 0,11.62 -2.6,23.18 -8.3,34.62 -5.3,11.31 -13.1,20.49 -22.8,27.23 -7.2,4.64 -15.8,7.88 -25.5,9.96 -10,2.14 -20.5,3.49 -31.7,4.23 l 0,37.68 187.5,12.24 8.1,-8.03 0,-79.27 2.7,0 c 23.6,30.71 49.7,54.01 78.5,70.09 28.8,15.73 55.1,23.75 78.8,23.75 24.1,0 43.3,-7.71 58.4,-23.32 14.8,-15.52 22.3,-36.39 22.3,-62.57"
         style="fill:#444142;fill-opacity:1;fill-rule:nonzero;stroke:none"
         id="path44" /><path
         d="m 11261,1765.65 c 0,21.11 -2,43.99 -5.4,68.16 -3.5,24.21 -9.4,44.47 -17.5,60.8 -8.6,17.44 -20.7,31.57 -35.9,42.7 -15.2,10.89 -34.8,16.39 -58.8,16.39 -40,0 -73.4,-16.56 -99.7,-49.67 -26.6,-33.22 -40.9,-79.35 -43.2,-138.38 l 260.5,0 z m 127,-213.49 c -23.5,-44.84 -55.3,-80.39 -94.8,-107 -39.4,-26.49 -85.2,-39.76 -136.6,-39.76 -45.1,0 -84.9,7.96 -119,23.86 -34,15.9 -62.3,37.62 -84.1,64.9 -22.1,27.29 -38.6,59.1 -49.7,95.56 -10.8,36.33 -16.2,74.93 -16.2,115.43 0,36.41 5.8,72.13 17.4,107.24 11.7,35.06 28.7,66.62 51,94.76 21.9,26.85 48.7,48.57 81,65.02 32.1,16.59 68.1,24.85 108,24.85 41.2,0 76.2,-6.49 105.7,-19.4 29.4,-12.97 53.1,-30.65 71.2,-53.03 17.6,-21.3 30.6,-46.31 39.2,-75.31 8.5,-28.81 12.7,-60.19 12.7,-93.96 l 0,-37.63 -373.3,0 c 0,-36.82 3.6,-70.16 10.5,-100.08 7.1,-29.97 18.4,-56.28 33.7,-79.1 14.8,-21.96 34.4,-39.33 58.6,-51.93 23.8,-12.67 52.6,-19.15 85.7,-19.15 34.2,0 63.5,7.89 88.3,23.73 24.3,15.79 48.4,44.3 71.2,85.4 l 39.5,-24.4"
         style="fill:#444142;fill-opacity:1;fill-rule:nonzero;stroke:none"
         id="path46" /><path
         d="m 12127.2,1420.51 -275.5,0 0,37.56 c 8.7,0.79 18,1.53 28.4,2.27 10.6,0.85 19.1,2.25 25.9,4.52 10.5,3.37 18.4,9.42 23.5,17.93 5.1,8.5 7.7,19.7 7.7,33.33 l 0,288.5 c 0,39.83 -9.4,70.6 -28.3,92.18 -18.6,21.67 -41.3,32.43 -68.2,32.43 -20.1,0 -38.5,-3.11 -55.2,-9.36 -16.4,-6.23 -31.2,-14 -44.2,-23.07 -12.3,-8.68 -22.4,-18.03 -29.8,-28.19 -7.4,-10.03 -12.6,-18.05 -15.9,-24.16 l 0,-322.7 c 0,-12.85 2.5,-23.48 7.9,-31.81 5.2,-8.38 13.2,-14.87 23.7,-19.39 8.1,-3.79 16.8,-6.61 26,-8.44 9.3,-2.02 19,-3.25 28.9,-4.04 l 0,-37.56 -276.5,0 0,37.56 c 8.6,0.79 17.6,1.53 27,2.27 9.3,0.85 17.4,2.25 24.1,4.52 10.6,3.37 18.6,9.42 23.9,17.93 5.1,8.5 7.7,19.57 7.7,33.33 l 0,346.44 c 0,12.78 -2.9,24.65 -8.2,35.42 -5.7,10.82 -13.1,19.69 -23.2,26.43 -6.9,4.64 -15.6,7.88 -25.3,9.96 -9.9,2.14 -20.4,3.49 -31.7,4.23 l 0,37.68 187.6,12.24 8.1,-8.03 0,-79.09 2.8,0 c 8.8,9.06 20.4,19.93 34,32.66 13.3,12.67 26.4,23.13 38.6,31.08 13.9,9.11 30.5,16.64 49.8,22.77 19.4,5.99 41,9.11 65.1,9.11 53.9,0 93.6,-16.83 119.6,-50.35 26,-33.65 38.9,-78.24 38.9,-134.04 l 0,-291.91 c 0,-13.4 2.3,-24.11 6.8,-32.18 4.8,-8.14 12.8,-14.56 23.8,-19.09 9.4,-3.8 17.5,-6.49 24.1,-7.95 6.7,-1.53 16.1,-2.64 28.1,-3.43 l 0,-37.56"
         style="fill:#444142;fill-opacity:1;fill-rule:nonzero;stroke:none"
         id="path48" /><path
         d="m 12594.3,1444.31 c -24.6,-10.22 -47.8,-18.72 -69.7,-25.64 -21.9,-7.03 -48.9,-10.46 -80.8,-10.46 -46.8,0 -79.8,11.87 -99.2,35.6 -18.9,23.69 -28.6,57.15 -28.6,100.45 l 0,380.33 -101.6,0 0,54.56 103.9,0 0,174.9 103.8,0 0,-174.9 160.1,0 0,-54.56 -159,0 0,-314.51 c 0,-23.6 1,-43.31 2.7,-59.09 1.6,-15.85 5.8,-29.54 12.1,-41.41 6.1,-11.01 15.1,-19.4 27.4,-25.08 12,-5.75 28.1,-8.5 48.5,-8.5 9.5,0 23.3,0.85 41.6,2.56 18.5,1.84 31.4,4.04 38.8,6.8 l 0,-41.05"
         style="fill:#444142;fill-opacity:1;fill-rule:nonzero;stroke:none"
         id="path50" /><path
         d="m 13145.5,1909.17 c 0,-19.34 -4.8,-36.46 -14.1,-51.52 -9.4,-15.04 -23.9,-22.51 -43.8,-22.51 -21.1,0 -37.3,5.58 -48.5,16.52 -11.2,11.02 -16.8,23.01 -16.8,36.29 0,8.36 0.7,15.96 2.1,22.75 1.2,6.85 2.6,13.64 3.5,20.44 -17.6,0 -38.5,-7.23 -62.2,-21.61 -24,-14.25 -44.2,-34.74 -61,-61.23 l 0,-326.55 c 0,-13.27 2.7,-24.11 7.9,-32.42 4.9,-8.39 13,-14.5 23.9,-18.78 9.6,-3.79 21.7,-6.61 36.6,-8.44 14.8,-2.02 28,-3.25 38.9,-4.04 l 0,-37.56 -297.2,0 0,37.56 c 8.7,0.79 17.9,1.53 27.3,2.27 9.2,0.85 17.4,2.25 24.1,4.52 10.7,3.37 18.6,9.42 23.5,17.93 5.3,8.5 7.9,19.57 7.9,33.33 l 0,346.44 c 0,11.62 -2.6,23.18 -8.4,34.62 -5.2,11.31 -13.1,20.49 -22.7,27.23 -7.2,4.64 -15.8,7.88 -25.6,9.96 -9.9,2.14 -20.4,3.49 -31.8,4.23 l 0,37.68 187.7,12.24 7.9,-8.03 0,-79.27 2.8,0 c 23.7,30.71 49.7,54.01 78.6,70.09 28.6,15.73 55.1,23.75 78.8,23.75 24,0 43.3,-7.71 58.3,-23.32 14.8,-15.52 22.3,-36.39 22.3,-62.57"
         style="fill:#444142;fill-opacity:1;fill-rule:nonzero;stroke:none"
         id="path52" /><path
         d="m 13847.7,1430.85 -183.2,-12.3 -8.6,7.96 0,71.13 -3.3,0 c -9.1,-9.48 -19.4,-19.57 -30.7,-30.39 -11.2,-10.84 -24.4,-20.56 -39.2,-29.36 -17,-10.17 -33.4,-18.05 -49.5,-23.44 -15.6,-5.38 -38.4,-8.07 -67.4,-8.07 -49.7,0 -87.5,16.21 -113.4,48.64 -26.1,32.54 -39,79.82 -39,141.68 l 0,269.04 c 0,13.7 -2.6,25.14 -7.7,34.5 -5.1,9.29 -12.5,17.36 -22.4,24.17 -6.8,4.52 -15.4,7.88 -25.8,9.96 -10.1,2.14 -21,3.49 -32.5,4.23 l 0,37.68 187.2,12.24 8.3,-8.03 0,-389.67 c 0,-40.69 9.4,-71.21 27.3,-91.64 18.5,-20.56 40,-30.83 65.5,-30.83 20.9,0 39.5,3.3 55.7,9.72 16.2,6.49 29.9,14.14 40.9,22.82 10.3,8.01 19.4,16.46 27.1,25.33 7.7,8.92 13.6,17.19 17.8,24.77 l 0,318.72 c 0,12.54 -2.5,23.62 -8,33.27 -5.4,9.74 -12.8,17.99 -22.3,24.91 -6.9,4.53 -17,7.28 -30.6,8.26 -13.5,0.86 -28.7,1.71 -45.4,2.45 l 0,37.68 205.1,12.24 8.4,-8.03 0,-445.03 c 0,-12.86 2.6,-23.8 8,-32.97 5.2,-9.07 12.7,-16.83 22.1,-23.25 6.9,-4.22 14.8,-6.92 24.5,-8.26 9.4,-1.34 19.8,-2.2 31.1,-2.63 l 0,-37.5"
         style="fill:#444142;fill-opacity:1;fill-rule:nonzero;stroke:none"
         id="path54" /><path
         d="m 13915.6,1236.8 c 0,18.97 5.1,34.33 15.5,46.32 10.5,11.92 23.5,17.85 39,17.85 12,0 22.5,-2.19 31.4,-6.73 8.6,-4.46 16.3,-10.21 23.2,-17.43 5.6,-5.56 11.7,-13.34 18,-23 6.6,-9.85 11.6,-17.92 15.5,-24.22 18.9,10.15 41.5,36.94 68.1,80.19 26.3,43.32 45.3,81.25 57.1,113.85 -36.2,89.92 -68.7,170.31 -98.1,241.27 -29.1,70.91 -59.7,144.32 -91.4,220.16 -7.4,17.5 -19.6,31.01 -36.5,40.75 -17.1,9.67 -34.4,15.84 -51.3,18.53 l 0,37.57 256.1,0 0,-39.89 c -11.2,-0.37 -24.9,-2.76 -40.8,-7.17 -16.1,-4.33 -23.8,-9.35 -23.8,-14.98 0,-2.32 0.6,-6.11 2.2,-11.44 2,-5.33 3.8,-10.83 6.1,-16.51 14.5,-37.44 36.5,-91.4 66.2,-161.81 29.6,-70.52 52.4,-126.99 68.9,-169.27 16.9,40.44 34.8,82.21 53.1,125.53 18.4,43.26 39,94.4 61.9,153.37 2.6,7.22 6.3,17.12 11.3,29.79 4.9,12.72 7.4,23.62 7.4,32.72 0,9.86 -8.6,19.03 -25.8,27.53 -17.5,8.57 -33.9,13.78 -49.4,15.72 l 0,36.41 208.6,0 0,-35.24 c -11.5,-2.02 -26.3,-8.5 -45.1,-19.76 -18.6,-11.2 -32.6,-27.04 -41.5,-47.47 -45.4,-104.85 -85.3,-200.28 -120.5,-286.42 -35,-86.2 -61.7,-149.63 -80.1,-190.26 -23.9,-53.09 -45.1,-94.62 -63.8,-124.42 -18.9,-29.85 -37.2,-53.34 -55.1,-70.47 -17.3,-15.9 -33.1,-26.67 -47.4,-32.17 -14.2,-5.45 -29,-8.2 -44,-8.2 -29.7,0 -52.9,6.97 -69.8,20.98 -16.8,14.01 -25.2,30.15 -25.2,48.32"
         style="fill:#444142;fill-opacity:1;fill-rule:nonzero;stroke:none"
         id="path56" /><path
         d="m 4706.16,261.32 -73.35,0 0,286.289 -203.83,0 0,-286.289 -73.16,0 0,594.309 73.16,0 0,-243.098 203.83,0 0,243.098 73.35,0 0,-594.309"
         style="fill:#4f4c4c;fill-opacity:1;fill-rule:nonzero;stroke:none"
         id="path58" /><path
         d="m 4829.36,707.469 69.8,0 0,-446.149 -69.8,0 0,446.149 z m 0,148.16 69.8,0 0,-79.957 -69.8,0 0,79.957"
         style="fill:#4f4c4c;fill-opacity:1;fill-rule:nonzero;stroke:none"
         id="path60" /><path
         d="m 5211.27,576.73 c 0,56.661 -15.11,87.372 -65.7,87.372 -22.51,0 -72.37,-5.75 -72.37,-68.282 0,-52.359 54.75,-62.332 109.81,-80.691 54.08,-18.289 108.83,-37.438 108.83,-125.649 0,-93.968 -60.63,-139.718 -143.88,-139.718 -151.41,0 -153.12,112.258 -153.12,158.019 l 69.86,0 c 0,-54.019 15.05,-103.14 83.26,-103.14 22.57,0 74.08,10.769 74.08,74.019 0,59.949 -54.81,72.488 -109.13,90.649 -54.09,18.421 -109.81,34.203 -109.81,126.511 0,83.27 64.9,123.328 142.47,123.328 129.81,0 134.7,-89.976 135.44,-142.418 l -69.74,0"
         style="fill:#4f4c4c;fill-opacity:1;fill-rule:nonzero;stroke:none"
         id="path62" /><path
         d="m 5404.22,837.219 70.1,0 0,-129.75 77.33,0 0,-55 -77.33,0 0,-286.289 c 0,-35.719 9.18,-49.918 45.64,-49.918 15.04,0 23.24,1.718 30.7,2.558 l 0,-57.5 c -9.11,-1.648 -27.46,-4.961 -56.39,-4.961 -72.38,0 -90.05,29.93 -90.05,88.161 l 0,307.949 -64.85,0 0,55 64.85,0 0,129.75"
         style="fill:#4f4c4c;fill-opacity:1;fill-rule:nonzero;stroke:none"
         id="path64" /><path
         d="m 5850.54,484.359 c 0,96.602 -14.37,179.743 -89.19,179.743 -70.72,0 -85.77,-83.141 -85.77,-179.743 0,-96.461 14.13,-179.718 85.77,-179.718 74.14,0 89.19,83.257 89.19,179.718 z m -87.47,234.789 c 129.07,0 160.57,-109.128 160.57,-234.789 0,-125.589 -32.48,-234.597 -160.57,-234.597 -129.09,0 -160.65,109.008 -160.65,234.597 0,125.661 32.48,234.789 160.65,234.789"
         style="fill:#4f4c4c;fill-opacity:1;fill-rule:nonzero;stroke:none"
         id="path66" /><path
         d="m 6022.63,707.469 70.04,0 0,-446.149 -70.04,0 0,446.149 z m 0,148.16 70.04,0 0,-79.957 -70.04,0 0,79.957"
         style="fill:#4f4c4c;fill-opacity:1;fill-rule:nonzero;stroke:none"
         id="path68" /><path
         d="m 6213.3,707.469 69.86,0 0,-66.559 1.65,0 c 20.01,42.391 46.56,78.238 96.6,78.238 14.07,0 23.98,-1.769 30.59,-5.007 l 0,-68.34 c -6.61,0.859 -14.81,3.371 -37.38,3.371 -34.81,0 -91.46,-31.633 -91.46,-105.711 l 0,-282.141 -69.86,0 0,446.149"
         style="fill:#4f4c4c;fill-opacity:1;fill-rule:nonzero;stroke:none"
         id="path70" /><path
         d="m 6704.29,530.98 0,24.161 c 0,49.918 -15.78,108.961 -77.39,108.961 -73.35,0 -81.54,-89.872 -81.54,-116.493 l 0,-16.629 158.93,0 z m -161.57,-54.929 c 0,-68.27 0,-171.41 85.83,-171.41 66.56,0 75.74,69.847 75.74,103.14 l 69.73,0 c 0,-47.351 -28.14,-158.019 -149.69,-158.019 -108.83,0 -154.71,75.726 -154.71,228.789 0,111.469 21.6,240.597 158.93,240.597 136.36,0 148.78,-119.046 148.78,-214.847 l 0,-28.25 -234.61,0"
         style="fill:#4f4c4c;fill-opacity:1;fill-rule:nonzero;stroke:none"
         id="path72" /><path
         d="m 7025.45,855.629 76.65,0 116.41,-510.188 1.84,0 116.36,510.188 76.71,0 -149.77,-594.309 -93.34,0 -144.86,594.309"
         style="fill:#4f4c4c;fill-opacity:1;fill-rule:nonzero;stroke:none"
         id="path74" /><path
         d="m 7486.51,707.469 69.81,0 0,-446.149 -69.81,0 0,446.149 z m 0,148.16 69.81,0 0,-79.957 -69.81,0 0,79.957"
         style="fill:#4f4c4c;fill-opacity:1;fill-rule:nonzero;stroke:none"
         id="path76" /><path
         d="m 7896.82,530.98 0,24.161 c 0,49.918 -15.73,108.961 -77.34,108.961 -73.41,0 -81.61,-89.872 -81.61,-116.493 l 0,-16.629 158.95,0 z m -161.51,-54.929 c 0,-68.27 0,-171.41 85.77,-171.41 66.56,0 75.74,69.847 75.74,103.14 l 69.85,0 c 0,-47.351 -28.26,-158.019 -149.81,-158.019 -108.83,0 -154.71,75.726 -154.71,228.789 0,111.469 21.65,240.597 158.93,240.597 136.42,0 148.9,-119.046 148.9,-214.847 l 0,-28.25 -234.67,0"
         style="fill:#4f4c4c;fill-opacity:1;fill-rule:nonzero;stroke:none"
         id="path78" /><path
         d="m 8298.85,855.629 94.82,0 196.3,-496.047 1.9,0 0,496.047 73.11,0 0,-594.309 -100.63,0 -190.69,481.02 -1.65,0 0,-481.02 -73.16,0 0,594.309"
         style="fill:#4f4c4c;fill-opacity:1;fill-rule:nonzero;stroke:none"
         id="path80" /><path
         d="m 8988.77,504.301 c -25.88,-27.403 -87.48,-33.27 -119.05,-52.36 -22.51,-14.199 -34.26,-31.691 -34.26,-70.711 0,-45.031 15.91,-76.589 63.25,-76.589 45.77,0 90.06,39.148 90.06,84.839 l 0,114.821 z m -215.64,68.328 c 0,101.43 43.25,146.519 149.75,146.519 135.68,0 135.68,-81.66 135.68,-128.218 l 0,-248.918 c 0,-18.293 0,-35.723 21.61,-35.723 9.23,0 13.38,1.652 16.75,4.16 l 0,-49.98 c -4.96,-0.797 -23.31,-4.11 -40.92,-4.11 -26.62,0 -59.77,0 -63.32,57.391 l -1.59,0 c -22.32,-39.941 -65.57,-63.988 -107.17,-63.988 -83.27,0 -121.63,49.867 -121.63,129.75 0,62.398 26.57,105.769 84.18,123.207 l 93.85,28.261 c 50.77,15.782 50.77,29.969 50.77,67.418 0,41.59 -24.96,65.704 -71.45,65.704 -76.71,0 -76.71,-71.461 -76.71,-87.372 l 0,-4.101 -69.8,0"
         style="fill:#4f4c4c;fill-opacity:1;fill-rule:nonzero;stroke:none"
         id="path82" /><path
         d="m 9207.62,837.219 69.98,0 0,-129.75 77.33,0 0,-55 -77.33,0 0,-286.289 c 0,-35.719 9.05,-49.918 45.64,-49.918 14.91,0 23.36,1.718 30.82,2.558 l 0,-57.5 c -9.04,-1.648 -27.4,-4.961 -56.65,-4.961 -72.42,0 -89.79,29.93 -89.79,88.161 l 0,307.949 -64.85,0 0,55 64.85,0 0,129.75"
         style="fill:#4f4c4c;fill-opacity:1;fill-rule:nonzero;stroke:none"
         id="path84" /><path
         d="m 9720.86,261.32 -66.55,0 0,52.43 -1.59,0 c -18.35,-40.801 -64.85,-63.988 -108.4,-63.988 -117.08,0 -117.08,89.008 -117.08,141.437 l 0,316.27 69.86,0 0,-308.02 c 0,-34.058 2.31,-89.801 65.57,-89.801 37.68,0 88.45,24.903 88.45,89.801 l 0,308.02 69.74,0 0,-446.149"
         style="fill:#4f4c4c;fill-opacity:1;fill-rule:nonzero;stroke:none"
         id="path86" /><path
         d="m 9837.34,707.469 69.98,0 0,-66.559 1.72,0 c 19.94,42.391 46.49,78.238 96.36,78.238 14.4,0 24.3,-1.769 30.8,-5.007 l 0,-68.34 c -6.5,0.859 -14.9,3.371 -37.36,3.371 -34.99,0 -91.52,-31.633 -91.52,-105.711 l 0,-282.141 -69.98,0 0,446.149"
         style="fill:#4f4c4c;fill-opacity:1;fill-rule:nonzero;stroke:none"
         id="path88" /><path
         d="m 10328.4,530.98 0,24.161 c 0,49.918 -15.6,108.961 -77.3,108.961 -73.4,0 -81.6,-89.872 -81.6,-116.493 l 0,-16.629 158.9,0 z m -161.5,-54.929 c 0,-68.27 0,-171.41 85.8,-171.41 66.6,0 75.7,69.847 75.7,103.14 l 69.9,0 c 0,-47.351 -28.1,-158.019 -149.7,-158.019 -109.2,0 -154.7,75.726 -154.7,228.789 0,111.469 21.5,240.597 158.8,240.597 136.4,0 148.9,-119.046 148.9,-214.847 l 0,-28.25 -234.7,0"
         style="fill:#4f4c4c;fill-opacity:1;fill-rule:nonzero;stroke:none"
         id="path90" /><path
         d="m 10730.4,855.629 307.1,0 0,-65.027 -233.9,0 0,-186.391 220.4,0 0,-64.91 -220.4,0 0,-277.981 -73.2,0 0,594.309"
         style="fill:#4f4c4c;fill-opacity:1;fill-rule:nonzero;stroke:none"
         id="path92" /><path
         d="m 11332,484.359 c 0,96.602 -14.1,179.743 -89.1,179.743 -70.5,0 -85.5,-83.141 -85.5,-179.743 0,-96.461 14,-179.718 85.5,-179.718 74.1,0 89.1,83.257 89.1,179.718 z m -87.2,234.789 c 128.9,0 160.6,-109.128 160.6,-234.789 0,-125.589 -32.6,-234.597 -160.6,-234.597 -129,0 -160.9,109.008 -160.9,234.597 0,125.661 32.5,234.789 160.9,234.789"
         style="fill:#4f4c4c;fill-opacity:1;fill-rule:nonzero;stroke:none"
         id="path94" /><path
         d="m 11500.2,707.469 69.8,0 0,-66.559 1.5,0 c 20.1,42.391 46.9,78.238 96.8,78.238 14,0 24.1,-1.769 30.7,-5.007 l 0,-68.34 c -6.6,0.859 -15.1,3.371 -37.4,3.371 -34.9,0 -91.6,-31.633 -91.6,-105.711 l 0,-282.141 -69.8,0 0,446.149"
         style="fill:#4f4c4c;fill-opacity:1;fill-rule:nonzero;stroke:none"
         id="path96" /><path
         d="m 11778,707.469 66.6,0 0,-52.489 1.6,0 c 18.3,40.739 64.8,64.168 108.3,64.168 51.7,0 82.4,-20.058 96.5,-70.839 19.9,39.089 60.1,70.839 105.6,70.839 117.3,0 117.3,-89.128 117.3,-141.488 l 0,-316.34 -69.7,0 0,307.95 c 0,34.082 -2.7,89.929 -60.1,89.929 -32.4,0 -83.2,-20.058 -83.2,-89.929 l 0,-307.95 -69.9,0 0,307.95 c 0,34.082 -2.5,89.929 -59.9,89.929 -32.4,0 -83.2,-20.058 -83.2,-89.929 l 0,-307.95 -69.9,0 0,446.149"
         style="fill:#4f4c4c;fill-opacity:1;fill-rule:nonzero;stroke:none"
         id="path98" /><path
         d="m 12601.9,504.301 c -25.8,-27.403 -87.5,-33.27 -118.9,-52.36 -22.6,-14.199 -34.1,-31.691 -34.1,-70.711 0,-45.031 15.7,-76.589 63.2,-76.589 45.9,0 89.8,39.148 89.8,84.839 l 0,114.821 z m -215.6,68.328 c 0,101.43 43.3,146.519 150,146.519 135.5,0 135.5,-81.66 135.5,-128.218 l 0,-248.918 c 0,-18.293 0,-35.723 21.5,-35.723 9.3,0 13.5,1.652 16.8,4.16 l 0,-49.98 c -4.9,-0.797 -23.3,-4.11 -40.6,-4.11 -26.7,0 -60.1,0 -63.4,57.391 l -1.6,0 c -22.6,-39.941 -65.8,-63.988 -107.4,-63.988 -83.3,0 -121.7,49.867 -121.7,129.75 0,62.398 26.8,105.769 84.2,123.207 l 94.1,28.261 c 50.8,15.782 50.8,29.969 50.8,67.418 0,41.59 -25,65.704 -71.7,65.704 -76.5,0 -76.5,-71.461 -76.5,-87.372 l 0,-4.101 -70,0"
         style="fill:#4f4c4c;fill-opacity:1;fill-rule:nonzero;stroke:none"
         id="path100" /><path
         d="m 12820.8,837.219 69.9,0 0,-129.75 77.3,0 0,-55 -77.3,0 0,-286.289 c 0,-35.719 9.1,-49.918 45.8,-49.918 15.1,0 23.3,1.718 30.7,2.558 l 0,-57.5 c -9,-1.648 -27.4,-4.961 -56.6,-4.961 -72.4,0 -89.8,29.93 -89.8,88.161 l 0,307.949 -64.8,0 0,55 64.8,0 0,129.75"
         style="fill:#4f4c4c;fill-opacity:1;fill-rule:nonzero;stroke:none"
         id="path102" /><path
         d="m 13044.7,707.469 69.7,0 0,-446.149 -69.7,0 0,446.149 z m 0,148.16 69.7,0 0,-79.957 -69.7,0 0,79.957"
         style="fill:#4f4c4c;fill-opacity:1;fill-rule:nonzero;stroke:none"
         id="path104" /><path
         d="m 13461.5,484.359 c 0,96.602 -14,179.743 -89,179.743 -70.6,0 -85.7,-83.141 -85.7,-179.743 0,-96.461 14.2,-179.718 85.7,-179.718 74,0 89,83.257 89,179.718 z m -87.2,234.789 c 128.8,0 160.6,-109.128 160.6,-234.789 0,-125.589 -32.5,-234.597 -160.6,-234.597 -129.1,0 -160.8,109.008 -160.8,234.597 0,125.661 32.5,234.789 160.8,234.789"
         style="fill:#4f4c4c;fill-opacity:1;fill-rule:nonzero;stroke:none"
         id="path106" /><path
         d="m 13629.6,707.469 66.6,0 0,-52.489 1.6,0 c 18.3,40.739 65,64.168 108.1,64.168 117.4,0 117.4,-89.128 117.4,-141.488 l 0,-316.34 -69.8,0 0,307.95 c 0,34.082 -2.7,89.929 -65.8,89.929 -37.4,0 -88.2,-25.008 -88.2,-89.929 l 0,-307.95 -69.9,0 0,446.149"
         style="fill:#4f4c4c;fill-opacity:1;fill-rule:nonzero;stroke:none"
         id="path108" /></g></g></svg>