<?xml version="1.0" encoding="utf-8"?>
<!-- Generator: Adobe Illustrator 19.1.1, SVG Export Plug-In . SVG Version: 6.00 Build 0)  -->
<svg version="1.1" id="Capa_1" xmlns="http://www.w3.org/2000/svg" xmlns:xlink="http://www.w3.org/1999/xlink" x="0px" y="0px"
	 viewBox="-136 228.7 337.3 337.3" style="enable-background:new -136 228.7 337.3 337.3;" xml:space="preserve">
<style type="text/css">
	.st0{fill:#FFFFFF;}
</style>
<g>
	<g id="XMLID_1_">
		<g>
			<path class="st0" d="M187.4,313.6c2,0.8,3.5,2.7,3.5,5c0,3-2.4,5.4-5.4,5.4c0,0-0.1,0-0.1,0h-305.6c-2.4,0-4.6-1.7-5.2-4
				s0.5-4.9,2.6-6L30,229.4c1.6-0.9,3.6-0.9,5.2,0L187.4,313.6z"/>
			<path class="st0" d="M179.9,547.6v13c0,3-2.4,5.4-5.4,5.4h-283.9c-3,0-5.4-2.4-5.4-5.4v-13c0-3,2.4-5.4,5.4-5.4h283.9
				C177.5,542.2,179.9,544.7,179.9,547.6z"/>
			<path class="st0" d="M179.9,340.1v13c0,3-2.4,5.4-5.4,5.4h-283.9c-3,0-5.4-2.4-5.4-5.4v-13c0-3,2.4-5.4,5.4-5.4h283.9
				C177.5,334.7,179.9,337.1,179.9,340.1z"/>
			<path class="st0" d="M168,369.2v13c0,3-2.4,5.4-5.4,5.4h-260c-3,0-5.4-2.4-5.4-5.4v-13c0-3,2.4-5.4,5.4-5.4h260
				C165.6,363.8,168,366.2,168,369.2z"/>
			<path class="st0" d="M168,518.5v13c0,3-2.4,5.4-5.4,5.4h-260c-3,0-5.4-2.4-5.4-5.4v-13c0-3,2.4-5.4,5.4-5.4h260
				C165.6,513.1,168,515.5,168,518.5z"/>
			<path class="st0" d="M155,398.3v104c0,3-2.4,5.4-5.4,5.4h-26c-3,0-5.4-2.4-5.4-5.4v-104c0-3,2.4-5.4,5.4-5.4h26
				C152.6,393,155,395.4,155,398.3z"/>
			<path class="st0" d="M51,398.3v104c0,3-2.4,5.4-5.4,5.4h-26c-3,0-5.4-2.4-5.4-5.4v-104c0-3,2.4-5.4,5.4-5.4h26
				C48.6,393,51,395.4,51,398.3z"/>
			<path class="st0" d="M-53,398.3v104c0,3-2.4,5.4-5.4,5.4h-26c-3,0-5.4-2.4-5.4-5.4v-104c0-3,2.4-5.4,5.4-5.4h26
				C-55.5,393-53,395.4-53,398.3z"/>
		</g>
		<g>
		</g>
	</g>
</g>
</svg>
