<?xml version="1.0" encoding="utf-8"?>
<!-- Generator: Adobe Illustrator 16.0.0, SVG Export Plug-In . SVG Version: 6.00 Build 0)  -->
<!DOCTYPE svg PUBLIC "-//W3C//DTD SVG 1.1//EN" "http://www.w3.org/Graphics/SVG/1.1/DTD/svg11.dtd">
<svg version="1.1"
	 id="svg2" xmlns:inkscape="http://www.inkscape.org/namespaces/inkscape" xmlns:sodipodi="http://sodipodi.sourceforge.net/DTD/sodipodi-0.dtd" xmlns:svg="http://www.w3.org/2000/svg" xmlns:rdf="http://www.w3.org/1999/02/22-rdf-syntax-ns#" xmlns:cc="http://creativecommons.org/ns#" xmlns:dc="http://purl.org/dc/elements/1.1/" sodipodi:docname="360ink.svg" inkscape:version="0.91pre3 r13670"
	 xmlns="http://www.w3.org/2000/svg" xmlns:xlink="http://www.w3.org/1999/xlink" x="0px" y="0px" width="75px" height="75px"
	 viewBox="0 0 75 75" enable-background="new 0 0 75 75" xml:space="preserve">
<sodipodi:namedview  id="namedview6" bordercolor="#666666" pagecolor="#c8ffff" borderopacity="1" objecttolerance="10" gridtolerance="10" guidetolerance="10" showgrid="false" inkscape:zoom="10.429825" inkscape:cx="-0.89160113" inkscape:cy="18.148444" inkscape:window-y="-8" inkscape:window-x="-8" inkscape:window-width="1600" inkscape:window-height="837" inkscape:pageshadow="2" inkscape:pageopacity="0" inkscape:window-maximized="1" inkscape:current-layer="svg2">
	</sodipodi:namedview>
<g id="XMLID_1_">
	<g>
		<path fill="#484B60" d="M60.221,60.721C66.25,54.811,70,46.58,70,37.5C70,19.58,55.42,5,37.5,5c-9.08,0-17.31,3.75-23.22,9.78
			C8.54,20.65,5,28.66,5,37.5C5,55.42,19.58,70,37.5,70C46.34,70,54.35,66.46,60.221,60.721z M37.5,0C58.21,0,75,16.79,75,37.5
			S58.21,75,37.5,75S0,58.21,0,37.5S16.79,0,37.5,0z"/>
		<path fill="#FFFFFF" d="M53.84,46.279c0,0.91-0.57,1.49-1.47,1.49c-0.29,0-0.64-0.101-0.86-0.229
			c-0.449-0.271-0.67-0.761-0.63-1.25v-0.011c0.25-0.369,0.47-0.75,0.69-1.141v-0.01C52.49,44.529,53.84,45.12,53.84,46.279z
			 M52.88,46.85c0.271-0.379,0.22-0.818-0.12-1.09c-0.49-0.38-1.039-0.068-1.039,0.602C51.721,47.04,52.51,47.37,52.88,46.85z"/>
		<path fill="#FFFFFF" d="M51.59,31.04c0.01,0.01,0.01,0.03,0.01,0.06c-0.039,0.39-2.09,6.11-2.188,6.11
			c-0.12,0-1.062-1.06-3.761-4.27c-0.43-0.51-0.75-0.96-0.709-0.99c0.029-0.03,0.539,0.07,1.14,0.24c0.59,0.16,1.11,0.27,1.14,0.23
			c0.23-0.22-1.02-2.21-2.13-3.38c-0.79-0.84-2.319-1.99-3.31-2.49c-0.84-0.42-2.352-0.94-3.301-1.13
			c-0.431-0.09-1.451-0.16-2.291-0.16c-1.67,0-2.61,0.15-4.02,0.65c-1.27,0.44-1.99,0.82-3.15,1.65c-0.38,0.27-0.74,0.56-1.08,0.88
			l-1.56-1.56c2.03-1.92,4.18-3.02,7.03-3.64c1.31-0.28,4.25-0.28,5.57,0c3.039,0.66,5.278,1.87,7.438,4.03
			c1.312,1.31,2.12,2.44,2.851,3.94c0.239,0.51,0.489,0.92,0.561,0.92c0.061,0,0.439-0.25,0.85-0.56
			C51.279,31.12,51.529,30.97,51.59,31.04z"/>
		<path fill="#FFFFFF" d="M51.23,45.43c0.1-0.119,0.22-0.22,0.34-0.289c-0.221,0.391-0.44,0.771-0.69,1.141
			C50.9,45.99,51.02,45.689,51.23,45.43z"/>
		<path fill="#FFFFFF" d="M50.15,47.6c0.17,1,0.05,2-0.28,2.771l-1.24-1.24c0-0.04,0.011-0.08,0-0.13
			c0.53-0.511,1.021-1.06,1.479-1.64C50.12,47.439,50.141,47.52,50.15,47.6z"/>
		<path fill="#FFFFFF" d="M48.63,49.13l1.24,1.24c-0.24,0.569-0.601,1.021-1.05,1.25c-0.42,0.21-1.23,0.29-1.682,0.149
			c-0.449-0.131-0.818-0.381-1.08-0.75c0.381-0.24,0.75-0.49,1.11-0.76c0.38,0.549,0.899,0.549,1.25-0.041
			C48.57,49.96,48.62,49.75,48.63,49.13z"/>
		<path fill="#FFFFFF" d="M50.109,47.359C49.65,47.939,49.16,48.49,48.63,49c0.011-0.15,0.011-0.32,0.011-0.51
			c0-1.15-0.029-1.391-0.221-1.73c-0.189-0.318-0.3-0.39-0.609-0.39c-0.461,0-0.711,0.31-0.851,1.09l-1.14-1.14
			c0.398-0.75,1.08-1.16,1.988-1.17C49.01,45.141,49.811,45.92,50.109,47.359z"/>
		<path fill="#FFFFFF" d="M47.09,50.13c0.03,0.05,0.051,0.091,0.08,0.13c-0.359,0.271-0.729,0.521-1.109,0.76
			c-0.399-0.5-0.631-1.209-0.681-2.108c-0.06-1.08,0.091-1.96,0.44-2.591l1.14,1.141c-0.021,0.08-0.03,0.16-0.04,0.25
			C46.82,48.471,46.91,49.82,47.09,50.13z"/>
		<path fill="#FFFFFF" d="M44.66,49.16c0.07,0.93-0.051,1.359-0.561,1.91c-0.631,0.68-1.49,0.938-2.381,0.72
			c-0.76-0.181-1.3-0.601-1.689-1.34c-0.159-0.312-0.209-0.642-0.209-1.511c0-1,0.039-1.189,0.31-1.75
			c0.591-1.199,1.649-1.881,3.08-1.971l0.81-0.05l-0.028,0.54l-0.03,0.54l-0.68,0.12c-0.78,0.141-1.32,0.43-1.65,0.859
			c-0.27,0.369-0.18,0.51,0.21,0.33c0.4-0.181,1.45-0.16,1.841,0.039C44.221,47.88,44.6,48.49,44.66,49.16z M43.13,50
			c0.181-0.609-0.03-1.189-0.53-1.42c-0.35-0.17-0.398-0.17-0.77,0c-0.62,0.3-0.76,1.04-0.311,1.729
			c0.279,0.451,0.939,0.562,1.34,0.23C42.939,50.471,43.061,50.23,43.13,50z"/>
		<path fill="#FFFFFF" d="M40.3,35.58c0.4,0.79,0.421,0.9,0.421,1.91c0,1.02-0.021,1.12-0.421,1.92
			c-0.149,0.311-0.329,0.59-0.54,0.85l-6.23-6.23c0.25-0.2,0.54-0.37,0.86-0.53c0.79-0.4,0.9-0.42,1.91-0.42
			c0.97,0,1.14,0.03,1.812,0.35C39.15,33.93,39.8,34.56,40.3,35.58z"/>
		<path fill="#FFFFFF" d="M33.53,34.03l6.23,6.23c-0.779,1.01-1.89,1.59-3.2,1.65c-0.48,0.02-1.06-0.01-1.3-0.07
			c-0.71-0.18-1.72-0.77-2.2-1.3c-0.25-0.271-0.62-0.83-0.81-1.24c-0.32-0.68-0.36-0.85-0.36-1.81c0-0.96,0.04-1.13,0.36-1.8
			C32.58,34.98,32.99,34.45,33.53,34.03z"/>
		<path fill="#FFFFFF" d="M38.609,49.05c0.279,0.44,0.261,1.261-0.061,1.761c-0.51,0.819-2.03,1.239-3.39,0.939
			c-0.81-0.18-0.9-0.279-0.81-0.779c0.11-0.57,0.26-0.66,0.79-0.471c1.01,0.359,2.06,0.05,2.06-0.6c0-0.182-0.03-0.41-0.07-0.512
			c-0.1-0.27-0.64-0.51-1.14-0.51c-0.53,0-0.72-0.189-0.67-0.689c0.03-0.351,0.06-0.369,0.59-0.431c0.71-0.069,1.04-0.26,1.14-0.63
			c0.05-0.24,0.01-0.35-0.23-0.561c-0.35-0.301-0.84-0.33-1.5-0.1c-0.53,0.189-0.63,0.119-0.74-0.5c-0.07-0.351-0.05-0.41,0.2-0.521
			c0.47-0.219,1.64-0.379,2.12-0.299c1.66,0.27,2.26,1.68,1.169,2.729l-0.429,0.42l0.39,0.23C38.24,48.65,38.5,48.891,38.609,49.05z
			"/>
		<path fill="#FFFFFF" d="M32.85,49.359l-0.03,1.07c-0.03,0.859-0.07,1.08-0.2,1.1c-0.09,0.011-0.57-0.109-1.06-0.279
			c-2.21-0.77-3.88-1.82-5.59-3.529c-2.16-2.16-3.37-4.4-4.03-7.439c-0.28-1.32-0.28-4.26,0-5.57c0.66-3.04,1.87-5.29,4.03-7.44
			c0.13-0.13,0.27-0.27,0.4-0.39h0.01l1.56,1.56c-1.51,1.34-2.64,3.05-3.33,5.03c-0.5,1.41-0.65,2.34-0.65,4.02
			c0,0.84,0.07,1.858,0.16,2.29c0.83,4.189,3.72,7.64,7.69,9.17L32.85,49.359z"/>
	</g>
	<g>
		<polyline fill="none" stroke="#484B60" stroke-width="4" stroke-miterlimit="10" points="13.17,13.67 14.28,14.78 25.94,26.44 
			26.37,26.88 26.38,26.88 27.94,28.44 33.53,34.03 39.76,40.26 45.82,46.32 46.96,47.46 48.561,49.061 48.63,49.13 49.87,50.37 
			60.221,60.721 61.08,61.58 		"/>
	</g>
</g>
</svg>
