<?xml version="1.0" encoding="utf-8"?>
<!-- Generator: Adobe Illustrator 16.0.0, SVG Export Plug-In . SVG Version: 6.00 Build 0)  -->
<!DOCTYPE svg PUBLIC "-//W3C//DTD SVG 1.1//EN" "http://www.w3.org/Graphics/SVG/1.1/DTD/svg11.dtd">
<svg version="1.1" xmlns="http://www.w3.org/2000/svg" xmlns:xlink="http://www.w3.org/1999/xlink" x="0px" y="0px" width="1000px"
	 height="400px" viewBox="0 0 1000 400" enable-background="new 0 0 1000 400" xml:space="preserve">
<g id="Calque_5" display="none">
	<rect display="inline" width="1000" height="400"/>
</g>
<g id="Calque_3" display="none">
	<g display="inline">
		<path fill="#FFFFFF" d="M995,5v390H5V5H995 M1000,0H0v400h1000V0L1000,0z"/>
	</g>
</g>
<g id="Calque_1" display="none">
	<rect x="62.833" y="74.667" display="inline" fill="none" width="875.834" height="170.833"/>
	<text transform="matrix(1 0 0 1 62.833 214.5352)" display="inline"><tspan x="0" y="0" font-family="'MyriadPro-Regular'" font-size="197">Por</tspan><tspan x="277.374" y="0" font-family="'MyriadPro-Regular'" font-size="197">-</tspan></text>
	<rect x="76.5" y="244.666" display="inline" fill="none" width="875" height="65.002"/>
	<text transform="matrix(1 0 0 1 76.5 298.626)" display="inline" font-family="'MyriadPro-Regular'" font-size="76">Venez découvrir notre ville </text>
</g>
<g id="Calque_4">
	<g>
		<path fill="#FFFFFF" d="M74.52,151.293v57.957h-5.089V72.039h42.878c14.009,0,24.894,3.534,32.654,10.602
			c7.758,7.068,11.638,16.885,11.638,29.45c0,12.439-3.786,22.052-11.356,28.837c-7.571,6.785-18.329,10.241-32.276,10.366H74.52z
			 M74.52,146.204h37.79c12.376,0,22.004-2.983,28.884-8.953c6.879-5.968,10.319-14.292,10.319-24.973
			c0-11.057-3.44-19.68-10.319-25.869c-6.88-6.187-16.508-9.282-28.884-9.282H74.52V146.204z"/>
		<path fill="#FFFFFF" d="M173.752,156.288c0-9.737,1.869-18.485,5.607-26.245c3.737-7.759,9.014-13.806,15.832-18.141
			c6.816-4.335,14.527-6.502,23.135-6.502c8.543,0,16.209,2.105,22.994,6.314c6.785,4.21,12.077,10.178,15.879,17.905
			c3.8,7.728,5.732,16.43,5.795,26.104v4.523c0,9.801-1.854,18.565-5.56,26.292c-3.708,7.728-8.969,13.759-15.785,18.094
			c-6.817,4.335-14.529,6.503-23.135,6.503c-8.608,0-16.319-2.136-23.135-6.408c-6.818-4.272-12.11-10.256-15.879-17.953
			c-3.77-7.695-5.687-16.351-5.749-25.963V156.288z M178.841,160.246c0,8.481,1.68,16.256,5.042,23.324
			c3.36,7.067,8.041,12.581,14.041,16.539c5.999,3.958,12.864,5.937,20.591,5.937c11.622,0,21.093-4.365,28.413-13.099
			c7.318-8.732,10.979-19.979,10.979-33.737v-2.921c0-8.355-1.696-16.083-5.089-23.183c-3.393-7.099-8.09-12.643-14.088-16.633
			c-6-3.989-12.802-5.984-20.403-5.984c-11.624,0-21.109,4.429-28.46,13.288s-11.026,20.011-11.026,33.455V160.246z"/>
		<path fill="#FFFFFF" d="M332.638,111.053l-6.597-0.565c-8.67,0-15.926,2.81-21.769,8.427c-5.843,5.618-9.676,13.479-11.497,23.583
			v66.752h-5.089V107.284h5.089v21.204c2.764-7.099,6.91-12.722,12.439-16.869c5.528-4.146,12.47-6.22,20.827-6.22
			c2.952,0,5.339,0.352,7.162,1.056L332.638,111.053z"/>
		<path fill="#FFFFFF" d="M397.191,111.053l-6.597-0.565c-8.67,0-15.926,2.81-21.769,8.427c-5.843,5.618-9.676,13.479-11.497,23.583
			v66.752h-5.089V107.284h5.089v21.204c2.764-7.099,6.91-12.722,12.439-16.869c5.528-4.146,12.47-6.22,20.827-6.22
			c2.952,0,5.339,0.352,7.162,1.056L397.191,111.053z"/>
		<path fill="#FFFFFF" d="M451.661,211.135c-8.231,0-15.785-2.215-22.665-6.645c-6.879-4.429-12.267-10.507-16.162-18.235
			c-3.896-7.728-5.843-16.303-5.843-25.727v-4.241c0-9.424,1.885-18.062,5.654-25.916c3.77-7.853,8.953-13.978,15.549-18.376
			c6.597-4.397,13.79-6.597,21.581-6.597c11.371,0,20.669,4.052,27.895,12.157c7.224,8.104,10.837,18.753,10.837,31.947v5.372
			h-76.427v5.55c0,8.278,1.744,15.945,5.23,23c3.487,7.055,8.293,12.588,14.419,16.602c6.125,4.014,12.769,6.019,19.931,6.019
			c6.847,0,12.675-1.138,17.481-3.416c4.807-2.277,9.062-5.788,12.77-10.531l3.581,2.544
			C477.89,205.638,466.613,211.135,451.661,211.135z M449.776,110.488c-9.927,0-18.346,3.691-25.256,11.073
			c-6.912,7.383-10.964,16.791-12.157,28.224h71.056v-1.225c0-6.91-1.461-13.335-4.382-19.271
			c-2.922-5.938-6.943-10.555-12.063-13.854C461.854,112.137,456.121,110.488,449.776,110.488z"/>
		<path fill="#FFFFFF" d="M517.346,131.032c3.328-7.916,8.229-14.167,14.701-18.753c6.469-4.585,13.631-6.879,21.486-6.879
			c10.932,0,19.051,3.095,24.359,9.282c5.309,6.189,7.994,15.535,8.059,28.036v66.533h-5.09v-66.658
			c-0.063-10.92-2.293-19.001-6.691-24.243c-4.396-5.24-11.371-7.861-20.92-7.861c-8.797,0-16.414,3.123-22.854,9.368
			c-6.439,6.247-10.789,14.295-13.051,24.149v65.246h-5.09V107.284h5.09V131.032z"/>
		<path fill="#FFFFFF" d="M629.299,79.766v27.518h23.184v5.089h-23.184v72.447c0,7.233,1.18,12.579,3.535,16.038
			c2.355,3.458,6.297,5.187,11.826,5.187c2.764,0,6.125-0.282,10.084-0.848l0.848,4.807c-2.072,0.754-5.623,1.131-10.648,1.131
			c-7.414,0-12.723-2.059-15.926-6.18c-3.205-4.118-4.84-10.611-4.9-19.479v-73.104H605.27v-5.089h18.848V79.766H629.299z"/>
		<path fill="#FFFFFF" d="M723.914,111.053l-6.596-0.565c-8.67,0-15.926,2.81-21.77,8.427c-5.842,5.618-9.676,13.479-11.496,23.583
			v66.752h-5.09V107.284h5.09v21.204c2.764-7.099,6.91-12.722,12.439-16.869c5.527-4.146,12.471-6.22,20.826-6.22
			c2.953,0,5.34,0.352,7.162,1.056L723.914,111.053z"/>
		<path fill="#FFFFFF" d="M811.838,209.25v-16.492c-3.016,5.654-7.412,10.131-13.193,13.43c-5.779,3.297-13.098,4.947-21.957,4.947
			c-11.119,0-19.459-3.252-25.02-9.754c-5.561-6.502-8.404-15.974-8.529-28.413v-65.684h5.09v65.873
			c0.125,10.807,2.574,18.989,7.35,24.549c4.773,5.56,11.748,8.339,20.922,8.339c9.736,0,17.652-2.292,23.748-6.879
			c6.092-4.585,9.957-11.309,11.59-20.167v-71.715h5.184V209.25H811.838z"/>
		<path fill="#FFFFFF" d="M880.35,201.334l0.66-1.885l35.244-92.165h5.654l-45.611,119.683l-2.262,5.654
			c-4.9,11.873-13.004,17.81-24.313,17.81c-3.645,0-6.158-0.352-7.539-1.055l-0.096-4.882c2.012,0.566,4.303,0.849,6.881,0.849
			c5.338,0,9.768-1.552,13.287-4.653c3.518-3.102,6.564-8.162,9.141-15.18l6.221-16.826L837,107.284h5.561L880.35,201.334z"/>
	</g>
	<g>
		<path fill="#FFFFFF" d="M90.536,321.152l0.297,1.15l0.334-1.15l16.996-47.352h5.01L93.06,327.832h-4.379l-20.113-54.031h4.973
			L90.536,321.152z"/>
		<path fill="#FFFFFF" d="M132.471,328.574c-3.414,0-6.5-0.84-9.259-2.523c-2.759-1.682-4.905-4.025-6.438-7.031
			c-1.534-3.006-2.301-6.377-2.301-10.113v-1.596c0-3.859,0.748-7.334,2.245-10.428c1.497-3.092,3.581-5.522,6.253-7.291
			c2.672-1.77,5.566-2.654,8.684-2.654c4.874,0,8.739,1.664,11.597,4.992c2.857,3.327,4.286,7.873,4.286,13.637v2.486h-28.648v0.854
			c0,4.553,1.305,8.344,3.915,11.375c2.61,3.03,5.894,4.545,9.853,4.545c2.375,0,4.472-0.432,6.29-1.299
			c1.818-0.865,3.47-2.25,4.954-4.156l2.783,2.115C143.418,326.213,138.681,328.574,132.471,328.574z M131.655,290.723
			c-3.34,0-6.154,1.225-8.442,3.674c-2.289,2.449-3.68,5.74-4.175,9.871h24.084v-0.482c-0.124-3.859-1.225-7-3.303-9.426
			C137.741,291.936,135.019,290.723,131.655,290.723z"/>
		<path fill="#FFFFFF" d="M158.895,287.68l0.148,6.865c1.509-2.473,3.389-4.359,5.641-5.658c2.251-1.299,4.737-1.949,7.459-1.949
			c4.305,0,7.508,1.213,9.611,3.637c2.103,2.426,3.167,6.063,3.191,10.91v26.348h-4.416v-26.385
			c-0.025-3.586-0.786-6.258-2.282-8.016c-1.497-1.756-3.891-2.635-7.181-2.635c-2.746,0-5.177,0.86-7.292,2.58
			c-2.115,1.719-3.68,4.039-4.694,6.957v27.498h-4.416V287.68H158.895z"/>
		<path fill="#FFFFFF" d="M210.441,328.574c-3.414,0-6.5-0.84-9.259-2.523c-2.759-1.682-4.905-4.025-6.438-7.031
			c-1.534-3.006-2.301-6.377-2.301-10.113v-1.596c0-3.859,0.748-7.334,2.245-10.428c1.497-3.092,3.581-5.522,6.253-7.291
			c2.672-1.77,5.566-2.654,8.684-2.654c4.874,0,8.739,1.664,11.597,4.992c2.857,3.327,4.286,7.873,4.286,13.637v2.486h-28.648v0.854
			c0,4.553,1.305,8.344,3.915,11.375c2.61,3.03,5.894,4.545,9.853,4.545c2.375,0,4.472-0.432,6.29-1.299
			c1.818-0.865,3.47-2.25,4.954-4.156l2.783,2.115C221.388,326.213,216.65,328.574,210.441,328.574z M209.625,290.723
			c-3.34,0-6.154,1.225-8.442,3.674c-2.289,2.449-3.68,5.74-4.175,9.871h24.084v-0.482c-0.124-3.859-1.225-7-3.303-9.426
			C215.71,291.936,212.989,290.723,209.625,290.723z"/>
		<path fill="#FFFFFF" d="M235.565,324.084h26.088v3.748h-31.58v-3.266l24.344-33.027h-23.602v-3.859h29.205v3.335L235.565,324.084z
			"/>
		<path fill="#FFFFFF" d="M283.254,307.385c0-6.234,1.392-11.2,4.175-14.898c2.783-3.699,6.562-5.549,11.337-5.549
			c5.418,0,9.549,2.141,12.395,6.42v-22.525h4.416v57h-4.156l-0.186-5.344c-2.845,4.059-7.026,6.086-12.543,6.086
			c-4.626,0-8.356-1.861-11.188-5.584c-2.833-3.724-4.249-8.752-4.249-15.086V307.385z M287.744,308.164
			c0,5.121,1.026,9.16,3.08,12.117c2.053,2.956,4.948,4.434,8.684,4.434c5.467,0,9.352-2.412,11.652-7.236v-18.852
			c-2.301-5.219-6.16-7.83-11.578-7.83c-3.736,0-6.643,1.467-8.721,4.398S287.744,302.449,287.744,308.164z"/>
		<path fill="#FFFFFF" d="M341.294,328.574c-3.414,0-6.5-0.84-9.259-2.523c-2.759-1.682-4.905-4.025-6.438-7.031
			c-1.534-3.006-2.301-6.377-2.301-10.113v-1.596c0-3.859,0.748-7.334,2.245-10.428c1.497-3.092,3.581-5.522,6.253-7.291
			c2.672-1.77,5.566-2.654,8.684-2.654c4.874,0,8.739,1.664,11.597,4.992c2.857,3.327,4.286,7.873,4.286,13.637v2.486h-28.648v0.854
			c0,4.553,1.305,8.344,3.915,11.375c2.61,3.03,5.894,4.545,9.853,4.545c2.375,0,4.472-0.432,6.29-1.299
			c1.818-0.865,3.47-2.25,4.954-4.156l2.783,2.115C352.242,326.213,347.504,328.574,341.294,328.574z M340.478,290.723
			c-3.34,0-6.154,1.225-8.442,3.674c-2.289,2.449-3.68,5.74-4.175,9.871h24.084v-0.482c-0.124-3.859-1.225-7-3.303-9.426
			C346.564,291.936,343.842,290.723,340.478,290.723z M345.414,271.277h5.381l-8.572,10.354l-3.896-0.018L345.414,271.277z"/>
		<path fill="#FFFFFF" d="M378.331,324.826c3.092,0,5.684-0.871,7.774-2.615c2.09-1.744,3.222-4.002,3.396-6.773h4.268
			c-0.124,2.449-0.891,4.683-2.301,6.699c-1.41,2.016-3.284,3.594-5.622,4.73c-2.338,1.139-4.843,1.707-7.515,1.707
			c-5.27,0-9.444-1.83-12.524-5.492c-3.08-3.66-4.62-8.584-4.62-14.77v-1.336c0-3.957,0.692-7.459,2.078-10.502
			c1.385-3.043,3.371-5.393,5.956-7.051c2.585-1.656,5.609-2.486,9.073-2.486c4.403,0,8.034,1.313,10.892,3.934
			c2.857,2.623,4.385,6.074,4.583,10.354h-4.268c-0.198-3.141-1.33-5.678-3.396-7.607c-2.066-1.93-4.67-2.895-7.812-2.895
			c-4.008,0-7.119,1.447-9.333,4.342c-2.214,2.895-3.321,6.953-3.321,12.172v1.299c0,5.121,1.107,9.117,3.321,11.986
			C371.175,323.393,374.298,324.826,378.331,324.826z"/>
		<path fill="#FFFFFF" d="M398.668,307.162c0-3.859,0.748-7.334,2.245-10.428c1.497-3.092,3.612-5.498,6.346-7.217
			c2.733-1.72,5.832-2.58,9.296-2.58c5.344,0,9.673,1.875,12.988,5.623c3.315,3.748,4.973,8.715,4.973,14.898v0.928
			c0,3.885-0.749,7.379-2.245,10.484c-1.497,3.104-3.606,5.498-6.327,7.18c-2.722,1.684-5.826,2.523-9.314,2.523
			c-5.319,0-9.643-1.873-12.97-5.621c-3.328-3.748-4.991-8.715-4.991-14.9V307.162z M403.122,308.387
			c0,4.801,1.243,8.74,3.729,11.82s5.746,4.619,9.778,4.619c4.008,0,7.255-1.539,9.741-4.619s3.729-7.145,3.729-12.191v-0.854
			c0-3.066-0.569-5.875-1.707-8.424c-1.138-2.547-2.734-4.521-4.787-5.918c-2.054-1.398-4.404-2.098-7.051-2.098
			c-3.958,0-7.187,1.553-9.686,4.658c-2.499,3.104-3.748,7.168-3.748,12.189V308.387z"/>
		<path fill="#FFFFFF" d="M467.99,322.748c-2.672,3.885-6.939,5.826-12.803,5.826c-4.28,0-7.533-1.242-9.76-3.729
			s-3.365-6.166-3.414-11.041V287.68h4.416v25.568c0,7.645,3.092,11.467,9.277,11.467c6.432,0,10.502-2.658,12.209-7.979V287.68
			h4.453v40.152h-4.305L467.99,322.748z"/>
		<path fill="#FFFFFF" d="M494.896,321.709l12.208-34.029h4.564l-14.992,40.152h-3.6l-15.066-40.152h4.564L494.896,321.709z"/>
		<path fill="#FFFFFF" d="M535.978,291.465c-0.94-0.172-1.942-0.26-3.006-0.26c-2.771,0-5.115,0.773-7.032,2.32
			c-1.918,1.546-3.284,3.791-4.101,6.734v27.572h-4.416V287.68h4.342l0.074,6.383c2.35-4.75,6.123-7.125,11.318-7.125
			c1.236,0,2.214,0.162,2.932,0.482L535.978,291.465z"/>
		<path fill="#FFFFFF" d="M541.212,276.084c0-0.836,0.271-1.543,0.816-2.121c0.544-0.577,1.286-0.867,2.227-0.867
			c0.939,0,1.688,0.29,2.245,0.867c0.557,0.578,0.835,1.285,0.835,2.121s-0.278,1.536-0.835,2.102
			c-0.557,0.566-1.306,0.848-2.245,0.848c-0.94,0-1.683-0.281-2.227-0.848C541.483,277.62,541.212,276.92,541.212,276.084z
			 M546.444,327.832h-4.453V287.68h4.453V327.832z"/>
		<path fill="#FFFFFF" d="M575.539,291.465c-0.94-0.172-1.942-0.26-3.006-0.26c-2.771,0-5.115,0.773-7.032,2.32
			c-1.918,1.546-3.284,3.791-4.101,6.734v27.572h-4.416V287.68h4.342l0.074,6.383c2.35-4.75,6.123-7.125,11.318-7.125
			c1.236,0,2.214,0.162,2.932,0.482L575.539,291.465z"/>
		<path fill="#FFFFFF" d="M602.224,287.68l0.148,6.865c1.509-2.473,3.389-4.359,5.641-5.658c2.251-1.299,4.737-1.949,7.459-1.949
			c4.305,0,7.508,1.213,9.611,3.637c2.103,2.426,3.166,6.063,3.191,10.91v26.348h-4.416v-26.385
			c-0.025-3.586-0.786-6.258-2.282-8.016c-1.497-1.756-3.891-2.635-7.181-2.635c-2.746,0-5.177,0.86-7.292,2.58
			c-2.115,1.719-3.681,4.039-4.694,6.957v27.498h-4.416V287.68H602.224z"/>
		<path fill="#FFFFFF" d="M635.772,307.162c0-3.859,0.748-7.334,2.245-10.428c1.496-3.092,3.611-5.498,6.346-7.217
			c2.733-1.72,5.832-2.58,9.296-2.58c5.344,0,9.673,1.875,12.988,5.623c3.314,3.748,4.973,8.715,4.973,14.898v0.928
			c0,3.885-0.749,7.379-2.245,10.484c-1.497,3.104-3.606,5.498-6.327,7.18c-2.722,1.684-5.826,2.523-9.314,2.523
			c-5.319,0-9.643-1.873-12.97-5.621c-3.328-3.748-4.991-8.715-4.991-14.9V307.162z M640.226,308.387
			c0,4.801,1.243,8.74,3.729,11.82s5.745,4.619,9.778,4.619c4.008,0,7.255-1.539,9.741-4.619s3.729-7.145,3.729-12.191v-0.854
			c0-3.066-0.569-5.875-1.707-8.424c-1.139-2.547-2.734-4.521-4.787-5.918c-2.054-1.398-4.404-2.098-7.051-2.098
			c-3.959,0-7.188,1.553-9.686,4.658c-2.499,3.104-3.748,7.168-3.748,12.189V308.387z"/>
		<path fill="#FFFFFF" d="M686.168,277.4v10.279h8.313v3.637h-8.313v26.786c0,2.229,0.401,3.889,1.206,4.978
			c0.804,1.091,2.146,1.635,4.026,1.635c0.742,0,1.941-0.123,3.6-0.371l0.186,3.605c-1.163,0.416-2.746,0.625-4.75,0.625
			c-3.043,0-5.258-0.884-6.643-2.652c-1.386-1.77-2.078-4.373-2.078-7.813v-26.793h-7.385v-3.637h7.385V277.4H686.168z"/>
		<path fill="#FFFFFF" d="M720.719,291.465c-0.94-0.172-1.942-0.26-3.006-0.26c-2.771,0-5.115,0.773-7.032,2.32
			c-1.918,1.546-3.284,3.791-4.101,6.734v27.572h-4.416V287.68h4.342l0.074,6.383c2.35-4.75,6.123-7.125,11.318-7.125
			c1.236,0,2.214,0.162,2.932,0.482L720.719,291.465z"/>
		<path fill="#FFFFFF" d="M741.056,328.574c-3.414,0-6.501-0.84-9.259-2.523c-2.759-1.682-4.905-4.025-6.438-7.031
			c-1.534-3.006-2.301-6.377-2.301-10.113v-1.596c0-3.859,0.748-7.334,2.245-10.428c1.496-3.092,3.581-5.522,6.253-7.291
			c2.672-1.77,5.566-2.654,8.684-2.654c4.873,0,8.739,1.664,11.597,4.992c2.857,3.327,4.286,7.873,4.286,13.637v2.486h-28.648v0.854
			c0,4.553,1.305,8.344,3.915,11.375c2.609,3.03,5.894,4.545,9.853,4.545c2.375,0,4.472-0.432,6.29-1.299
			c1.818-0.865,3.47-2.25,4.954-4.156l2.783,2.115C752.003,326.213,747.265,328.574,741.056,328.574z M740.239,290.723
			c-3.34,0-6.154,1.225-8.442,3.674c-2.289,2.449-3.681,5.74-4.175,9.871h24.084v-0.482c-0.124-3.859-1.225-7-3.303-9.426
			C746.325,291.936,743.604,290.723,740.239,290.723z"/>
		<path fill="#FFFFFF" d="M792.715,321.709l12.209-34.029h4.564l-14.992,40.152h-3.6L775.83,287.68h4.564L792.715,321.709z"/>
		<path fill="#FFFFFF" d="M814.982,276.084c0-0.836,0.271-1.543,0.816-2.121c0.544-0.577,1.286-0.867,2.227-0.867
			c0.939,0,1.688,0.29,2.245,0.867c0.557,0.578,0.835,1.285,0.835,2.121s-0.278,1.536-0.835,2.102
			c-0.557,0.566-1.306,0.848-2.245,0.848c-0.94,0-1.683-0.281-2.227-0.848C815.254,277.62,814.982,276.92,814.982,276.084z
			 M820.215,327.832h-4.453V287.68h4.453V327.832z"/>
		<path fill="#FFFFFF" d="M835.728,327.832h-4.453v-57h4.453V327.832z"/>
		<path fill="#FFFFFF" d="M851.241,327.832h-4.453v-57h4.453V327.832z"/>
		<path fill="#FFFFFF" d="M877.331,328.574c-3.414,0-6.501-0.84-9.259-2.523c-2.759-1.682-4.905-4.025-6.438-7.031
			c-1.534-3.006-2.301-6.377-2.301-10.113v-1.596c0-3.859,0.748-7.334,2.245-10.428c1.496-3.092,3.581-5.522,6.253-7.291
			c2.672-1.77,5.566-2.654,8.684-2.654c4.873,0,8.739,1.664,11.597,4.992c2.857,3.327,4.286,7.873,4.286,13.637v2.486h-28.648v0.854
			c0,4.553,1.305,8.344,3.915,11.375c2.609,3.03,5.894,4.545,9.853,4.545c2.375,0,4.472-0.432,6.29-1.299
			c1.818-0.865,3.47-2.25,4.954-4.156l2.783,2.115C888.278,326.213,883.54,328.574,877.331,328.574z M876.515,290.723
			c-3.34,0-6.154,1.225-8.442,3.674c-2.289,2.449-3.681,5.74-4.175,9.871h24.084v-0.482c-0.124-3.859-1.225-7-3.303-9.426
			C882.601,291.936,879.879,290.723,876.515,290.723z"/>
		<path fill="#FFFFFF" d="M916.373,325.217c0-0.847,0.271-1.563,0.816-2.146c0.544-0.586,1.286-0.879,2.227-0.879
			c0.939,0,1.688,0.293,2.245,0.879c0.557,0.584,0.835,1.3,0.835,2.146c0,0.822-0.278,1.512-0.835,2.072s-1.306,0.84-2.245,0.84
			c-0.94,0-1.683-0.279-2.227-0.84C916.645,326.729,916.373,326.039,916.373,325.217z M921.234,312.766h-4.119l-0.223-38.965h4.602
			L921.234,312.766z"/>
	</g>
</g>
<g id="Calque_2" display="none">
	<rect x="62.833" y="74.667" display="inline" fill="none" width="875.834" height="170.833"/>
	<text transform="matrix(1 0 0 1 62.833 214.5352)" display="inline"><tspan x="0" y="0" font-family="'MyriadPro-Regular'" font-size="197">Por</tspan><tspan x="277.374" y="0" font-family="'MyriadPro-Regular'" font-size="197">-</tspan></text>
	<rect x="63.5" y="260.666" display="inline" fill="none" width="875" height="65.002"/>
	<text transform="matrix(1 0 0 1 63.5 314.626)" display="inline" font-family="'MyriadPro-Regular'" font-size="76">Venez découvrir notre ville </text>
</g>
</svg>
