<?xml version="1.0" encoding="utf-8"?>
<!-- Generator: Adobe Illustrator 19.1.1, SVG Export Plug-In . SVG Version: 6.00 Build 0)  -->
<svg version="1.1" xmlns="http://www.w3.org/2000/svg" xmlns:xlink="http://www.w3.org/1999/xlink" x="0px" y="0px"
	 viewBox="0 0 1000 400" enable-background="new 0 0 1000 400" xml:space="preserve">
<g id="Calque_5" display="none">
	<rect display="inline" width="1000" height="400"/>
</g>
<g id="Calque_3" display="none">
	<g display="inline">
		<path fill="#FFFFFF" d="M995,5v390H5V5H995 M1000,0H0v400h1000V0L1000,0z"/>
	</g>
</g>
<g id="Calque_1" display="none">
	<rect x="62.833" y="74.666" display="inline" fill="none" width="875.834" height="170.833"/>
	<text transform="matrix(1 0 0 1 62.833 214.5347)" display="inline"><tspan x="0" y="0" font-family="'MyriadPro-Regular'" font-size="197px">Por</tspan><tspan x="277.374" y="0" font-family="'MyriadPro-Regular'" font-size="197px">-</tspan></text>
	<rect x="76.5" y="244.666" display="inline" fill="none" width="875" height="65.002"/>
	<text transform="matrix(1 0 0 1 76.5 298.626)" display="inline" font-family="'MyriadPro-Regular'" font-size="76px">Venez découvrir notre ville </text>
</g>
<g id="Calque_4">
	<g>
		<path fill="#FFFFFF" d="M74.52,151.293v57.957h-5.089V72.039h42.878c14.009,0,24.894,3.534,32.654,10.602
			c7.758,7.068,11.638,16.885,11.638,29.45c0,12.439-3.786,22.052-11.356,28.837c-7.571,6.785-18.329,10.241-32.276,10.366H74.52z
			 M74.52,146.204h37.79c12.376,0,22.004-2.983,28.884-8.953c6.879-5.968,10.319-14.292,10.319-24.973
			c0-11.057-3.44-19.68-10.319-25.869c-6.88-6.187-16.508-9.282-28.884-9.282H74.52V146.204z"/>
		<path fill="#FFFFFF" d="M173.752,156.288c0-9.737,1.869-18.485,5.607-26.245c3.737-7.759,9.014-13.806,15.832-18.141
			c6.816-4.335,14.527-6.502,23.135-6.502c8.543,0,16.209,2.105,22.994,6.314c6.785,4.21,12.077,10.178,15.879,17.905
			c3.8,7.728,5.732,16.43,5.795,26.104v4.523c0,9.801-1.854,18.565-5.56,26.292c-3.708,7.728-8.969,13.759-15.785,18.094
			c-6.817,4.335-14.529,6.503-23.135,6.503c-8.608,0-16.319-2.136-23.135-6.408c-6.818-4.272-12.11-10.256-15.879-17.953
			c-3.77-7.695-5.687-16.351-5.749-25.963V156.288z M178.841,160.246c0,8.481,1.68,16.256,5.042,23.324
			c3.36,7.067,8.041,12.581,14.041,16.539c5.999,3.958,12.864,5.938,20.591,5.938c11.622,0,21.093-4.366,28.413-13.1
			c7.318-8.732,10.979-19.979,10.979-33.737v-2.921c0-8.355-1.696-16.083-5.089-23.183c-3.393-7.099-8.09-12.643-14.088-16.633
			c-6-3.989-12.802-5.984-20.403-5.984c-11.624,0-21.109,4.429-28.46,13.288s-11.026,20.011-11.026,33.455V160.246z"/>
		<path fill="#FFFFFF" d="M332.638,111.053l-6.597-0.565c-8.67,0-15.926,2.81-21.769,8.427c-5.843,5.618-9.676,13.479-11.497,23.583
			v66.752h-5.089V107.284h5.089v21.204c2.764-7.099,6.91-12.722,12.439-16.869c5.528-4.146,12.47-6.22,20.827-6.22
			c2.952,0,5.339,0.352,7.162,1.056L332.638,111.053z"/>
		<path fill="#FFFFFF" d="M397.191,111.053l-6.597-0.565c-8.67,0-15.926,2.81-21.769,8.427c-5.843,5.618-9.676,13.479-11.497,23.583
			v66.752h-5.089V107.284h5.089v21.204c2.764-7.099,6.91-12.722,12.439-16.869c5.528-4.146,12.47-6.22,20.827-6.22
			c2.952,0,5.339,0.352,7.162,1.056L397.191,111.053z"/>
		<path fill="#FFFFFF" d="M451.661,211.135c-8.231,0-15.785-2.215-22.665-6.644c-6.879-4.43-12.267-10.508-16.162-18.236
			c-3.896-7.728-5.843-16.303-5.843-25.727v-4.241c0-9.424,1.885-18.062,5.654-25.916c3.77-7.853,8.953-13.978,15.549-18.376
			c6.597-4.397,13.79-6.597,21.581-6.597c11.371,0,20.669,4.052,27.895,12.157c7.224,8.104,10.837,18.753,10.837,31.947v5.372
			h-76.427v5.55c0,8.278,1.744,15.945,5.23,23c3.487,7.055,8.293,12.588,14.419,16.602c6.125,4.014,12.769,6.02,19.931,6.02
			c6.847,0,12.675-1.139,17.481-3.416c4.807-2.278,9.062-5.789,12.77-10.532l3.581,2.544
			C477.89,205.638,466.613,211.135,451.661,211.135z M449.776,110.488c-9.927,0-18.346,3.691-25.256,11.073
			c-6.912,7.383-10.964,16.791-12.157,28.224h71.056v-1.225c0-6.91-1.461-13.335-4.382-19.271
			c-2.922-5.938-6.943-10.555-12.063-13.854C461.854,112.137,456.121,110.488,449.776,110.488z"/>
		<path fill="#FFFFFF" d="M517.345,131.032c3.329-7.916,8.229-14.167,14.701-18.753c6.47-4.585,13.632-6.879,21.486-6.879
			c10.932,0,19.051,3.095,24.36,9.282c5.309,6.189,7.994,15.535,8.058,28.036v66.533h-5.089v-66.658
			c-0.063-10.92-2.294-19.001-6.691-24.243c-4.397-5.24-11.371-7.861-20.92-7.861c-8.797,0-16.414,3.123-22.854,9.368
			c-6.44,6.247-10.79,14.295-13.052,24.149v65.246h-5.089V107.284h5.089V131.032z"/>
		<path fill="#FFFFFF" d="M629.299,79.766v27.518h23.184v5.089h-23.184v72.447c0,7.233,1.179,12.579,3.534,16.038
			c2.356,3.459,6.298,5.188,11.827,5.188c2.764,0,6.125-0.283,10.084-0.849l0.848,4.807c-2.073,0.754-5.623,1.131-10.648,1.131
			c-7.414,0-12.723-2.059-15.927-6.179c-3.204-4.119-4.839-10.612-4.9-19.479v-73.104h-18.848v-5.089h18.848V79.766H629.299z"/>
		<path fill="#FFFFFF" d="M723.914,111.053l-6.596-0.565c-8.67,0-15.927,2.81-21.77,8.427c-5.843,5.618-9.676,13.479-11.497,23.583
			v66.752h-5.089V107.284h5.089v21.204c2.764-7.099,6.91-12.722,12.439-16.869c5.527-4.146,12.471-6.22,20.827-6.22
			c2.952,0,5.339,0.352,7.162,1.056L723.914,111.053z"/>
		<path fill="#FFFFFF" d="M811.838,209.25v-16.492c-3.016,5.654-7.413,10.131-13.193,13.43c-5.78,3.298-13.099,4.947-21.957,4.947
			c-11.12,0-19.46-3.251-25.021-9.754c-5.56-6.502-8.403-15.974-8.528-28.413v-65.684h5.089v65.873
			c0.125,10.807,2.575,18.989,7.351,24.549c4.773,5.56,11.747,8.34,20.921,8.34c9.737,0,17.653-2.293,23.748-6.88
			c6.093-4.585,9.957-11.309,11.591-20.167v-71.715h5.184V209.25H811.838z"/>
		<path fill="#FFFFFF" d="M880.35,201.334l0.659-1.885l35.245-92.165h5.654l-45.611,119.683l-2.262,5.654
			c-4.9,11.874-13.005,17.81-24.313,17.81c-3.645,0-6.158-0.352-7.539-1.055l-0.095-4.881c2.011,0.565,4.303,0.848,6.88,0.848
			c5.339,0,9.769-1.552,13.288-4.652c3.518-3.103,6.563-8.162,9.141-15.18l6.22-16.826L837,107.284h5.56L880.35,201.334z"/>
	</g>
	<g>
		<path fill="#FFFFFF" d="M102.634,300.703H78.36v21.172h27.91v3.707H73.976v-51.898h32.116v3.707H78.36v19.605h24.274V300.703z"/>
		<path fill="#FFFFFF" d="M117.107,287.016l0.143,6.594c1.449-2.376,3.255-4.188,5.418-5.436c2.162-1.248,4.55-1.871,7.165-1.871
			c4.135,0,7.212,1.164,9.232,3.492c2.02,2.33,3.042,5.822,3.065,10.48v25.307h-4.242v-25.343c-0.024-3.445-0.755-6.012-2.192-7.699
			c-1.438-1.687-3.737-2.53-6.897-2.53c-2.638,0-4.973,0.826-7.004,2.477c-2.032,1.652-3.535,3.88-4.509,6.684v26.412h-4.242
			v-38.566H117.107z"/>
		<path fill="#FFFFFF" d="M158.313,277.142v9.874h7.984v3.492h-7.984v25.729c0,2.142,0.386,3.735,1.158,4.782
			c0.772,1.047,2.062,1.569,3.868,1.569c0.713,0,1.865-0.118,3.458-0.355l0.178,3.463c-1.117,0.399-2.638,0.6-4.563,0.6
			c-2.923,0-5.05-0.849-6.38-2.549c-1.331-1.697-1.996-4.199-1.996-7.502v-25.736h-7.093v-3.492h7.093v-9.874H158.313z"/>
		<path fill="#FFFFFF" d="M171.967,305.942c0-5.988,1.337-10.759,4.01-14.312c2.674-3.552,6.303-5.328,10.89-5.328
			c5.204,0,9.172,2.055,11.905,6.166v-21.637h4.242v54.75h-3.992l-0.178-5.133c-2.733,3.898-6.749,5.846-12.048,5.846
			c-4.444,0-8.026-1.787-10.747-5.363c-2.721-3.576-4.081-8.406-4.081-14.49V305.942z M176.28,306.691
			c0,4.918,0.986,8.799,2.958,11.637c1.972,2.841,4.752,4.26,8.341,4.26c5.251,0,8.982-2.316,11.192-6.95V297.53
			c-2.21-5.014-5.917-7.521-11.121-7.521c-3.588,0-6.38,1.408-8.376,4.223C177.278,297.049,176.28,301.201,176.28,306.691z"/>
		<path fill="#FFFFFF" d="M227.716,326.295c-3.279,0-6.244-0.807-8.893-2.424c-2.65-1.615-4.711-3.867-6.185-6.754
			c-1.474-2.887-2.21-6.125-2.21-9.713v-1.533c0-3.707,0.718-7.045,2.156-10.016c1.438-2.971,3.44-5.305,6.006-7.004
			s5.347-2.549,8.341-2.549c4.681,0,8.394,1.598,11.139,4.793c2.744,3.197,4.117,7.563,4.117,13.1v2.389H214.67v0.82
			c0,4.372,1.253,8.014,3.76,10.924c2.507,2.912,5.662,4.367,9.464,4.367c2.281,0,4.295-0.416,6.042-1.248
			c1.746-0.831,3.333-2.162,4.758-3.992l2.673,2.032C238.231,324.026,233.681,326.295,227.716,326.295z M226.932,289.938
			c-3.208,0-5.912,1.177-8.109,3.529c-2.199,2.353-3.535,5.514-4.01,9.481h23.133v-0.464c-0.119-3.707-1.176-6.725-3.172-9.053
			C232.778,291.103,230.164,289.938,226.932,289.938z"/>
		<path fill="#FFFFFF" d="M263.291,322.695c2.97,0,5.459-0.838,7.468-2.514c2.007-1.674,3.095-3.843,3.261-6.504h4.099
			c-0.119,2.352-0.855,4.497-2.21,6.434c-1.354,1.938-3.154,3.451-5.4,4.545c-2.245,1.092-4.651,1.639-7.218,1.639
			c-5.062,0-9.071-1.758-12.03-5.275c-2.958-3.516-4.438-8.245-4.438-14.186v-1.283c0-3.803,0.665-7.165,1.996-10.088
			c1.331-2.923,3.237-5.18,5.721-6.772c2.483-1.592,5.388-2.388,8.715-2.388c4.229,0,7.717,1.26,10.461,3.777
			c2.745,2.52,4.212,5.834,4.402,9.945h-4.099c-0.19-3.018-1.278-5.453-3.261-7.307c-1.985-1.854-4.486-2.781-7.503-2.781
			c-3.85,0-6.838,1.391-8.964,4.171c-2.127,2.78-3.19,6.678-3.19,11.691v1.247c0,4.92,1.063,8.758,3.19,11.514
			C256.417,321.317,259.417,322.695,263.291,322.695z"/>
		<path fill="#FFFFFF" d="M294.339,306.156l-4.883,4.705v14.721h-4.277v-54.75h4.277v35.039l4.028-4.349l14.757-14.507h5.382
			l-16.361,16.254l17.787,22.313h-5.097L294.339,306.156z"/>
		<path fill="#FFFFFF" d="M333.691,326.295c-3.279,0-6.244-0.807-8.893-2.424c-2.65-1.615-4.711-3.867-6.185-6.754
			c-1.474-2.887-2.21-6.125-2.21-9.713v-1.533c0-3.707,0.718-7.045,2.156-10.016c1.438-2.971,3.44-5.305,6.006-7.004
			s5.347-2.549,8.341-2.549c4.681,0,8.394,1.598,11.139,4.793c2.744,3.197,4.117,7.563,4.117,13.1v2.389h-27.518v0.82
			c0,4.372,1.253,8.014,3.76,10.924c2.507,2.912,5.662,4.367,9.464,4.367c2.281,0,4.295-0.416,6.042-1.248
			c1.746-0.831,3.333-2.162,4.758-3.992l2.673,2.032C344.207,324.026,339.656,326.295,333.691,326.295z M332.907,289.938
			c-3.208,0-5.912,1.177-8.109,3.529c-2.199,2.353-3.535,5.514-4.01,9.481h23.133v-0.464c-0.119-3.707-1.176-6.725-3.172-9.053
			C338.753,291.103,336.139,289.938,332.907,289.938z"/>
		<path fill="#FFFFFF" d="M359.072,287.016l0.143,6.594c1.449-2.376,3.255-4.188,5.418-5.436c2.162-1.248,4.55-1.871,7.165-1.871
			c4.135,0,7.212,1.164,9.232,3.492c2.02,2.33,3.042,5.822,3.065,10.48v25.307h-4.242v-25.343c-0.024-3.445-0.755-6.012-2.192-7.699
			c-1.438-1.687-3.737-2.53-6.897-2.53c-2.638,0-4.973,0.826-7.004,2.477c-2.032,1.652-3.535,3.88-4.509,6.684v26.412h-4.242
			v-38.566H359.072z"/>
		<path fill="#FFFFFF" d="M440.309,312.822c0-2.875-1.01-5.15-3.03-6.826c-2.02-1.676-5.715-3.268-11.085-4.777
			c-5.371-1.508-9.292-3.154-11.763-4.936c-3.517-2.52-5.275-5.822-5.275-9.91c0-3.968,1.633-7.193,4.901-9.678
			c3.267-2.482,7.443-3.725,12.529-3.725c3.445,0,6.528,0.666,9.25,1.996c2.721,1.332,4.83,3.186,6.327,5.561
			c1.497,2.377,2.246,5.026,2.246,7.949h-4.42c0-3.551-1.212-6.405-3.636-8.563s-5.68-3.236-9.767-3.236
			c-3.969,0-7.129,0.887-9.481,2.66s-3.529,4.088-3.529,6.943c0,2.643,1.057,4.797,3.172,6.463
			c2.115,1.666,5.501,3.136,10.159,4.409c4.657,1.272,8.186,2.593,10.586,3.96c2.4,1.366,4.206,3,5.418,4.9
			c1.212,1.901,1.818,4.146,1.818,6.736c0,4.088-1.634,7.367-4.901,9.838c-3.268,2.473-7.574,3.707-12.921,3.707
			c-3.66,0-7.017-0.653-10.069-1.96c-3.054-1.307-5.371-3.137-6.951-5.489c-1.581-2.353-2.37-5.049-2.37-8.092h4.384
			c0,3.66,1.366,6.547,4.099,8.662c2.732,2.115,6.368,3.172,10.907,3.172c4.04,0,7.283-0.891,9.731-2.673
			C439.084,318.133,440.309,315.769,440.309,312.822z"/>
		<path fill="#FFFFFF" d="M451.467,275.877c0-0.804,0.261-1.482,0.784-2.037c0.522-0.555,1.235-0.833,2.139-0.833
			c0.903,0,1.622,0.278,2.157,0.833c0.534,0.555,0.802,1.233,0.802,2.037c0,0.803-0.268,1.475-0.802,2.018
			c-0.535,0.545-1.254,0.815-2.157,0.815c-0.903,0-1.616-0.271-2.139-0.815C451.728,277.352,451.467,276.68,451.467,275.877z
			 M456.493,325.582h-4.277v-38.566h4.277V325.582z"/>
		<path fill="#FFFFFF" d="M481.552,326.295c-3.279,0-6.244-0.807-8.893-2.424c-2.65-1.615-4.711-3.867-6.185-6.754
			c-1.474-2.887-2.21-6.125-2.21-9.713v-1.533c0-3.707,0.718-7.045,2.156-10.016c1.438-2.971,3.44-5.305,6.006-7.004
			s5.347-2.549,8.341-2.549c4.681,0,8.394,1.598,11.139,4.793c2.744,3.197,4.117,7.563,4.117,13.1v2.389h-27.518v0.82
			c0,4.372,1.253,8.014,3.76,10.924c2.507,2.912,5.662,4.367,9.464,4.367c2.281,0,4.295-0.416,6.042-1.248
			c1.746-0.831,3.333-2.162,4.758-3.992l2.673,2.032C492.067,324.026,487.517,326.295,481.552,326.295z M480.768,289.938
			c-3.208,0-5.912,1.177-8.109,3.529c-2.199,2.353-3.535,5.514-4.01,9.481h23.133v-0.464c-0.119-3.707-1.176-6.725-3.172-9.053
			C486.614,291.103,484,289.938,480.768,289.938z"/>
		<path fill="#FFFFFF" d="M543.968,320.699c-2.566,3.73-6.666,5.596-12.297,5.596c-4.112,0-7.236-1.193-9.375-3.582
			s-3.232-5.922-3.279-10.604v-25.094h4.242v24.559c0,7.343,2.97,11.014,8.91,11.014c6.179,0,10.088-2.554,11.728-7.663v-27.909
			h4.277v38.566h-4.135L543.968,320.699z"/>
		<path fill="#FFFFFF" d="M561.863,287.016l0.143,6.594c1.449-2.376,3.255-4.188,5.418-5.436c2.162-1.248,4.55-1.871,7.165-1.871
			c4.135,0,7.211,1.164,9.231,3.492c2.02,2.33,3.041,5.822,3.065,10.48v25.307h-4.242v-25.343c-0.023-3.445-0.754-6.012-2.191-7.699
			c-1.438-1.687-3.737-2.53-6.897-2.53c-2.638,0-4.973,0.826-7.004,2.477c-2.032,1.652-3.535,3.88-4.509,6.684v26.412H557.8v-38.566
			H561.863z"/>
		<path fill="#FFFFFF" d="M619.537,315.78c0-2.114-0.85-3.813-2.549-5.097s-4.26-2.287-7.682-3.012s-6.077-1.557-7.966-2.496
			c-1.89-0.938-3.292-2.085-4.206-3.439c-0.915-1.354-1.373-2.994-1.373-4.919c0-3.042,1.271-5.554,3.814-7.538
			c2.542-1.984,5.798-2.977,9.767-2.977c4.301,0,7.753,1.063,10.354,3.189c2.603,2.127,3.903,4.901,3.903,8.323h-4.277
			c0-2.257-0.944-4.135-2.834-5.632c-1.889-1.497-4.271-2.246-7.146-2.246c-2.805,0-5.056,0.625-6.755,1.871
			c-1.699,1.248-2.549,2.87-2.549,4.866c0,1.925,0.707,3.417,2.121,4.474c1.414,1.058,3.992,2.025,7.735,2.904
			c3.742,0.88,6.546,1.818,8.412,2.816c1.865,0.998,3.249,2.198,4.152,3.6c0.902,1.402,1.354,3.102,1.354,5.098
			c0,3.256-1.313,5.857-3.938,7.807c-2.626,1.948-6.055,2.922-10.284,2.922c-4.49,0-8.133-1.086-10.925-3.262
			c-2.792-2.174-4.188-4.924-4.188-8.251h4.277c0.166,2.495,1.218,4.438,3.155,5.827c1.937,1.391,4.496,2.086,7.681,2.086
			c2.971,0,5.37-0.653,7.201-1.961C618.622,319.428,619.537,317.776,619.537,315.78z"/>
		<path fill="#FFFFFF" d="M646.878,326.295c-3.279,0-6.244-0.807-8.894-2.424c-2.65-1.615-4.712-3.867-6.185-6.754
			c-1.474-2.887-2.21-6.125-2.21-9.713v-1.533c0-3.707,0.719-7.045,2.156-10.016s3.44-5.305,6.007-7.004s5.346-2.549,8.34-2.549
			c4.682,0,8.395,1.598,11.14,4.793c2.744,3.197,4.116,7.563,4.116,13.1v2.389h-27.518v0.82c0,4.372,1.254,8.014,3.761,10.924
			c2.507,2.912,5.661,4.367,9.464,4.367c2.281,0,4.295-0.416,6.042-1.248c1.746-0.831,3.333-2.162,4.759-3.992l2.673,2.032
			C657.393,324.026,652.842,326.295,646.878,326.295z M646.093,289.938c-3.207,0-5.911,1.177-8.108,3.529
			c-2.198,2.353-3.535,5.514-4.011,9.481h23.134v-0.464c-0.119-3.707-1.177-6.725-3.173-9.053
			C651.938,291.103,649.324,289.938,646.093,289.938z"/>
		<path fill="#FFFFFF" d="M686.017,290.65c-0.903-0.166-1.866-0.249-2.887-0.249c-2.662,0-4.914,0.743-6.755,2.228
			c-1.842,1.486-3.155,3.643-3.938,6.47v26.483h-4.242v-38.566h4.17l0.072,6.131c2.257-4.563,5.881-6.844,10.871-6.844
			c1.188,0,2.126,0.154,2.816,0.463L686.017,290.65z"/>
		<path fill="#FFFFFF" d="M705.552,326.295c-3.279,0-6.244-0.807-8.894-2.424c-2.65-1.615-4.712-3.867-6.185-6.754
			c-1.474-2.887-2.21-6.125-2.21-9.713v-1.533c0-3.707,0.719-7.045,2.156-10.016s3.44-5.305,6.007-7.004s5.346-2.549,8.34-2.549
			c4.682,0,8.395,1.598,11.14,4.793c2.744,3.197,4.116,7.563,4.116,13.1v2.389h-27.518v0.82c0,4.372,1.254,8.014,3.761,10.924
			c2.507,2.912,5.661,4.367,9.464,4.367c2.281,0,4.295-0.416,6.042-1.248c1.746-0.831,3.333-2.162,4.759-3.992l2.673,2.032
			C716.066,324.026,711.516,326.295,705.552,326.295z M704.767,289.938c-3.207,0-5.911,1.177-8.108,3.529
			c-2.198,2.353-3.535,5.514-4.011,9.481h23.134v-0.464c-0.119-3.707-1.177-6.725-3.173-9.053
			C710.612,291.103,707.998,289.938,704.767,289.938z"/>
		<path fill="#FFFFFF" d="M773.528,312.822c0-2.875-1.011-5.15-3.029-6.826c-2.021-1.676-5.716-3.268-11.086-4.777
			c-5.371-1.508-9.292-3.154-11.763-4.936c-3.518-2.52-5.275-5.822-5.275-9.91c0-3.968,1.634-7.193,4.901-9.678
			c3.267-2.482,7.443-3.725,12.529-3.725c3.444,0,6.528,0.666,9.249,1.996c2.721,1.332,4.83,3.186,6.327,5.561
			c1.497,2.377,2.246,5.026,2.246,7.949h-4.42c0-3.551-1.213-6.405-3.637-8.563s-5.68-3.236-9.766-3.236
			c-3.97,0-7.129,0.887-9.482,2.66c-2.352,1.773-3.528,4.088-3.528,6.943c0,2.643,1.057,4.797,3.173,6.463
			c2.114,1.666,5.5,3.136,10.158,4.409c4.657,1.272,8.186,2.593,10.586,3.96c2.4,1.366,4.207,3,5.418,4.9
			c1.213,1.901,1.818,4.146,1.818,6.736c0,4.088-1.634,7.367-4.901,9.838c-3.268,2.473-7.574,3.707-12.921,3.707
			c-3.66,0-7.017-0.653-10.069-1.96c-3.054-1.307-5.371-3.137-6.951-5.489s-2.37-5.049-2.37-8.092h4.385
			c0,3.66,1.365,6.547,4.099,8.662c2.732,2.115,6.368,3.172,10.907,3.172c4.039,0,7.283-0.891,9.73-2.673
			S773.528,315.769,773.528,312.822z"/>
		<path fill="#FFFFFF" d="M791.565,277.142v9.874h7.984v3.492h-7.984v25.729c0,2.142,0.386,3.735,1.158,4.782
			s2.062,1.569,3.868,1.569c0.713,0,1.864-0.118,3.457-0.355l0.178,3.463c-1.117,0.399-2.637,0.6-4.563,0.6
			c-2.922,0-5.05-0.849-6.38-2.549c-1.331-1.697-1.996-4.199-1.996-7.502v-25.736h-7.093v-3.492h7.093v-9.874H791.565z"/>
		<path fill="#FFFFFF" d="M831.276,325.582c-0.428-1.211-0.702-3.006-0.82-5.382c-1.497,1.948-3.404,3.452-5.721,4.509
			c-2.317,1.057-4.771,1.586-7.361,1.586c-3.707,0-6.707-1.033-9-3.101s-3.439-4.681-3.439-7.842c0-3.755,1.563-6.725,4.688-8.911
			c3.124-2.186,7.479-3.279,13.063-3.279h7.735v-4.385c0-2.756-0.851-4.924-2.549-6.504c-1.699-1.58-4.177-2.371-7.432-2.371
			c-2.972,0-5.431,0.761-7.379,2.281c-1.949,1.521-2.923,3.351-2.923,5.489l-4.277-0.036c0-3.064,1.426-5.721,4.277-7.967
			c2.852-2.244,6.356-3.367,10.515-3.367c4.301,0,7.693,1.075,10.177,3.225c2.483,2.152,3.761,5.151,3.832,9.001v18.25
			c0,3.731,0.392,6.522,1.177,8.376v0.428H831.276z M817.874,322.518c2.852,0,5.399-0.689,7.646-2.068
			c2.245-1.377,3.879-3.219,4.901-5.524v-8.483h-7.629c-4.254,0.048-7.58,0.826-9.98,2.334c-2.4,1.51-3.6,3.583-3.6,6.221
			c0,2.162,0.802,3.957,2.406,5.383C813.222,321.805,815.308,322.518,817.874,322.518z"/>
		<path fill="#FFFFFF" d="M842.861,305.942c0-5.988,1.337-10.759,4.01-14.312c2.674-3.552,6.303-5.328,10.89-5.328
			c5.204,0,9.172,2.055,11.905,6.166v-21.637h4.242v54.75h-3.992l-0.179-5.133c-2.733,3.898-6.749,5.846-12.048,5.846
			c-4.444,0-8.026-1.787-10.747-5.363s-4.081-8.406-4.081-14.49V305.942z M847.174,306.691c0,4.918,0.986,8.799,2.959,11.637
			c1.972,2.841,4.752,4.26,8.341,4.26c5.251,0,8.982-2.316,11.192-6.95V297.53c-2.21-5.014-5.917-7.521-11.121-7.521
			c-3.589,0-6.381,1.408-8.377,4.223C848.172,297.049,847.174,301.201,847.174,306.691z"/>
		<path fill="#FFFFFF" d="M890.307,277.142v9.874h7.984v3.492h-7.984v25.729c0,2.142,0.386,3.735,1.158,4.782
			s2.062,1.569,3.868,1.569c0.713,0,1.864-0.118,3.457-0.355l0.178,3.463c-1.117,0.399-2.637,0.6-4.563,0.6
			c-2.922,0-5.05-0.849-6.38-2.549c-1.331-1.697-1.996-4.199-1.996-7.502v-25.736h-7.093v-3.492h7.093v-9.874H890.307z"/>
		<path fill="#FFFFFF" d="M921.854,323.07c0-0.813,0.262-1.5,0.785-2.063c0.521-0.563,1.234-0.844,2.139-0.844
			c0.902,0,1.621,0.281,2.156,0.844c0.534,0.563,0.802,1.249,0.802,2.063c0,0.789-0.268,1.452-0.802,1.99
			c-0.535,0.538-1.254,0.807-2.156,0.807c-0.904,0-1.617-0.269-2.139-0.807C922.116,324.522,921.854,323.859,921.854,323.07z
			 M926.524,311.111h-3.957l-0.213-37.428h4.42L926.524,311.111z"/>
	</g>
</g>
<g id="Calque_2" display="none">
	<rect x="62.833" y="74.666" display="inline" fill="none" width="875.834" height="170.833"/>
	<text transform="matrix(1 0 0 1 62.833 214.5347)" display="inline"><tspan x="0" y="0" font-family="'MyriadPro-Regular'" font-size="197px">Por</tspan><tspan x="277.374" y="0" font-family="'MyriadPro-Regular'" font-size="197px">-</tspan></text>
	<rect x="63.5" y="260.666" display="inline" fill="none" width="875" height="65.002"/>
	<text transform="matrix(1 0 0 1 63.5 314.626)" display="inline" font-family="'MyriadPro-Regular'" font-size="76px">Venez découvrir notre ville </text>
</g>
</svg>
